<?xml version="1.0" standalone="no"?>
<!DOCTYPE svg PUBLIC "-//W3C//DTD SVG 1.1//EN" "http://www.w3.org/Graphics/SVG/1.1/DTD/svg11.dtd" >
<svg xmlns="http://www.w3.org/2000/svg">
<metadata></metadata>
<defs>
<font id="mademoiselle_camille_litalic" horiz-adv-x="290" >
<font-face units-per-em="1000" ascent="750" descent="-250" />
<missing-glyph horiz-adv-x="107" />
<glyph unicode=" "  horiz-adv-x="107" />
<glyph unicode="&#x09;" horiz-adv-x="107" />
<glyph unicode="&#xa0;" horiz-adv-x="107" />
<glyph unicode="!" horiz-adv-x="84" d="M74 376q-5 -5 -8.5 -21t-7 -38t-6 -47t-4.5 -47q-2 -24 -5.5 -49t-7.5 -51q-2 -11 -3 -21.5t-3 -21.5q-2 -8 -2 -14v-11q0 -3 -0.5 -5t-0.5 -4h-7q1 9 3 43q2 30 5.5 73.5t9 87t13 80t18.5 53.5zM24 26q0 -4 2.5 -8t4.5 -9v1q2 -4 4 -7.5t2 -6.5q0 -8 -1.5 -19t-4.5 -11 t-6 5t-4.5 11.5t-2.5 12.5t-1 7q0 3 1 8.5t2.5 10t2.5 6.5t1 -1z" />
<glyph unicode="$" horiz-adv-x="380" d="M256 -58q-38 -18 -84 -18q-38 0 -74 13.5t-60 41.5q-17 20 -25.5 45t-8.5 52q0 29 9.5 56t27.5 49q29 35 69 46.5t87 8.5q14 -2 29.5 -10t25.5 -20q2 -2 3.5 -5.5t2.5 -5.5q0 -2 -5 -1t-11 3t-11.5 4.5t-7.5 4.5q-8 14 -22.5 19t-27.5 5h-5q-25 0 -40 -4 q-17 -5 -32.5 -13t-29.5 -26q-20 -22 -31.5 -50t-11.5 -58q0 -22 7 -43.5t24 -39.5q20 -26 52.5 -40t70.5 -14q33 0 64 11q29 9 53.5 27.5t38.5 47.5q7 20 7 41q0 23 -6.5 44.5t-16.5 40.5v-1q-17 29 -41.5 61t-51.5 66q-7 7 -14.5 19t-12.5 27q-2 7 -1 15t4.5 15t9 12.5 t11.5 7.5h-1q14 8 35 12.5t46 4.5q21 0 42 -3.5t40.5 -11t34.5 -18t24 -25.5q0 -2 3 -5q0 -2 2 -6q1 -3 -3.5 -2t-10.5 4t-12 7.5t-8 7.5q-10 24 -34.5 30t-48.5 8h-17q-20 0 -39.5 -2.5t-34.5 -7.5q-32 -14 -32 -36q0 -9 6 -21.5t17 -26.5q29 -35 54 -69t42 -65v1 q14 -23 19.5 -43t5.5 -39q0 -44 -26 -76.5t-69 -51.5z" />
<glyph unicode="'" horiz-adv-x="104" d="M86 234q5 8 9 21q2 6 3 10.5t3 6.5q4 5 12.5 15t10.5 9q2 -2 0 -9t-6 -14.5t-7.5 -13.5t-4.5 -7h2l-10 -10q-5 -5 -8.5 -9.5t-6 -6.5t-2 -0.5t4.5 8.5z" />
<glyph unicode="*" horiz-adv-x="170" d="M31 294q2 2 6.5 4t9.5 5t12 7t12 9h-18q-6 0 -11.5 -0.5t-10.5 -0.5h-13q0 3 11 4.5t27 3.5q5 1 8 0.5t8 0.5q-28 20 -33 40q6 -5 16.5 -13t22.5 -18q3 17 7 30t12 19q0 1 -1 -6t-2 -12q-2 -8 -2.5 -15.5t-2.5 -16.5q4 2 7.5 5t8.5 6q5 4 8 6.5t16 7.5l1 -2 q-2 -2 -5.5 -5t-8.5 -8t-10 -9t-11 -9q15 0 29.5 -2.5t22.5 -8.5h-8.5t-8.5 1q-7 1 -15 1.5t-16 0.5q8 -6 11 -9q7 -7 16 -13l10 -8l-1 -2q-6 1 -18 8.5t-29 19.5q-1 -3 -1 -6.5t-1 -7.5l-4 -22t-5 -19q-2 5 -2.5 20.5t1.5 32.5q-12 -8 -23.5 -14.5t-20.5 -6.5z" />
<glyph unicode="+" horiz-adv-x="230" d="M149 205q-6 -6 -13.5 -27t-11.5 -41q19 0 40 -3t29 -9l-2 -8q-7 4 -28.5 6t-41.5 1q-5 -14 -9.5 -27t-7.5 -28q-2 -4 -2 -6.5t-1 -4.5q0 -1 -0.5 -2t-0.5 -2l-5 1q0 4 1 8t1.5 8t1.5 9q2 9 3.5 20t4.5 24h-11.5t-12.5 1q-9 0 -17.5 0.5t-17.5 -0.5h-16v6q5 -1 17.5 0 t28.5 3q7 1 15.5 1.5t16.5 1.5q5 23 13 43.5t19 28.5z" />
<glyph unicode="," horiz-adv-x="71" d="M11 -31q2 4 3 8.5t2 9.5t2.5 10.5t3.5 8.5t6 7.5t8.5 8.5t8 6.5t4.5 2.5q4 -2 3 -8.5t-4 -14t-6.5 -13.5l-3.5 -6h1q-5 -5 -11.5 -10.5t-11.5 -9.5t-7 -4.5t2 4.5z" />
<glyph unicode="-" horiz-adv-x="229" d="M191 117q-7 4 -29.5 6.5t-44.5 0.5h-16.5t-16.5 1q-9 0 -18 0.5t-18 -0.5h-16v6h6.5t10.5 1q14 2 35.5 3.5t43.5 1.5t39.5 -2.5t25.5 -9.5z" />
<glyph unicode="." horiz-adv-x="71" d="M48 29q-2 -3 -1.5 -6.5t1.5 -6.5q2 -9 0 -11v1q-2 -5 -8.5 -11t-9.5 -7q-3 2 -3.5 6.5t0.5 9t2.5 8l1.5 3.5h-1q4 5 12.5 11t5.5 2v1z" />
<glyph unicode="/" horiz-adv-x="108" d="M147 361q-6 -5 -14.5 -23t-17.5 -43.5t-18 -54.5t-16 -55q-6 -21 -14 -42.5t-16 -44.5q-14 -38 -27 -78q-3 -8 -4.5 -14.5t-3.5 -11.5q-1 -4 -1.5 -7.5t-1.5 -5.5l-8 1q2 5 6.5 22.5t11.5 41.5q10 37 24.5 86.5t30 97t32.5 86t32 55.5z" />
<glyph unicode="0" horiz-adv-x="292" d="M259 258q6 -35 6 -67q0 -51 -11 -95.5t-29.5 -78t-42.5 -52.5t-50 -19q-12 0 -30 6.5t-35 27.5t-29 59t-12 101q0 64 14.5 110.5t36.5 76.5t47.5 44.5t47.5 14.5q15 0 25.5 -7t18 -17.5t11.5 -24t6 -25.5q11 -12 17 -27t8 -24q0 -1 0.5 -1.5t0.5 -1.5zM218 21 q18 32 28.5 75.5t10.5 94.5v6q0 23 -2.5 49.5t-20.5 41.5q-2 -14 -7 -33.5t-16.5 -37.5t-30 -30.5t-47.5 -12.5q0 1 3.5 4.5t9 7.5t10.5 7.5t8 5.5q14 0 25.5 9t19 23t12 30t5.5 31q-3 3 -6.5 8.5l-7 11t-6 10t-2.5 6.5q8 0 14 -4q4 -4 5 -4.5t2 -0.5q-2 10 -6 20.5t-10 19 t-14.5 14t-21.5 5.5q-38 0 -63 -26t-40.5 -65t-22.5 -83.5t-8 -81.5q0 -21 3.5 -50t14 -55.5t28.5 -45t47 -18.5q24 0 46.5 18t39.5 50z" />
<glyph unicode="1" horiz-adv-x="207" d="M168 391q9 0 13 -10.5t4 -25.5q0 -23 -9 -41t-29 -29q-10 -63 -17.5 -132.5t-13.5 -141.5q-2 -14 -2 -25t-1 -19q0 -4 -0.5 -9t-0.5 -7l-7 1q1 5 1.5 21t2.5 39q1 26 3 59.5t4.5 69.5t5.5 71.5t7 65.5q-2 -1 -4.5 -1.5t-4.5 -1.5q-9 -4 -21 -6.5t-33 -2.5q-5 0 -14.5 2 t-19.5 5t-17 7.5t-7 9.5q0 3 6 3q12 0 21 -2.5t17 -6.5q5 -2 13 -5t15 -3q11 0 25 3.5t25 8.5q5 45 14 74t24 29zM151 310q0 -2 -0.5 -3.5t-0.5 -3.5q-1 -2 -1 -5q14 8 18.5 19.5t4.5 31.5q0 18 -5 26q-6 -12 -9.5 -30t-6.5 -35z" />
<glyph unicode="2" horiz-adv-x="327" d="M283 383q10 0 12.5 -15t2.5 -24q0 -5 -0.5 -12.5t-3 -15.5t-7 -13.5t-12.5 -5.5q-10 0 -19 9q-4 -10 -7 -19q-2 -3 -3.5 -7.5t-1.5 -6.5q-23 -69 -57.5 -131.5t-82.5 -128.5q-1 -1 -1 -2t-1 -2q-2 -2 -2.5 -3.5t-2.5 -3.5q14 -5 27.5 -12t25.5 -14q17 -10 34.5 -18 t31.5 -8q18 0 33 15q8 7 16 25t12 39q2 11 -1 23t-12 20q-2 3 -4 9.5t-2.5 13t-0.5 11.5t2 5q2 -2 5 -4t5 -4q15 -18 17 -48q2 -24 -6 -51.5t-25 -43.5q-17 -17 -39 -17q-17 0 -36 9t-39 20q-12 7 -24.5 13t-23.5 10q-16 -23 -28 -31.5t-22 -8.5t-14.5 6t-4.5 15q0 18 16 25 q12 6 26 6q11 0 23 -3q15 28 30.5 55t30.5 53v1q28 48 55 99t46 100q-4 4 -5 6t-3 4.5t-3 4.5v-1q-22 32 -42 45t-40 13q-23 0 -43 -15t-35 -39q-16 -24 -25 -51.5t-9 -53.5q2 -29 15.5 -48.5t36.5 -19.5q15 0 32 9q3 1 10.5 1t14.5 -0.5t11.5 -1.5t2.5 -2q-3 -3 -7 -4h1 q-1 -1 -5 -3h1q-14 -9 -42 -9q-20 0 -37.5 6t-25.5 18q-15 23 -15 54q0 25 9 54.5t25 54t37.5 41t47.5 16.5q22 0 44.5 -14.5t43.5 -45.5q1 -1 1.5 -2t1.5 -2q2 -2 3 -3.5t2 -2.5v2q1 6 4 16t6.5 19.5t8 16.5t10.5 8zM31 -24q0 -14 12 -14q4 0 12 5t15 12q2 2 3.5 5t3.5 5 t3.5 4t3.5 5q-5 2 -9 2h-9q-12 0 -24 -6q-11 -6 -11 -18zM275 304q5 0 8 4.5t5 11t2.5 13t0.5 11.5q0 6 -1.5 17t-6.5 15q-3 0 -5.5 -6.5t-5.5 -15t-5.5 -18t-4.5 -15.5t-2 -8q-1 0 4.5 -4t10.5 -5z" />
<glyph unicode="3" horiz-adv-x="375" d="M266 307q0 -23 -7 -43q35 -20 58 -57.5t23 -84.5q0 -39 -13.5 -72.5t-36.5 -58t-55.5 -38t-69.5 -13.5q-32 0 -58.5 11t-44.5 28q-9 7 -24 25.5t-15 52.5q0 2 0.5 8t2.5 6q1 0 4 -4.5t5.5 -10.5l5 -12t3.5 -9q-1 -2 -1 -8q0 -19 13 -33t32 -23.5t40.5 -14t38.5 -4.5 q33 0 62.5 13.5t51.5 37t35 55t13 68.5q0 26 -9.5 54.5t-29.5 48.5l-5 4.5t-10.5 9.5t-11 9t-7.5 5q-6 -12 -17 -21t-29 -10q-17 -1 -28.5 8t-11.5 22q0 10 10 17t27 7q8 0 23.5 -3t23.5 -9q5 20 5 39q0 29 -15.5 52.5t-53.5 23.5q-6 0 -17 -2t-21 -7t-17.5 -14t-7.5 -22 q0 -3 -3.5 -8.5t-8 -11.5t-9 -10t-5.5 -4q0 29 11 46t26 26t29.5 11.5t22.5 2.5q40 0 58 -24.5t18 -58.5zM248 258l2 2q-7 5 -19.5 9t-23.5 4q-14 0 -22 -6t-8 -11q0 -9 10 -16t23 -7q8 0 18.5 5.5t19.5 19.5z" />
<glyph unicode="4" horiz-adv-x="457" d="M442 129q0 -1 0.5 -1.5t0.5 -1.5q0 -19 -8 -32.5t-17 -22.5t-26 -19q-13 -7 -29.5 -13t-32.5 -10.5t-28.5 -7t-16.5 -2.5q-3 -23 -5.5 -40.5t-3.5 -27.5l-8 1q0 1 0.5 2.5t0.5 3.5q2 8 4 23.5t4 37.5q-8 -1 -16 -1h-16q-29 0 -58.5 3.5t-58.5 8.5q-1 0 -1.5 0.5t-1.5 0.5 q-11 2 -23 4t-21 2q-1 0 -1.5 -0.5t-1.5 -0.5q-2 -1 -6 -1q-10 0 -10 12q0 5 6 6.5t13 1.5q22 17 42.5 44t37 59.5t26.5 67t10 67.5q0 27 -8 46t-21.5 31.5t-30.5 18.5t-35 7q-36 -8 -56 -26.5t-20 -41.5q0 -9 3 -21t9.5 -22t15.5 -17t21 -7q1 0 6.5 -3.5t11.5 -8.5 t10.5 -9.5t4.5 -5.5q-18 0 -34 8t-28.5 21t-19.5 30t-7 35q0 13 6 26.5t17.5 24.5t28.5 18t39 7q23 0 41 -10t30 -26t18.5 -36t6.5 -40q0 -69 -30 -131.5t-75 -108.5q4 -1 8.5 -2t9.5 -2q29 -7 72.5 -13.5t86.5 -7.5q3 16 5.5 34t5.5 37q6 38 13 81t15 81l8 -1 q-6 -27 -11.5 -57.5t-10.5 -61t-9.5 -59.5t-7.5 -54q8 0 29.5 4.5t44 13t40 22t17.5 32.5q0 1 2.5 6.5t6.5 12t8.5 11t7.5 4.5v-4z" />
<glyph unicode="5" horiz-adv-x="381" d="M265 256q24 -12 45.5 -31.5t32.5 -47.5q9 -23 9 -46q0 -16 -4 -31.5t-9 -29.5q-17 -42 -51.5 -75.5t-79.5 -40.5q-22 -4 -52 0.5t-59.5 16.5t-52 31t-29.5 45q-1 2 -1 5.5v6.5t3.5 0.5t8.5 -7.5t9.5 -11t6.5 -9q0 -16 15 -29q25 -17 53.5 -29.5t66.5 -11.5q20 0 41.5 6 t41 19.5t36.5 35.5t29 54q11 35 11 58q0 38 -18.5 63.5t-45.5 42.5q-28 17 -59 25t-57 8h-5q0 -7 -1.5 -17.5t-4.5 -19.5t-8 -15.5t-13 -4.5q-11 1 -17.5 11.5t-7.5 23.5q0 17 13.5 21.5t31.5 6.5q2 21 0.5 48.5t-5.5 58.5h7h12t15 -1q12 -1 28 -2t30 -1q25 0 48 3 q23 7 34 26q2 2 8.5 5.5t12.5 6t10.5 3.5t3.5 -1q0 1 -2.5 -4l-3.5 -7q-16 -23 -45 -31t-66 -8q-16 0 -30.5 1t-27.5 2q-5 1 -13.5 1h-12.5q1 -4 1 -7.5t1 -7.5q3 -27 3 -55v-14.5t-1 -14.5h5q23 0 60 -8q10 -3 21 -7t25 -9q1 0 1.5 -0.5t1.5 -0.5zM124 224q9 0 12.5 13.5 t5.5 25.5q1 3 1 5.5t1 4.5q-10 -1 -23.5 -5.5t-13.5 -15.5t4 -16q6 -12 13 -12z" />
<glyph unicode="6" horiz-adv-x="327" d="M163 252q27 0 52.5 -10.5t46 -29t33 -45t12.5 -57.5q0 -41 -13.5 -71t-34.5 -50t-48 -30t-54 -10q-30 0 -55 11.5t-42 31.5t-26.5 46.5t-9.5 56.5q0 15 6.5 43.5t18 62.5t28 69.5t37 64t44.5 47t50 18.5h5t8.5 -1t8 -2t3.5 -3t-9 -5.5t-17 -6.5q-8 -2 -12 -2q-3 1 -9 1 q-17 0 -33 -16t-31.5 -40.5t-29.5 -55t-25 -60.5q20 23 45 33t51 10zM158 -42q28 0 53.5 10.5t45 30t31.5 48t12 63.5q0 29 -12 54t-31.5 43t-44 28t-49.5 10q-24 0 -47 -10.5t-40 -30t-27.5 -48t-10.5 -63.5q0 -22 7 -46t21.5 -43.5t37 -32.5t54.5 -13z" />
<glyph unicode="7" horiz-adv-x="383" d="M321 393q4 0 12 -2t16 -5.5t13.5 -9t5.5 -12.5q0 -4 -4 -5.5t-6 -1.5q-8 0 -20.5 1t-28.5 3q-4 1 -7.5 1t-8.5 1q-8 -17 -17 -47t-20 -62q-7 -20 -14 -42t-14 -41q-5 -15 -10 -29t-11 -28q-8 -22 -18.5 -47.5t-18.5 -49.5h44v-7h-46q-7 -20 -11.5 -37t-5.5 -22l-4 -2 l-4 -1q0 1 0.5 2t0.5 2q1 2 1 5t2 7q2 6 3 10q3 15 10 36q-8 0 -19 0.5t-16 0.5h-12v7h16t33 -1q12 36 28 85t33 98t34 93t29 71q-35 3 -70.5 5t-71.5 2h-23t-24 -1q-12 -2 -22.5 -8.5t-19.5 -14.5q-8 -7 -16.5 -12t-20.5 -4q8 16 20 25.5t24 13.5t22 5t15 1q46 0 92 -1 t97 -4q7 14 14 18t19 4zM358 364q-1 0 3 2q-2 6 -14 13t-26 7q-8 0 -14.5 -3.5t-10.5 -12.5q11 -1 21 -2t18 -2q7 -1 12.5 -1.5t10.5 -0.5z" />
<glyph unicode="8" horiz-adv-x="350" d="M263 238q27 -20 44 -49.5t17 -66.5q0 -32 -12.5 -61.5t-33.5 -52.5t-48 -37t-55 -14q-31 0 -57.5 12.5t-46 33.5t-30.5 48t-11 56q0 53 29.5 94t74.5 58q-6 9 -9.5 21.5t-3.5 24.5q0 15 5 29.5t14.5 26t24 19t34.5 7.5q19 0 33 -7t22 -18t12 -23.5t4 -24.5 q0 -17 -7.5 -35t-18.5 -29q15 -9 19 -12zM180 258q-14 0 -29 -4q11 -10 22.5 -14t19.5 -4q10 0 17 3t14 7q2 1 2.5 1t2.5 1q-23 10 -49 10zM129 305q0 -11 3 -23t11 -20q10 3 19.5 4t20.5 1q26 0 53 -13q8 12 13.5 30t5.5 38t-11.5 38t-40.5 20q-38 0 -56 -23t-18 -52z M285 27q32 50 32 95q0 41 -23.5 73.5t-55.5 49.5q-5 -4 -17 -10t-28 -6q-11 0 -25 5.5t-26 16.5q-18 -10 -36 -25t-32.5 -34.5t-23 -42t-8.5 -47.5q0 -26 10 -50.5t27.5 -44t42 -31.5t53.5 -12t58 15t52 48z" />
<glyph unicode="9" horiz-adv-x="347" d="M256 373q31 -19 48.5 -51t17.5 -73q0 -16 -3 -34q-2 -12 -8 -36t-15 -53.5t-21.5 -61t-27.5 -57.5t-32 -42.5t-36 -16.5q-3 0 -15.5 2t-26 7.5t-24.5 14.5t-11 23q11 0 19.5 -5t17.5 -12q10 -8 21 -14.5t25 -8.5q18 0 34 20t30.5 50t26.5 64.5t21 64.5q-20 -37 -49.5 -51 t-61.5 -14q-30 0 -57.5 12t-48 32t-32.5 46t-12 54q0 32 12.5 61t33.5 50.5t48 34.5t56 13q37 0 70 -19zM307 198q3 11 5.5 25t2.5 28q0 28 -10 51.5t-27 40.5t-40 27t-49 10q-27 0 -52 -12t-45 -32.5t-32 -47.5t-12 -58q0 -39 26 -75.5t71 -51.5l12 -3q10 -3 28 -3 t36.5 5.5t34.5 17.5t29 31t22 47z" />
<glyph unicode=":" horiz-adv-x="83" d="M42 75q-2 -3 -1.5 -6.5t1.5 -6.5q2 -9 0 -11v1q-2 -5 -8.5 -11t-9.5 -7q-3 2 -3.5 6.5t0.5 9t2.5 8l1.5 3.5h-1q4 5 12.5 11t5.5 2v1zM61 155q-2 -3 -1.5 -6.5t1.5 -6.5q2 -9 0 -11v1q-2 -5 -8.5 -10.5t-9.5 -6.5q-3 2 -3.5 6t0.5 8.5t2.5 8l1.5 3.5h-1q4 5 12.5 11 t5.5 2v1z" />
<glyph unicode=";" horiz-adv-x="833" d="M61 155q-2 -3 -1.5 -6.5t1.5 -6.5q2 -9 0 -11v1q-2 -5 -8.5 -10.5t-9.5 -6.5q-3 2 -3.5 6t0.5 8.5t2.5 8l1.5 3.5h-1q4 5 12.5 11t5.5 2v1zM10 23q2 4 3 8.5t2 9.5t2.5 10.5t3.5 8.5t6 7.5t8.5 8.5t8 6.5t4.5 2.5q4 -2 3 -8.5t-4 -14t-6.5 -13.5l-3.5 -6h1 q-5 -5 -11.5 -10.5t-11.5 -9.5t-7 -4.5t2 4.5z" />
<glyph unicode="=" horiz-adv-x="223" d="M191 89q-6 4 -29 6.5t-45 0.5h-16.5t-16.5 1q-9 1 -18 1.5t-18 -0.5h-16v6h6.5t10.5 1q14 2 35.5 3.5t43.5 1.5t39.5 -2.5t25.5 -10.5zM207 139q-7 4 -29.5 6.5t-44.5 0.5h-16.5t-16.5 1q-9 1 -18 1.5t-18 -0.5h-16v6h6.5t10.5 1q14 2 35.5 3.5t43.5 1.5t39.5 -2.5 t25.5 -10.5z" />
<glyph unicode="?" horiz-adv-x="226" d="M115 385q20 1 38 -4t32.5 -16.5t23.5 -29t10 -41.5q0 -26 -6.5 -45.5t-18 -35.5t-26 -29t-29.5 -26q-14 -11 -27 -22.5t-24 -25t-19 -29.5t-11 -37l-5 2q3 23 11 41t19.5 33t24.5 27.5t27 24.5q28 25 50 51.5t22 67.5q0 18 -8 33.5t-20.5 27t-29 18t-34.5 6.5 q-18 -3 -35 -11t-31 -20t-22.5 -27t-8.5 -32q0 -11 3.5 -22.5t10.5 -21t18.5 -16t26.5 -6.5q3 -1 8.5 -3.5t11 -6t9.5 -6t4 -3.5q0 -2 -6 -2h-8q-16 1 -28 6t-21 11q-20 15 -28.5 32.5t-8.5 35.5q0 21 9.5 38.5t25 31t34 21.5t36.5 10zM57 28q0 -3 4 -11q2 -5 4.5 -11 t2.5 -10q0 -6 -0.5 -13.5t-2.5 -12.5q0 7 -7 19.5t-8 12.5l-1 -1q0 12 5 25z" />
<glyph unicode="@" horiz-adv-x="368" d="M319 24q1 4 4 11t6.5 14t7 12t5.5 5q1 0 2.5 -7t1.5 -9q0 -32 -16 -55t-28 -32q-24 -20 -56.5 -34.5t-70.5 -14.5q-13 0 -40 3t-54.5 18t-48 45.5t-20.5 84.5q0 52 17.5 93t46.5 70t67 44.5t79 15.5q35 0 60 -10t41 -26.5t23.5 -38.5t7.5 -46q0 -35 -16.5 -73t-45.5 -68 q-14 -15 -31 -29t-32 -14h-5t-8.5 2.5t-8.5 8.5t-4 18q0 5 1 10.5t4 16.5q-22 -29 -43 -46t-41 -17q-25 0 -38 19t-13 48q0 32 14.5 65t37 60t48.5 44.5t49 17.5q22 0 34.5 -12.5t12.5 -35.5q0 -5 -0.5 -8.5t-1.5 -8.5q14 27 21 43.5t10 22.5q7 0 7 -22q0 -29 -5 -34 q-1 -2 -5 -9.5t-11 -19.5v1q-7 -12 -15.5 -27t-17 -30.5t-16.5 -31t-13 -27.5q-2 -2 -3 -4q-3 -8 -3 -23q0 -14 13 -14q8 0 21.5 8t36.5 34q28 35 43 68t15 67q0 51 -32 81t-83 30q-44 0 -81.5 -17.5t-64.5 -47.5t-42.5 -70t-15.5 -84q0 -34 11.5 -59.5t31.5 -42.5 t46.5 -25.5t57.5 -8.5q25 0 51 7t47.5 19.5t35 29t13.5 36.5q0 1 -0.5 1.5t-0.5 2.5v5zM119 -4q7 -5 16 -5q20 0 40 22.5t42 57.5q6 9 13.5 23t14 29.5t11.5 31.5t5 28q0 15 -8 25t-23 10q-19 0 -42 -16t-42.5 -41.5t-32.5 -56t-13 -60.5q0 -36 19 -48z" />
<glyph unicode="A" horiz-adv-x="586" d="M16 6q-7 16 -9 32.5t-2 31.5q0 35 10 61t26.5 43.5t39 26t46.5 8.5q20 0 44.5 -8.5t40.5 -27.5q2 -2 3.5 -6t1.5 -8q-11 0 -20 6t-17 12q-9 8 -18.5 15t-22.5 9q-24 0 -46.5 -6t-40.5 -21t-29 -39.5t-11 -61.5q0 -35 14 -63t36.5 -47.5t52 -30t60.5 -10.5t63.5 8.5 t65.5 22t66.5 30.5t66.5 35q20 11 39.5 20.5t39.5 19.5q0 14 1.5 32.5t4.5 32.5q-2 0 -4 0.5t-4 0.5q-3 0 -8.5 0.5l-11 1t-9 0.5t-2.5 0q-33 -33 -69.5 -64t-73.5 -55.5t-72.5 -40t-66.5 -16.5q-30 0 -52.5 15.5t-22.5 48.5q0 21 10.5 40.5t27.5 39.5q29 34 68 46t84 12 q32 0 63.5 -4t63.5 -9q10 -2 18.5 -2.5t18.5 -2.5q16 16 37.5 38t35.5 39v-1q15 35 36 69t41.5 60.5t37 43.5t22.5 18q5 0 5 -5q0 -6 -8 -20.5t-22.5 -35.5t-35 -47.5t-44.5 -55.5v1q-12 -26 -22 -53.5t-17 -54.5q20 1 41 5.5t36 14.5l5 -6q-17 -11 -40 -15.5t-44 -5.5 q-4 -14 -5 -27.5t-2 -27.5q35 14 67 24t61 10q28 0 51 -9t39.5 -23.5t25.5 -32.5t9 -37q0 -23 -10.5 -44t-28 -37.5t-39.5 -26t-44 -9.5q-36 0 -63.5 15.5t-46.5 39.5t-29.5 53.5t-11.5 58.5q-15 -8 -38.5 -20t-39.5 -20q-33 -18 -67.5 -36t-69.5 -32t-70 -23t-70 -9 q-49 0 -89 25t-57 71zM196 -42q30 0 64.5 14t70.5 37.5t72.5 54t70.5 64.5q-14 1 -30 5q-32 5 -65 8.5t-63 3.5q-42 0 -79.5 -12t-66.5 -45q-17 -19 -27 -38t-10 -36q0 -16 6 -27t15.5 -17.5t20.5 -9t21 -2.5zM665 95q-29 0 -61 -9.5t-67 -25.5q1 -24 8 -53t22.5 -54 t39.5 -42t59 -17q25 0 46 10t36.5 25t24.5 34t9 37q0 17 -8.5 34t-24 30.5t-37 22t-47.5 8.5zM488 134q-2 0 0 -1v1zM488 133h2l-1 -1zM543 186q-14 -14 -26.5 -27.5t-26.5 -25.5q5 -1 13 -1.5t13 -0.5q2 0 4 -0.5t4 -0.5q1 2 2 5.5t2 5.5q4 13 7 23.5t8 21.5z" />
<glyph unicode="B" horiz-adv-x="540" d="M50 -58q-15 22 -23.5 46t-8.5 47q0 61 30 84.5t75 23.5q35 0 73 -11t66 -25q11 27 23 51.5t25 50.5q-17 -18 -29 -30.5t-23 -20t-23 -10.5t-28 -3q-5 0 -15 2t-20 5.5t-17 8t-7 9.5q0 2 5 2q13 0 22 -2.5t17 -6.5q5 -2 13 -5t16 -3h4q11 0 15 2q6 1 14.5 7.5t17.5 16 t18.5 20t18.5 20.5q7 10 15 18v-1q10 19 18 35.5t16 30.5q27 54 42.5 80.5t27.5 26.5q6 -2 6 -11q0 -11 -3 -21.5t-13 -27.5t-30 -43.5t-54 -68.5v1q-18 -38 -34.5 -71.5t-30.5 -63.5q7 -4 12 -6.5t8 -4.5q18 35 43.5 79.5t52.5 84t52.5 66.5t44.5 27q14 0 27 -20t13 -50 q0 -21 -7 -38t-16.5 -29.5t-19.5 -20.5t-16 -11q15 -14 28.5 -40t12.5 -52q0 -18 -6.5 -39t-14.5 -38q10 1 21 4.5t23 12.5l5 -7q-12 -8 -26 -12t-26 -5q-22 -35 -54 -60.5t-68.5 -42t-75 -25t-72.5 -8.5q-56 0 -95 18.5t-65 53.5zM351 272v1v-1zM350 271q0 1 1 1zM350 270 q-5 -6 -5 -9l-2 1q2 2 3.5 4.5t3.5 4.5v-1zM364 294q-4 -6 -7.5 -11.5t-5.5 -9.5q24 32 39.5 53t23.5 34.5t11 22.5t3 17q0 2 -0.5 2t-0.5 2q-3 -4 -9 -15t-15 -26t-19 -33zM466 168q-3 3 -6 5.5t-7 5.5q-8 -3 -16 -3.5t-16 -0.5q-15 0 -25 1.5t-10 9.5q0 4 8 8t24 4 q8 0 18 -4t17 -7q18 9 37.5 32.5t19.5 58.5q0 8 -2 17.5t-5.5 18t-8 14.5t-10.5 6q-13 0 -30.5 -17t-37.5 -43t-41 -59t-41 -64q-11 -17 -20 -32.5t-18 -29.5q20 -13 45 -26t49 -24t46 -18t36 -8q11 20 17.5 40t6.5 37q0 22 -7 40.5t-18 32.5zM447 183q-2 0 -3 1 q1 0 1.5 0.5t1.5 0.5v-2zM421 181q3 0 9 0.5t14 2.5q-8 3 -14 5t-12 2q-11 0 -16.5 -2t-7.5 -3q7 -5 27 -5zM267 99q0 -1 -0.5 -1t-0.5 -1v1zM274 93l-8 4q-13 -29 -19 -46.5t-7 -25.5q14 14 22.5 28t19.5 31v-1q1 2 3 4l-4 2l-4 2t-3 2zM123 135q-20 0 -37.5 -4.5t-31 -16 t-21.5 -30t-8 -46.5q0 -26 13 -52t36 -47t55 -34t70 -13q30 0 67.5 5t75 18t71 35t55.5 56q-15 0 -37.5 7.5t-46.5 18.5t-48.5 24.5t-44.5 26.5q-16 -27 -29 -44.5t-18 -23.5l-2 -2q-7 -4 -8 0.5t-1 10.5q0 7 8 30.5t19 46.5q-29 14 -65.5 24t-71.5 10z" />
<glyph unicode="C" horiz-adv-x="406" d="M98 -8q-41 0 -67.5 26t-27.5 69q-2 59 24.5 105t70.5 77.5t100 48t113 16.5q11 0 22 -0.5t22 -1.5q42 20 90 37.5t89 17.5q12 0 24.5 -1t22 -4t16 -9.5t6.5 -16.5q0 -15 -10.5 -24.5t-26.5 -14.5t-34 -6.5t-34 -1.5q-30 0 -49 2.5t-34 5.5q-17 3 -36 5q-37 -20 -77 -45.5 t-73 -53.5q22 -20 22 -55q0 -24 -7.5 -49.5t-21.5 -48.5t-33.5 -41.5t-43.5 -29.5q12 -23 39 -35t57 -12q45 0 87.5 23t72.5 66q5 6 6 11q1 1 1 2t1 2q1 2 4.5 -0.5t2.5 -4.5q-7 -14 -13 -21q-31 -39 -74 -62t-88 -23q-30 0 -59 13t-45 40q-9 -2 -19 -4t-20 -2zM244 164 q0 35 -20 53q-15 -13 -30.5 -32t-28.5 -41.5t-21.5 -47.5t-8.5 -51q0 -8 1 -16.5t4 -17.5q23 10 42.5 28t33 39t21 43.5t7.5 42.5zM596 355q0 14 -14.5 18.5t-31.5 4.5q-35 0 -75 -13t-85 -36q5 -1 12 -2t12 -3q15 -3 33.5 -5.5t50.5 -2.5q16 0 33.5 1.5t31.5 6t23.5 12 t9.5 19.5zM311 327q-51 0 -104.5 -15t-97 -45t-71.5 -74t-28 -102q3 -48 30 -66.5t69 -18.5h11.5t11.5 2q-7 20 -7 44t7 49t19 48t26.5 43t29.5 36q-7 4 -13.5 5t-14.5 1q-15 0 -29 -6t-25.5 -15.5t-18 -22t-6.5 -25.5q0 -8 3 -15q0 -3 -1 -9.5t-3 -12.5t-4 -11t-3 -5 q-2 0 -3.5 4.5t-2.5 10.5t-1.5 11t-0.5 7q0 19 7.5 36.5t20.5 30.5t30 21t37 9q8 0 16.5 -2.5t16.5 -6.5q28 28 62.5 51.5t66.5 40.5q-8 1 -15 1.5t-15 0.5z" />
<glyph unicode="D" horiz-adv-x="599" d="M119 33q-24 0 -45 5.5t-37.5 17.5t-26 31t-9.5 46q0 62 32 110.5t82 82t110 51t117 17.5q68 0 115.5 -19.5t77 -50.5t43 -68t13.5 -73q0 -33 -9 -66q-14 -53 -38 -89.5t-54 -59.5t-64 -33t-69 -10q-29 0 -52 3.5t-40 6.5q-22 5 -37 5l-4 -4q-5 -5 -11 -12t-13 -9 q-13 -1 -13 10q1 8 8.5 14t24.5 8q10 16 20.5 35t21.5 38q8 15 17.5 31t17.5 31q18 32 35 61q17 27 36.5 60.5t34.5 65.5q2 6 4.5 14.5t2.5 16.5q0 5 -1 9t-3 8q-3 7 -3 17q0 9 0.5 19t3.5 10q4 0 7 -7t5 -15.5t3 -15.5t1 -8q0 -13 -3 -24t-6 -17q-20 -55 -45.5 -104 t-51.5 -96q-19 -34 -41 -68t-42 -60q11 0 27 -4q4 -1 14 -3q21 -5 36.5 -7t38.5 -2q48 0 89 20t71.5 54.5t48 82t17.5 101.5q0 38 -15.5 75.5t-48.5 68.5q-28 26 -73 37t-89 11q-66 0 -117 -14t-89 -37t-64 -51t-42 -55.5t-23 -52t-7 -39.5q0 -48 33 -70.5t78 -22.5 q20 0 45 5q-4 11 -4 24q0 21 8 40.5t20.5 34t28.5 23.5t33 9t27.5 -8t10.5 -21q0 -20 -10.5 -37t-27 -30.5t-37 -23.5t-39.5 -16q3 -8 10.5 -14.5t16.5 -13.5q9 -8 16 -14.5t7 -17.5q-11 0 -20 5.5t-16 14t-12 17.5t-8 16q-2 2 -2 5q-12 -2 -24 -3.5t-23 -1.5zM281 147 q-2 7 -6.5 12.5t-14.5 7.5q-14 -1 -29.5 -8.5t-29 -20.5t-22.5 -31.5t-9 -41.5q0 -10 1 -15q0 -1 0.5 -1.5t0.5 -1.5q19 6 38.5 15.5t35 22t25.5 28.5t10 34zM195 -75q0 -3 4 -3q2 0 14 16q-11 -2 -14.5 -6.5t-3.5 -6.5z" />
<glyph unicode="E" horiz-adv-x="381" d="M195 -189q-35 4 -57 33t-28 63q-48 15 -74 54.5t-26 85.5q0 29 11 57t35 51q29 26 64 35.5t72 9.5q22 0 45 -2.5t44 -5.5q4 7 12 18l5 7.5t5 8.5q-32 -8 -64 -8q-48 0 -89.5 17.5t-70.5 55.5q-21 28 -21 59q0 33 20.5 53.5t47.5 20.5q24 0 46 -17t30 -43q2 -6 2 -10 q0 -2 -4 0t-9.5 6t-10.5 9t-7 9q-2 16 -16 27.5t-31 11.5q-23 0 -42 -19t-19 -48q0 -26 20 -54q28 -37 68.5 -54t85.5 -17q40 0 73 10h-1q8 11 19 23.5t20 21.5q16 17 35 34t39 28h-1q11 6 20 9t14 4q4 1 8.5 0t3.5 -10q0 -5 -4 -11q-21 -35 -58 -61.5t-82 -40.5h1 q-6 -8 -12.5 -17.5t-18.5 -26.5q0 -1 1 -1l4 -4t0 -6q-3 -4 -6.5 -3.5t-7.5 2.5h1q-5 1 -7 6q-14 3 -29.5 4.5t-30.5 1.5q-38 0 -76 -10.5t-70 -36.5q-22 -18 -33.5 -45t-11.5 -56t12.5 -57t41.5 -48h-1q2 -1 3.5 -2t3.5 -2q7 -6 18 -9q1 28 15 61t37 60.5t53 46t63 18.5 q16 1 30.5 -6t25 -19t16.5 -28t6 -32q0 -20 -9 -39t-24 -34.5t-35 -28t-42 -18.5q-15 -5 -30 -7.5t-32 -2.5q-33 0 -64 10q2 -13 8.5 -25t14.5 -23q8 -8 17 -14.5t19 -5.5q3 -1 9.5 -5t12.5 -8t9 -7.5t-1 -3.5h-11zM275 101q-32 0 -60.5 -19t-50 -46.5t-35 -59.5t-13.5 -58 q37 -14 78 -14q16 0 33 3.5t32 8.5q35 16 61 45.5t26 61.5q0 15 -5.5 29t-15 25t-22.5 17.5t-28 6.5zM293 180q-2 2 -3 1l1 2q2 -2 4 -2l-1 -2zM459 338q1 2 1.5 5t-1.5 4q-31 -11 -63.5 -40.5t-61.5 -64.5q39 14 72 40t53 56z" />
<glyph unicode="F" horiz-adv-x="529" d="M140 88q-27 0 -43 9.5t-24.5 23t-11 28.5t-2.5 25q0 32 15 66t43 67q54 54 108.5 77t125.5 23q63 0 131.5 -14t134.5 -37l16 16q2 2 3.5 3t2.5 2q0 -2 0.5 -5t0.5 -4l1 -1q-2 0 -7 -4t-8 -9q5 -2 11 -3.5t11 -3.5q35 -11 81 -21.5t100 -10.5q20 0 39 2.5t34 8.5t24 16.5 t9 26.5q0 3 3 8t7 10.5t8 9t6 3.5q0 -27 -10 -44.5t-27.5 -28t-41.5 -15t-51 -5.5q-54 1 -100.5 12t-81.5 22q-5 2 -12.5 4t-12.5 4l-4 -4l-4 -6q-23 -35 -49 -80t-44 -85q11 1 21 5.5t18 11.5q8 6 16.5 11t21.5 4q-11 -14 -22 -22t-21.5 -12t-20 -4.5t-16.5 -0.5h-4 q-27 -49 -54 -96.5t-56 -89.5q-9 -11 -19.5 -23t-22.5 -22.5t-25.5 -17t-27.5 -6.5q-20 0 -35.5 8.5t-26 22.5t-16.5 32.5t-6 38.5q0 27 10 55.5t30 52t51 38.5t72 15l112 -1q2 1 3 2.5t2 2.5q1 2 1.5 2.5t1.5 2.5q13 22 28 49t29.5 51t27 42.5t18.5 24.5q-66 20 -130.5 31 t-123.5 11q-38 0 -73.5 -6.5t-67.5 -17.5q-24 -11 -50 -31t-48 -46t-36 -57.5t-14 -65.5q0 -7 2 -19.5t9.5 -25t21.5 -21.5t39 -9q5 0 13.5 1t14.5 2q11 4 20 12.5t17 16.5q7 8 13.5 14.5t17.5 5.5q-11 -22 -24 -33.5t-26 -17t-25 -6.5t-21 -1zM385 -7q29 39 57 82.5 t55 91.5q-27 0 -54.5 0.5t-54.5 0.5q-29 -1 -56 -11.5t-48 -29t-34 -44.5t-13 -57q0 -18 4 -35t12 -30.5t21.5 -22t32.5 -8.5q9 0 19 6t20 15t20 20t19 22z" />
<glyph unicode="G" horiz-adv-x="563" d="M88 122q-11 7 -23.5 18.5t-23.5 27t-18 34.5t-7 42q0 28 11.5 49t29 35t39 21t41.5 7q39 0 78 -16t69 -36q21 18 47 34t54 29t56 20.5t53 7.5q41 0 62.5 -22.5t21.5 -58.5q0 -27 -15 -58t-43.5 -62t-71 -59t-97.5 -48q-24 -8 -50 -13t-50 -5q-15 0 -30.5 2t-29.5 5 q1 -21 9 -40t22 -34t33.5 -24t43.5 -9q26 0 51.5 10t49.5 26t46 36t41 40v-1q2 5 4.5 9.5t4.5 9.5q7 14 13.5 28t11.5 25q4 9 7.5 17.5t7.5 16.5q3 7 10.5 15.5t21.5 10.5q12 2 10 -6q0 -15 -25 -53q-5 -7 -17 -23.5t-24 -37t-21.5 -41t-9.5 -35.5q0 -12 11 -12q4 0 9.5 2.5 t14 9.5t19.5 20t26 35l2 2t5 -1q0 -2 -7.5 -13.5t-19 -24.5t-25 -24t-25.5 -11q-3 0 -9 0.5t-9 9.5q-11 -24 -29 -59t-42 -67t-53.5 -55t-63.5 -23q-16 0 -32 6q-7 3 -16 7.5t-17 12.5t-15.5 21.5t-11.5 33.5q8 0 14.5 -8.5t11.5 -19.5q5 -8 11 -18.5t15 -15.5 q19 -11 41 -11q23 0 43 11.5t37 31t32 44.5t29 52q7 13 13.5 27.5t14.5 31.5q6 14 10.5 24t11.5 24q-18 -18 -38.5 -36t-43.5 -32.5t-51 -23.5t-61 -10q-24 1 -44 11t-35 26.5t-24 38.5t-10 48q-23 7 -44.5 17t-37.5 24zM292 289l-1 -1l-1 1h2zM306 280q-4 2 -7.5 4t-7.5 4 q-50 -46 -74 -102t-26 -103q14 -3 29.5 -5t30.5 -2q48 0 98 18q58 19 100 46t69 57t40 60.5t13 56.5q0 32 -19.5 52.5t-57.5 20.5q-23 0 -49 -7.5t-52 -20t-50.5 -29.5t-44.5 -35q8 -6 17 -11t15 -9q16 -9 36 -22q24 -17 37.5 -34t12.5 -49q-2 0 -6 4t-8 9t-7 10t-4 8 q0 21 -23.5 38.5t-61.5 40.5zM179 149q13 45 38 82t60 67q-34 19 -68.5 32t-69.5 13q-47 0 -79 -29t-32 -74q0 -22 11.5 -45t31 -43t45 -37t54.5 -27q1 15 3 31.5t6 29.5zM541 149q3 3 4 5l-2 -4zM561 188q-2 -5 -6 -13t-10 -21q11 15 17 27t8 19l-6 -6t-3 -6z" />
<glyph unicode="H" horiz-adv-x="591" d="M516 22q-2 29 3 61t14 59q-5 -1 -10 -1t-10 -1q-17 -2 -37 -4t-38 -6q-20 -36 -47 -72.5t-58.5 -67.5t-67.5 -54t-75 -33q-14 -4 -29.5 -6.5t-31.5 -2.5q-26 0 -50 7t-43 24q-30 27 -30 66q0 45 44 69q7 3 13.5 5.5t13.5 4.5q12 2 26.5 1.5t30.5 -8.5q3 -2 5.5 -2.5 t4.5 -2.5q1 -2 -3.5 -3t-11.5 -2t-14 -0.5t-11 1.5q-10 6 -22 6.5t-23.5 -4t-21.5 -13.5t-16 -21q-8 -14 -5 -34.5t20 -37.5q15 -19 38.5 -27t50.5 -8q31 0 63.5 9.5t58.5 26.5q51 30 93 74.5t77 100.5q-23 -5 -41.5 -11t-28.5 -14l-5 6q12 9 33 16t48 12h-1 q30 48 53.5 98.5t43.5 104.5l2 3q-4 -2 -5 -3h1q-1 -1 -3 -2q-4 -2 -5 -2h1q-17 -10 -36 -17q-26 -9 -56 -15t-56 -9q-4 0 -8 -0.5t-8 -0.5q-22 -2 -44 -5t-43 -13q-15 -7 -28 -22q-24 -24 -22 -57q2 -25 17 -36q9 -8 21.5 -13t23.5 -1q4 0 10.5 -2.5t12.5 -5.5t10 -5.5 t2 -3.5q-1 0 -1.5 -0.5t-1.5 -0.5q-2 -1 -4.5 -1h-4.5q-22 -3 -43.5 7t-35.5 25q-13 16 -13 41q-2 26 14.5 49.5t39.5 34.5h-1q23 13 47.5 17t48.5 6q2 0 3.5 0.5t3.5 0.5q15 1 35.5 3.5t43.5 7.5t46 13t41 22v-1q7 21 12.5 36t10.5 23q3 5 7 10t7 7t5.5 0.5t2.5 -9.5 q0 -10 -5.5 -24.5t-17.5 -30.5q-3 -4 -5.5 -6.5l-5.5 -5.5l-4 -4v1q-5 -14 -12.5 -36.5t-18.5 -50.5t-25.5 -59.5t-32.5 -64.5q17 4 34.5 5.5t33.5 3.5q6 1 13 1t12 1q17 41 46.5 80t66.5 68l9 6q2 2 4 3.5t5 3.5q2 2 4 3q1 1 7 4q11 6 26 9.5t31 0.5q5 0 11 -3 q2 -1 -1.5 -3.5t-9.5 -5t-12.5 -4.5t-10.5 -2q-14 5 -28 -0.5t-24 -13.5q-31 -28 -57.5 -67t-43.5 -78q7 1 14.5 1h11.5l-5 -7q-5 0 -13 0.5t-10 -1.5v1q-8 -23 -15 -47t-10 -49q-1 -5 -1 -10v-10q0 -9 1 -21.5t4.5 -24t11 -19t20.5 -7.5q11 0 23.5 13t16.5 37h7 q0 -11 -6 -23t-15.5 -21t-22.5 -12t-28 6q-14 10 -18.5 26t-6.5 31q0 2 -0.5 4.5t-0.5 4.5zM553 408q-4 -8 -8.5 -18.5t-9.5 -26.5l2 2q1 1 1 1.5t2 2.5q12 15 17 28.5t5 21.5v2q-3 -3 -7 -10q-1 -1 -1 -2t-1 -2v1z" />
<glyph unicode="I" horiz-adv-x="83" d="M221 399q-2 -5 -5.5 -11.5t-7 -12.5t-7 -10t-4.5 -4q-2 0 -2 4q0 5 1 14t3.5 18t6 15.5t8.5 6.5q9 0 9.5 -6.5t-2.5 -13.5zM56 -59q-18 0 -28 5.5t-15 14.5t-5.5 20t0.5 22q8 68 40 127t70 114q14 20 27 41t27 43v-1q3 7 3 16q0 3 -1 6t-2 5q-2 6 -2 10q0 9 2 22.5 t5 13.5t5.5 -5.5t4 -12.5t2 -13.5t0.5 -7.5q0 -7 -1.5 -16.5t-6.5 -20.5q-7 -16 -17 -34t-23 -39q-18 -31 -38.5 -67.5t-38 -73.5t-29 -70t-11.5 -56q0 -18 11.5 -25.5t25.5 -7.5t28 5t24 11l1 -6q-1 -1 -1.5 -1t-1.5 -1q-7 -5 -20.5 -11.5t-34.5 -6.5z" />
<glyph unicode="J" horiz-adv-x="114" d="M182 368q-2 -4 -5.5 -10.5t-7.5 -12.5l-7 -10.5t-4 -4.5q-2 0 -2 4q0 5 1 14t3 18t6 15.5t9 6.5q10 0 9.5 -7.5t-2.5 -12.5zM-374 -111q3 3 7.5 6.5t11.5 7.5h-1q8 5 20 9.5t27 4.5q5 0 17 -2.5t12 -4.5q0 -1 -4.5 -3t-11 -4.5t-12.5 -4t-9 -1.5q-1 0 -1.5 0.5t-1.5 0.5 q-4 1 -9 1q-14 0 -25 -6t-19 -15.5t-12.5 -21t-4.5 -22.5q0 -12 6.5 -25.5t20 -25.5t34 -20t48.5 -8q72 0 133.5 44.5t113 117t94 164.5t76.5 187q5 13 5 27q0 5 -1.5 10.5t-3.5 9.5q-2 5 -4 12.5t-2 18.5q0 15 4 15q11 -14 14.5 -24.5t3.5 -24.5t-3 -24.5t-5 -16.5 q-10 -32 -27 -83.5t-42 -110.5t-58.5 -119t-76.5 -108.5t-95 -79t-114 -30.5q-32 0 -56 8.5t-40 22t-24 30t-8 33.5q0 32 23 55z" />
<glyph unicode="K" horiz-adv-x="530" d="M459 31q-4 20 -8.5 38t-12.5 37l-10.5 -3.5t-9.5 -2.5q-20 -32 -44.5 -63.5t-53.5 -58t-62 -46.5t-70 -29q-17 -5 -32 -6.5t-29 -1.5q-30 0 -53.5 8t-38.5 22q-30 30 -30 66q0 18 9 34.5t24 29t34 18.5t39 3q1 0 1.5 -0.5t1.5 -0.5q1 -1 2 -1t3 -1l4 -2q0 -1 -4 -3.5 t-10 -4.5t-12.5 -4t-10.5 -2q-14 6 -29 -1q-20 -8 -30.5 -24.5t-10.5 -36.5q0 -28 21 -50q14 -15 35 -22t45 -7q33 0 68 11t64 29q42 26 78 62.5t68 81.5q-18 3 -18 16q0 6 5 10.5t12 7t14 3t10 -0.5q29 45 55.5 100.5t45.5 103.5q-10 -7 -21.5 -12.5t-25.5 -10.5 q-26 -11 -56 -16t-56 -8q-24 -2 -50.5 -6t-49 -14.5t-37.5 -29t-16 -49.5q2 -11 10.5 -26t19.5 -18q21 -8 34 -2q4 0 11 -2t14 -4.5t11 -5t2 -3.5l-14 -3q-27 -6 -47 2.5t-28 18.5q-4 3 -12 17t-8 31q0 26 15 49.5t39 34.5h-1q23 14 47.5 18t50.5 6h6q12 1 32.5 3.5 t44.5 7.5t48 13.5t41 21.5v-1l12 36t10 23v-1q7 18 16 18q4 1 5.5 -2.5t1.5 -6.5q0 -20 -12 -39t-27 -32v1q-1 -2 -2 -5l-2 -6q-6 -16 -14 -40t-19.5 -52t-25.5 -59t-32 -61q2 -2 4 -5t4 -7q32 17 67.5 54t70.5 81q19 23 38 45.5t38 41.5t37.5 32t36.5 18q2 1 11.5 3t22.5 2 q12 0 24.5 -3t23.5 -11h-1q4 -2 9 -7q1 -3 -3.5 -3.5t-11.5 0t-13.5 1.5t-10.5 2q-7 8 -16 10.5t-20 0.5q-17 0 -35.5 -12t-39 -31.5t-42 -44.5t-42.5 -50q-35 -42 -71.5 -79.5t-69.5 -54.5q6 -14 11 -34.5t10 -42.5q4 -17 12.5 -34t21 -31.5t29.5 -25t39 -13.5 q3 0 7.5 -0.5t7.5 -0.5q8 2 17.5 5.5t15.5 9.5q4 1 11.5 3t14.5 3t11.5 1t2.5 -2t-2.5 -3t-1.5 -2l-4 -4q-11 -9 -23 -13t-23 -5.5t-20 -0.5t-14 2q-48 8 -74.5 40.5t-34.5 69.5zM389 110q3 -3 10 -3q3 4 6.5 9t6.5 9v-1q1 2 3 4q-3 2 -8.5 1.5t-10.5 -2.5t-9 -5t-4 -6 q0 -4 5 -6h1zM561 421q1 1 0.5 0t-1.5 -2l-1 3zM552 407q-5 -8 -9.5 -18.5t-9.5 -25.5q11 11 20 25.5t7 30.5q-2 -2 -2.5 -3.5t-1.5 -2.5v1q-1 -2 -2 -3t-2 -3v-1zM436 111q0 1 1 1zM422 107q2 1 6 1.5t8 2.5q-2 4 -7 9q-2 -2 -3.5 -6t-2.5 -5t-0.5 -1t-0.5 -1z" />
<glyph unicode="L" horiz-adv-x="427" d="M797 19q2 3 6.5 8.5t9.5 10.5t9 7.5t4 -0.5v-4.5t-1 -4.5q0 -1 -0.5 -1.5t-0.5 -1.5q-8 -27 -37.5 -47.5t-66.5 -34t-75.5 -20t-64.5 -6.5q-75 0 -139.5 26t-118.5 59q-14 -12 -31.5 -23.5t-35.5 -22.5q-29 -16 -61 -25t-63 -9q-30 0 -57 9q-15 5 -28.5 15t-19.5 21 q-14 23 -14 46q0 35 28 68q17 19 40.5 27t44.5 8q32 0 61.5 -17t64.5 -41q14 -9 27 -18t29 -19q38 35 71 78t60 91q-33 -22 -72 -32t-83 -10q-25 0 -53 3t-52 11q-5 1 -13.5 4.5t-17.5 10t-17.5 15.5t-13.5 22l-3 12q0 3 4 1t9.5 -6t11 -9t7.5 -9q2 -14 14.5 -23.5 t24.5 -12.5q23 -8 49.5 -9.5t49.5 -1.5q45 0 85 10.5t78 39.5v-1q16 29 30.5 61t25.5 61q1 5 5 15.5t9 21t10.5 18.5t10.5 8q3 0 7 -4q1 -3 1.5 -6t0.5 -8q0 -12 -4.5 -31t-14 -41.5t-25 -45.5t-37.5 -43v1q-23 -51 -56.5 -106t-80.5 -99q52 -31 116 -57t136 -26 q45 0 92.5 12t101.5 40h-1q9 6 16.5 14.5t7.5 19.5v1zM520 362q-2 -4 -3 -8t-3 -9q-4 -13 -11 -28q-1 -2 -1 -3t-1 -3l-7.5 -20t-9.5 -23q-5 -13 -10 -28q18 19 30.5 39.5t20 39.5t11 35t3.5 27q0 3 -1 6.5t-3 1.5q-2 -4 -6 -10.5t-9 -16.5zM46 83q-24 -26 -24 -58 q0 -17 7.5 -33t23.5 -27q26 -16 64 -16q34 0 73.5 13t69.5 31q10 7 21 14.5t20 15.5q-14 9 -30 19t-27 19q-33 23 -62 39.5t-57 16.5q-18 0 -40.5 -7.5t-38.5 -26.5z" />
<glyph unicode="M" horiz-adv-x="640" d="M406 181q9 5 10.5 12.5t1.5 21.5q0 16 -6 27t-15.5 18t-20.5 10.5t-21 3.5q6 -14 9.5 -26.5t3.5 -25.5q0 -19 -9.5 -35.5t-31.5 -16.5q-15 0 -27 10.5t-12 36.5q0 27 16 43t39 20q-23 37 -63 60.5t-88 23.5q-33 0 -65.5 -14.5t-58.5 -40t-42 -61t-16 -78.5 q0 -25 5.5 -47.5t18.5 -47.5v1q14 -23 30.5 -36t35.5 -20q-21 28 -21 65q0 34 13 58t31.5 39t38 21.5t33.5 6.5q24 0 41.5 -7.5t29 -20.5t17 -29t5.5 -32q0 -21 -8.5 -41.5t-26 -37.5t-43.5 -27.5t-60 -10.5h-14t-13 2q31 -24 80 -24q48 0 101 28t103 72t93.5 97t73.5 104 v-1q7 20 15 41t15 38.5t13 29t10 11.5q3 0 5 -2q0 -13 -14.5 -53t-45.5 -95q-8 -24 -18 -54.5t-20 -61.5t-18.5 -58.5t-13.5 -44.5q9 11 19 22.5t21 25.5q20 25 42.5 52.5t45.5 55.5q7 9 20 31q11 18 24 38.5t25.5 38.5t23 30.5t17.5 14.5q1 0 3 -0.5t1 -5.5 q-1 -6 -12.5 -24.5t-29.5 -42.5q-20 -32 -41 -67t-38 -69t-28 -66t-11 -59q0 -23 10 -36.5t33 -13.5q33 0 55 22q2 0 6 2q4 1 10 3.5t10.5 4t7 1t0.5 -3.5v1q-2 -3 -3.5 -5.5t-3.5 -4.5l-6 -6t-6 -5q-14 -9 -35 -12.5t-30 -3.5q-21 0 -33 6.5t-18 17t-7.5 24t-1.5 26.5 q0 34 8 61.5t24 58.5q-32 -39 -60 -74t-47 -58v1l-3.5 -7t-1.5 -6q-3 -9 -6 -15t-9 -6q-5 0 -6 2.5t0 6.5t3 7t3 5q12 15 24 51t26 82q8 25 13.5 44.5t13.5 43.5q-23 -35 -50.5 -69.5t-58.5 -63.5q-23 -21 -51.5 -42.5t-59.5 -39t-61.5 -28.5t-58.5 -11q-33 0 -61 12.5 t-45 29.5h1q-23 6 -43 21.5t-34.5 37t-23 48t-8.5 55.5q0 39 15 76t40.5 65.5t60 46t74.5 17.5q48 0 93 -25.5t68 -70.5q13 0 26 -4.5t23.5 -13t18 -22.5t8.5 -33q0 -15 -2 -28t-13 -27v1l-2 -4l-1 -1v1q-2 -2 -2.5 -4t-1.5 -3q-3 -3 -3.5 1.5t0 11.5t1.5 14t2 10zM86 85 q0 -39 27 -69h-1q15 -4 38 -4q34 0 58.5 9.5t40.5 25.5t24 35t8 39q0 30 -21.5 56t-64.5 26q-13 0 -31.5 -6t-36 -19.5t-29.5 -36t-12 -56.5zM361 222q0 14 -3.5 25.5t-10.5 25.5q-21 -3 -36 -18t-15 -38t9.5 -32t21.5 -9q17 0 25.5 13t8.5 33zM626 392l-1 -1v-1 q-3 -5 -2 -1t3 8.5t3 5.5t-3 -10h1zM738 333l-5 -5l3 6zM711 296q5 7 11 15.5t11 16.5q-6 -7 -10.5 -13.5t-9.5 -14.5l-1 -2l0.5 0.5l0.5 0.5zM478 -13h1v-1z" />
<glyph unicode="N" horiz-adv-x="524" d="M7 28q0 24 12.5 60.5t33.5 70t48.5 57.5t57.5 24q2 0 11 -0.5t9 -3.5q0 -2 -4.5 -4.5t-10.5 -5l-12 -5t-9 -3.5q-2 1 -9 1q-8 0 -17 -4.5t-15 -9.5q-22 -21 -38.5 -45t-27.5 -47.5t-16.5 -45.5t-5.5 -39q0 -29 13 -41t36 -12h7q2 0 3 0.5t3 0.5q-6 12 -6 25q0 35 10 66 t27 60q14 22 35 49.5t48 52t59 42.5t67 23q42 4 62.5 -15t20.5 -50q0 -26 -15 -53.5t-39.5 -54.5t-56.5 -51t-66 -44t-67.5 -34.5t-60.5 -20.5q13 -13 37 -13q29 0 63.5 16t72 41.5t76 59t74 69t66.5 69.5t54 62v-1q11 36 26 60.5t33 25.5q7 0 5 -5q-2 -9 -15.5 -29 t-36.5 -48q-9 -18 -18 -45.5t-15 -49.5l-5 -19q42 85 93 136.5t98 71.5q5 2 20.5 6.5t34.5 4.5q4 0 12 -1.5t15 -4t12.5 -5t5.5 -4.5q0 -3 -10 -3.5t-19 -0.5q-6 0 -10 1t-8 3q-8 3 -15 3q-35 0 -69.5 -27t-66.5 -69t-61 -92.5t-52 -97.5q-2 -6 -3.5 -14t-3.5 -13 q-8 -33 -14 -52.5t-12 -19.5q-4 0 -5.5 4.5t-1.5 7.5q0 22 5 37.5t11 29.5l9 21q11 25 19 52.5t16 53.5q5 17 9.5 31t9.5 31q-11 -13 -23.5 -27t-25.5 -28q-24 -27 -57 -62t-72 -69.5t-83 -65t-90 -48.5q-11 -4 -23 -6.5t-24 -2.5q-34 0 -52 24q-5 -1 -8.5 -1h-8.5 q-26 0 -41 13.5t-15 46.5zM468 24q4 10 8 27q-9 -22 -13.5 -34t-4.5 -17t1.5 -3t3 7t3 11t2.5 9zM556 303q-2 -3 -4 -9v-1q18 22 28.5 38.5t12.5 21.5q-19 -6 -37 -49v-1zM324 287q-43 -4 -85.5 -32.5t-77 -69t-56.5 -87t-23 -87.5q0 -17 8 -33q21 4 52 16.5t64.5 32 t66.5 43.5t59.5 51t43 54.5t16.5 53.5t-16.5 41.5t-51.5 16.5z" />
<glyph unicode="O" d="M90 321q33 38 68.5 56.5t65.5 18.5q56 0 61 -57q11 -12 16.5 -32t5.5 -45q0 -57 -18.5 -113t-47.5 -104q-22 -33 -48.5 -59.5t-54.5 -39.5h1q4 -1 12 -1q20 0 40.5 9.5t37.5 24t29.5 31t16.5 30.5l7 -2q-5 -15 -17.5 -32.5t-30.5 -32.5t-39.5 -25t-43.5 -10q-16 0 -25 4 q-12 -3 -23 -3q-22 0 -41.5 13.5t-36.5 43.5q-7 14 -13 37t-6 55q0 26 5.5 58t19.5 68l1 2q-13 17 -20 40q-1 2 -1 5.5v6.5q0 26 21 39.5t52 13.5h6zM182 279l-1 -1q-1 0 -1 1h2zM231 221q-22 34 -50 57q-37 -41 -66 -91q21 -5 44 0t43 14q14 9 29 20zM93 189v1h1zM45 214 q10 -8 22.5 -14.5t25.5 -9.5q15 28 32.5 52.5t37.5 48.5q-14 8 -28.5 13.5t-28.5 7.5q-6 -7 -12.5 -15t-10.5 -15q-23 -30 -38 -68zM19 258q2 -9 6 -17.5t10 -15.5q11 27 23.5 49t23.5 40q-28 0 -46 -12.5t-18 -33.5q0 -8 1 -10zM103 -54q7 0 12 1q-31 18 -43 50t-12 67 q0 19 3 37q11 43 28 82q-14 3 -26.5 9t-22.5 14q-10 -19 -17 -46q-10 -36 -12 -77q1 -29 6.5 -50.5t12.5 -33.5q14 -29 32.5 -41t38.5 -12zM286 324q0 -29 -12 -56t-33 -48q9 -13 14.5 -28.5t5.5 -32.5q0 -8 -1 -15.5t-5 -15.5q-1 -1 -1 -2l-1 -2q0 -1 -2 -5q-2 -3 -3 1.5 t-2.5 11.5t-2 14.5t-0.5 11.5q6 9 5.5 19t-4.5 21q-2 5 -4 8t-5 9q-6 -5 -14.5 -10t-16.5 -10q-20 -11 -45.5 -14.5t-48.5 -0.5q-7 -14 -16 -36t-14 -38q-3 -13 -5 -27.5t-2 -27.5q0 -29 12.5 -57t41.5 -44q27 9 55.5 35.5t51.5 64.5q29 46 47.5 102t18.5 110 q0 15 -1.5 30.5t-9.5 29.5l-3 3v-1zM278 330q-12 3 -24 0t-24 -10.5t-23 -17t-20 -19.5q14 -11 26.5 -24.5t23.5 -31.5q18 20 30 46t11 51v6zM277 342q-1 1 -1 2q1 -1 3 -1zM169 297q8 10 20.5 21.5t27 19.5t30 11t29.5 -5q-4 22 -16.5 32t-29.5 10q-16 0 -37 -8 q-22 -8 -41.5 -23.5t-39.5 -35.5q14 -3 29 -9t28 -13z" />
<glyph unicode="P" horiz-adv-x="335" d="M351 302q3 -17 3 -35q0 -26 -5.5 -55.5t-15.5 -58t-23 -53.5t-29 -42q-24 -27 -58 -40.5t-68 -13.5q-9 0 -19.5 1t-18.5 3q-14 2 -26.5 5.5t-20.5 8.5q-3 -5 -3.5 -8t-2.5 -6q-6 -14 -11.5 -25.5t-10.5 -21.5q-3 -9 -10 -24t-14 -17q-4 -2 -4 5q1 8 13 36q2 4 6 14 q2 5 4.5 10.5t5.5 11.5q3 7 8 17t9 17q-9 8 -18.5 21.5t-12.5 29.5q-1 2 -1 5.5v6.5q0 5 8 -4t14 -17q2 -4 5 -7q0 -7 2.5 -12.5t7.5 -12.5q15 32 29 64.5t29 66.5q19 42 40 88t44 97q10 17 33 28q2 1 5.5 2t5.5 2q0 -2 -2 -6.5t-5 -10.5t-6.5 -11t-6.5 -6q-9 -2 -17 -10v1 q-23 -45 -40.5 -83.5t-39.5 -88.5q22 37 42.5 68.5t42.5 60.5q24 30 45 48.5t41 18.5q19 0 32 -25q5 -10 8.5 -20.5t5.5 -22.5zM72 42l-1.5 -3t-0.5 -4h-2l1 5q1 1 1 2h2zM55 7q1 0 1 1zM55 7q0 -1 -0.5 -2t-0.5 -2v1q0 1 1 3zM54 2q-2 -5 -4.5 -8.5t-4.5 -8.5q2 4 3.5 7.5 t3.5 7.5l1 2l1 1v-1zM36 -37q2 5 4.5 10.5t4.5 11.5q-3 -7 -6 -13t-5 -12zM24 -62q1 3 5 11l5 11q-2 -6 -4 -11.5t-4 -10.5h-2zM263 71q15 17 29.5 38.5t26 46t19 52.5t7.5 58t-7 58q-1 2 -1.5 4t-1.5 4t-3 5.5t0 1.5q-12 24 -27 24q-12 0 -26.5 -10t-31 -28t-34 -42.5 t-35.5 -52.5q-19 -29 -36.5 -59.5t-34.5 -62.5l-18 -42q-4 -9 -7.5 -17.5t-7.5 -17.5q16 -8 34.5 -11.5t37.5 -2.5q32 1 63 15t54 39z" />
<glyph unicode="Q" horiz-adv-x="325" d="M23 1q-11 18 -15.5 38t-4.5 43q0 32 8 66t19 64q0 4 1 5v-1l1.5 3l1.5 3q-16 21 -16 51q0 19 6 36.5t18 29.5q1 1 1.5 2t2.5 2q1 1 2 1.5t3 2.5q2 1 2 -3.5t-1.5 -11t-3.5 -14t-4 -10.5q-9 -8 -13 -18.5t-4 -21.5q0 -18 10 -36q18 45 41.5 76.5t48 51.5t49 29t45.5 9 q46 0 59 -37q2 -5 3 -10t2 -11q15 -8 18.5 -31.5t3.5 -44.5q0 -26 -4 -51t-13 -49q5 2 9.5 4.5t9.5 4.5q5 8 9 16t7 13t8 12t10 7q4 0 4 -6q0 -13 -9 -25.5t-19 -18.5v1q-4 -10 -8 -21.5t-9 -23.5q-8 -23 -19.5 -51.5t-20.5 -48.5q-12 -29 -27 -59t-32 -59q-8 -15 -19 -34.5 t-19 -36.5l-4 -8q-1 -3 -3 -7q-1 -2 -2 -3q-5 -9 -15 -18.5t-24 -14.5q-2 0 -5.5 -1t-5.5 -2q-2 0 0 4t5.5 9t8 10.5t7.5 7.5q9 3 20 12q6 6 21 41.5t38 83.5q12 27 25 55.5t25.5 56t24.5 53t22 45.5q-5 -2 -8.5 -3t-7.5 -3q-15 -39 -38 -74.5t-49.5 -62.5t-54.5 -43 t-54 -16q-43 0 -68 41zM340 211h-1q1 1 1 2l1 -1zM326 187q10 12 13 24q-1 -1 -2.5 -4.5t-3.5 -6.5q-4 -4 -4 -6q-1 -2 -1.5 -3.5t-1.5 -3.5zM300 264q0 16 -1.5 30.5t-12.5 26.5q-1 -32 -16 -61.5t-40 -49.5q0 -6 2 -12q0 -1 0.5 -2t0.5 -2q5 -11 15 -22t24 -11q7 0 9 1 q8 25 13.5 50.5t5.5 51.5zM253 299q-1 -2 -1.5 -2.5t-1.5 -2.5q-7 -14 -13 -29.5t-8 -34.5v-10q24 20 37 47.5t13 57.5q0 1 -0.5 1t-0.5 2q-5 -3 -12.5 -10.5t-12.5 -18.5zM273 359q-3 8 -9.5 15t-14.5 12q-11 2 -25 2t-29 -6q-32 -11 -61 -37t-49 -57q-11 -17 -20.5 -35 t-17.5 -34q14 -17 39.5 -24.5t49.5 -7.5q20 0 37.5 4t28.5 10q5 3 9.5 6t9.5 7q-3 22 2.5 46t16.5 47q17 33 37 34q-1 5 -3 13q0 2 -0.5 2.5t-0.5 2.5zM44 213l-1 -2q-1 0 -1 1zM136 180q-25 0 -50 7t-43 24q-11 -29 -20.5 -62t-9.5 -68q0 -19 3.5 -37.5t13.5 -38.5 q11 -20 26.5 -29t34.5 -9q31 0 68.5 26t69.5 68q32 44 49 93h-6q-15 0 -28 9.5t-19 30.5q-2 2 -2 6q-1 2 -1 6q-2 -1 -3 -2t-3 -2q-2 -2 -6 -4l-6 -3q-12 -7 -30 -11t-38 -4z" />
<glyph unicode="R" horiz-adv-x="334" d="M75 153q11 0 19 3q15 5 33.5 21t38.5 39v-1q2 6 5 12t6 13q8 19 18 40.5t20.5 42.5t21 39.5t21.5 32.5q6 7 11.5 7.5t5.5 -10.5q0 -8 -5.5 -23t-15.5 -34t-22.5 -40t-27.5 -42q-1 -1 -1 -1.5t-1 -1.5v1q-10 -17 -18 -34q-1 -2 -1.5 -3.5t-1.5 -3.5q18 29 36.5 57t35.5 48 q22 26 42 41.5t37 15.5q21 0 35 -27q5 -11 8.5 -26t4.5 -33q0 -35 -11 -68.5t-37 -62.5q-21 -24 -48 -42.5t-62 -23.5q2 -3 3.5 -5t3.5 -5q6 -8 12 -17t14 -18q16 -20 35.5 -39.5t44.5 -34.5t55.5 -24.5t68.5 -9.5q13 0 33 1t40 5t36.5 13t21.5 25q2 3 7.5 7t11.5 7t10 4.5 t4 0.5q-1 -2 -2 -4.5t-2 -4.5v-2q-9 -20 -28 -32t-41.5 -18t-46.5 -7.5t-44 -1.5q-40 0 -72 9.5t-57.5 25t-45 35t-35.5 40.5q-10 13 -19.5 25.5t-17.5 23.5q-8 0 -19 1t-18 3q-22 6 -38 17q-5 -8 -7.5 -16.5t-5.5 -16.5l-2.5 -5t-0.5 -2q-14 -32 -24.5 -55t-15.5 -28 q-2 -2 -4 -2t-4 5q0 7 4 18.5t10.5 26t14 29.5t13.5 28l13 25l-3 3q-5 5 -9.5 10.5t-4.5 13.5t12 10.5t19 0.5q4 10 7 19.5t7 20.5q-11 -14 -24 -25t-31 -19l-14 -4t-14 -3q-12 -2 -27.5 0.5t-29.5 13.5q-1 1 -1.5 1t-1.5 1q-3 2 -6 5t2 3.5t12 0t15 -2t11 -2.5q7 -8 28 -10 zM98 35q-2 -3 -2.5 -6.5t-2.5 -6.5q2 4 2.5 7t2.5 6zM81 -1q3 5 6 11l6 12q-2 -5 -4 -9.5t-4 -8.5q-1 -2 -1 -2.5t-1 -2.5h-2zM108 56l-5.5 -11t-4.5 -10q4 10 6 14q2 5 5 12t5 12h2q0 -1 -0.5 -1.5t-0.5 -1.5q-3 -11 -7 -15v1zM145 120q22 -11 53 -14q-11 14 -22.5 24 t-22.5 15l-1 -2q-2 -3 -3.5 -5.5t-1.5 -5.5q-2 -4 -4 -10zM139 147h-1l1 1v-1zM135 137q1 2 1 5t2 5q-2 2 -8.5 0t-9.5 -4q2 -7 12 -15q1 3 1.5 5t1.5 4zM217 251q-18 -27 -33 -52t-28 -48q14 -6 27.5 -19t24.5 -26q33 5 61.5 22.5t50 43t33.5 57.5t12 66q0 24 -6 50 q-11 20 -27 20q-22 1 -52.5 -32t-62.5 -82zM267 395q-2 -1 -2.5 -2.5t-1.5 -2.5q-10 -17 -18.5 -34.5t-16.5 -35.5q-5 -11 -10 -22.5t-10 -22.5q-2 -3 -1 -2.5t-1 -2.5q13 19 24 38t19.5 35.5t13 29t5.5 18.5q0 1 -0.5 2t-0.5 2z" />
<glyph unicode="S" horiz-adv-x="380" d="M257 -58q-39 -18 -85 -18q-38 0 -74 13.5t-60 41.5q-17 20 -25.5 45t-8.5 52q0 29 9.5 56.5t27.5 48.5q29 35 69 46.5t87 8.5q14 -2 30 -10t26 -20q2 -2 3.5 -5.5t2.5 -5.5q0 -2 -5 -1t-11 3t-12 4.5t-8 4.5q-8 14 -22.5 19t-27.5 5h-5q-25 0 -40 -4q-17 -5 -32.5 -13 t-29.5 -26q-20 -21 -31.5 -49.5t-11.5 -58.5q0 -22 7 -43.5t24 -39.5q20 -26 52.5 -40t70.5 -14q32 0 65 11q29 9 53 27.5t38 47.5q7 20 7 41q0 23 -6.5 45t-16.5 41v-1q-17 28 -41 60t-52 66q-7 7 -14.5 19t-12.5 27q-5 14 3.5 30t20.5 21h-1q14 8 35.5 12.5t45.5 4.5 q21 0 42 -3.5t40.5 -11t34.5 -18.5t24 -26q0 -2 3 -5q0 -2 2 -6q1 -3 -3.5 -2t-10.5 4t-12 7.5t-8 7.5q-10 24 -34.5 30.5t-48.5 8.5h-17q-20 0 -39 -2.5t-34 -8.5q-33 -14 -33 -36q0 -9 6 -21.5t17 -26.5q29 -35 54 -69t42 -64v1q14 -23 19.5 -43.5t5.5 -39.5 q0 -44 -26 -76.5t-68 -51.5z" />
<glyph unicode="T" horiz-adv-x="325" d="M459 345q1 -8 -10.5 -9.5t-18.5 -0.5q-11 -14 -24 -36t-27 -48.5t-28.5 -56.5t-28.5 -59t-26 -55.5t-21 -47.5q-6 -15 -15 -31.5t-22 -30t-30.5 -22t-41.5 -8.5q-41 0 -60 21.5t-20 48.5q0 8 2.5 22.5t10.5 28.5t24.5 25t43.5 12q3 0 7.5 -0.5t4.5 -2.5q0 -1 -4 -4 t-9.5 -6.5t-11 -6.5t-8.5 -4h-5q-20 0 -35 -17.5t-13 -46.5q1 -23 17.5 -42.5t54.5 -19.5q19 0 34.5 11t28 29t22.5 40.5t19 45.5q6 15 13 31.5t12 30.5q14 32 30.5 64t34.5 61q12 19 28 41t31 36q-13 4 -25 9q-29 11 -76.5 26t-119.5 15q-88 0 -135 -35.5t-44 -103.5 q1 -20 7 -38t17.5 -32t28.5 -22.5t40 -8.5q25 0 45.5 9.5t34.5 24.5t21.5 33t6.5 34q-2 14 -8.5 24t-14.5 19q-8 8 -13.5 17.5t-4.5 23.5q16 -11 26 -23.5t14.5 -24t6 -21t1.5 -15.5q1 -17 -7 -36.5t-23.5 -36t-38 -27t-49.5 -10.5q-20 0 -38.5 7.5t-32.5 22t-22.5 35 t-9.5 46.5q-2 45 14 73.5t42 44t57.5 21.5t60.5 6q42 0 76.5 -4.5t61.5 -11.5t47.5 -14t35.5 -13q7 -3 13 -5t11 -4q5 5 13.5 9.5t14.5 3.5q7 -4 7 -11zM443 342q7 0 9 2q0 2 -1.5 3t-2.5 2q-6 -2 -11 -7h6z" />
<glyph unicode="U" horiz-adv-x="429" d="M319 32q-26 -29 -54 -39.5t-57 -10.5q-17 0 -35.5 5t-34 17.5t-25.5 34t-10 53.5q0 37 13.5 74t35.5 72t49.5 67t56.5 61q-46 -2 -89.5 -17.5t-78 -43.5t-55.5 -68t-21 -90q2 -11 8 -20.5t13 -17.5t12 -16.5t4 -20.5q-16 7 -25 19t-13.5 24t-5.5 22t-1 15 q0 60 24.5 101.5t63 67.5t84 38.5t87.5 14.5q20 21 28 28.5t17 7.5q13 0 13 -13q0 -11 -13 -20.5t-39 -10.5q-21 -26 -46.5 -60.5t-47.5 -72.5t-36.5 -78t-14.5 -77q0 -3 0.5 -6t0.5 -6v-7q1 -16 10.5 -28t22.5 -20.5t28.5 -12.5t28.5 -4q39 0 65.5 20t57.5 54v-1 q11 65 45.5 125t85.5 108q2 2 7.5 6.5t9.5 1.5h-1q4 -2 4 -9q0 -17 -10 -40t-25 -48t-32.5 -49t-31.5 -43q-7 -10 -12.5 -17.5t-9.5 -13.5v1q-8 -15 -13.5 -31.5t-5.5 -27.5q0 -38 28 -38q8 1 19 7t22 20l6 -5q-13 -16 -26.5 -23t-25.5 -7q-14 0 -21.5 6.5t-11 15t-4 15.5 t-0.5 8v7t1 7q0 2 0.5 4.5t0.5 6.5q-5 -5 -10 -11t-10 -11zM475 293q-8 -11 -20.5 -31t-27 -45.5t-29 -54t-25.5 -55.5q20 25 40 56t35.5 59t25.5 49.5t10 29.5q-2 -1 -7 -6zM310 403q-5 1 -10 -4l-9 -9q-4 -5 -6.5 -8t-6.5 -8q20 1 28.5 9t9.5 14q-2 4 -6 6z" />
<glyph unicode="V" horiz-adv-x="353" d="M544 386q0 -2 -4 -5.5t-9.5 -6.5l-11 -6t-8.5 -4h-4q-11 0 -20 -6t-16 -14q-61 -84 -100.5 -158t-61.5 -122l-25.5 -51t-15.5 -19q-5 0 -10 11q-6 13 -12.5 32t-12 41.5t-9 47.5t-3.5 49q0 21 3 45.5t9 49.5t14 49.5t17 46.5q-17 -1 -42 -5t-54 -13.5t-57.5 -25 t-51.5 -38.5t-37.5 -54t-14.5 -71q0 -11 1 -14q0 -13 9 -24.5t17 -19.5q8 -7 14.5 -16.5t5.5 -19.5q-17 9 -27 19.5t-15.5 21t-7.5 20t-3 14.5q0 2 -0.5 2.5t-0.5 1.5q0 58 24 101t62 71.5t85.5 43t94.5 14.5l1 1q1 1 3 5q1 1 3.5 6.5t3.5 7.5q5 8 13.5 12t12.5 4 q5 0 9.5 -3.5t4.5 -9.5q-1 -9 -11 -18.5t-33 -11.5q-17 -51 -24 -109t-7 -110q0 -18 1 -37.5t4 -39t8.5 -37.5t13.5 -33q4 2 11.5 18.5t18.5 39.5q11 24 26.5 56t35.5 69t44.5 76.5t53.5 80.5q11 14 28 30t47 16zM281 385q0 -2 -1 -3t-1 -2t-1 -1l-3 -5q19 2 27 9.5t8 13.5 t-5 6q-4 0 -10 -3.5t-14 -14.5z" />
<glyph unicode="W" horiz-adv-x="548" d="M739 388q-11 6 -24.5 2t-24.5 -12q-21 -17 -40 -44q-20 -27 -39.5 -61t-36.5 -67q-18 -35 -37 -68t-36 -61t-31 -48t-21 -28q-5 -5 -10 -5q-1 1 -2 1q-2 0 -3 1q-8 14 -20 46t-18 70q-2 13 -3 26.5t-2 26.5q-6 -10 -10.5 -19l-9.5 -19q-24 -47 -42 -81t-29 -45 q-8 -9 -14 -9q-4 0 -5.5 2.5t-3.5 4.5q0 1 -1 2q-7 13 -14.5 33t-13.5 42.5t-9.5 47t-3.5 47.5q1 40 9 84.5t25 81.5q-42 -2 -77.5 -12.5t-74.5 -34.5q-32 -19 -60.5 -52.5t-38.5 -79.5q-1 -6 -1.5 -13.5t-0.5 -15.5v-4v-9.5t2 -9.5q2 -11 8.5 -21.5t17.5 -14.5 q3 -3 6.5 -8.5t6.5 -11t4 -10t0 -4.5q-3 1 -6.5 2t-5.5 3q-17 11 -28.5 33.5t-11.5 54.5q0 29 7 54t21 48q14 22 31.5 39.5t39.5 30.5h-1q34 23 77.5 32t88.5 11q3 5 8 13t8 12q4 4 10 7.5t12 4t10 -2t4 -11.5t-11.5 -18.5t-34.5 -11.5q-6 -16 -10.5 -36.5t-8.5 -45.5 q-2 -17 -3 -41t-1 -40q1 -8 1.5 -16.5t0.5 -16.5q1 -24 2.5 -48.5t8.5 -50.5q3 -11 6.5 -22t8.5 -20v1l2 -2q4 0 8 7q9 10 15 21q10 16 24 42q5 8 10 18t11 20v-1q8 17 16.5 33.5t18.5 34.5q1 1 1 2.5t1 2.5q0 20 1.5 47.5t6.5 47.5q7 32 20 68.5t42 59.5q15 11 28 11 t16 -12q5 -14 -3.5 -34t-16.5 -34v1q-38 -68 -72 -129q-1 -11 -1 -23.5v-23.5q0 -42 6 -83t21 -74l2 2q9 8 22 27t28 43.5t31.5 54t32.5 58.5q24 45 46.5 83.5t36.5 59.5q12 17 26 32.5t25 23.5q9 7 29.5 15.5t45.5 2.5q2 -1 4.5 -2t4.5 -2h2q3 -2 -1 -4t-10.5 -4 t-13.5 -3.5t-11 -1.5zM295 365q-9 -9 -13 -19q20 2 28 9.5t8 13.5q0 5 -3 6t-6.5 -0.5t-7.5 -4.5t-6 -5zM477 396q-25 -19 -36 -49.5t-18 -62.5q-3 -14 -5 -28.5t-4 -31.5q15 29 31 58t33 58q8 14 14 30t1 32v-1q-3 3 -16 -5z" />
<glyph unicode="X" d="M461 405q3 0 -0.5 -3t-9 -7t-12 -8t-10.5 -5q-12 2 -23 -5t-21 -18q-29 -32 -63 -79.5t-64 -95.5v1l-15 -26v-17t1 -17q2 -31 7 -59.5t15 -52.5v1q5 -9 13 -17t18 -10q4 -2 9 -7.5t9 -10.5t5.5 -9t-1.5 -4q-8 2 -11 3q-19 6 -32 22.5t-22.5 37t-15.5 42.5t-10 40l-6 27 q-20 -35 -31.5 -62t-11.5 -41q0 -7 -3.5 -8t-3.5 8q0 7 4 19.5t10.5 27.5t15.5 32.5t19 34.5q-2 17 -2.5 35t1.5 32q2 27 7.5 55.5t14.5 55.5q2 4 3.5 8t3.5 8q3 8 6.5 16.5t7.5 16.5q-60 -2 -107 -19.5t-79.5 -46.5t-49 -65.5t-16.5 -75.5q0 -16 6 -32.5t23 -24.5 q1 -2 5.5 -8.5t7.5 -12.5t4 -10.5t-3 -2.5q2 -2 -2.5 0t-6.5 4q-22 13 -30 34t-10 35q0 2 -0.5 6t-0.5 12q0 42 18 80.5t52 68.5q33 28 82.5 46t109.5 20q13 24 30 33h-1q7 5 16 4t9 -14q0 -9 -11 -19t-34 -12q-5 -12 -8.5 -26t-7.5 -31q-7 -29 -11 -64t-5 -70q2 4 3 5 q2 2 2.5 4t2.5 4q30 47 63.5 94.5t62.5 79.5q2 2 4 6q3 4 8.5 10t14 12t20 10.5t25.5 4.5h12zM291 393q-2 -4 -6 -9.5t-4 -3.5l-3 -6q19 2 27 9.5t8 13.5q0 5 -3 6t-7 0t-7.5 -4t-4.5 -5v-1z" />
<glyph unicode="Y" horiz-adv-x="401" d="M471 302q2 2 8 6t10 -3v1q1 -1 1 -7q0 -12 -12 -38.5t-35 -63.5v1q-15 -26 -34 -53t-40 -53q-5 -8 -8.5 -14t-7.5 -13t-7.5 -14.5t-7.5 -14.5q-45 -77 -98 -156q-14 -21 -28 -41.5t-28 -42.5v1q-1 -2 -2.5 -4.5t-2.5 -4.5q-8 -12 -22 -25.5t-40 -17.5q-2 -1 -5.5 -1h-6.5 t0 3.5t8 8t11 9t10 5.5q11 -1 21 6.5t17 16.5q32 55 64 111l64 112q-1 0 -1 -0.5t-1 -0.5h1q-1 -1 -4 -3h1q-21 -16 -42.5 -22.5t-42.5 -6.5q-39 0 -64 18h1q-12 6 -21.5 20t-11.5 24q-7 27 -7 56q0 22 4 38q17 66 55.5 122t86.5 105q-9 0 -12 -1q-29 -4 -64.5 -14.5 t-64.5 -30.5q-32 -19 -60.5 -52.5t-38.5 -80.5v-5q-1 -6 -1.5 -12.5t-0.5 -18.5q2 -11 6.5 -21.5t13.5 -15.5q2 -3 4.5 -9t4.5 -12.5t2.5 -11.5t-0.5 -5q-1 1 -5 3q-5 2 -6 5v-1q-16 13 -22 31.5t-6 40.5q0 28 8.5 56t21.5 50q27 44 70 70q21 14 45.5 22.5t49.5 12.5 q31 6 63 8l4.5 4.5t3.5 4.5q8 9 17.5 18t20.5 9q13 0 13 -13q0 -10 -11.5 -20.5t-36.5 -10.5h-6q-13 -15 -30 -37.5t-34 -49t-33.5 -56t-27.5 -57.5q-17 -45 -12 -101q2 -19 15 -37.5t33 -23.5q20 -7 42 -7q35 0 68 18h-1q7 5 12.5 10.5l12.5 12.5l4 5v-1q4 7 8 14.5t9 15.5 t8.5 14.5t8.5 14.5v-1q5 8 9.5 16.5t9.5 16.5q22 37 42 72.5t35 60.5q7 11 12 18.5t13 17.5zM308 403q-7 0 -13 -6t-12 -13q-2 -2 -4 -5.5t-4 -4.5q21 1 30 9t9 14t-6 6zM437 202q20 33 31.5 59.5t11.5 37.5q-1 -1 -2.5 -2t-2.5 -2q-3 -3 -4 -7q-6 -8 -10.5 -15t-8.5 -14 q-2 -2 -2.5 -4t-2.5 -4v1q-13 -27 -26 -55.5t-32 -66.5q14 20 25.5 37.5t22.5 34.5z" />
<glyph unicode="Z" horiz-adv-x="187" d="M337 399q6 0 7 -5.5t-5 -9.5l-4.5 -3t-3.5 -3t-4.5 -3t-4.5 -2q-13 -15 -22 -28.5t-20 -30.5q-5 -9 -12 -20.5t-13 -22.5v1q-9 -16 -18 -33.5t-20 -34.5v1l-32 -56t-31.5 -53t-30.5 -46.5t-28 -36.5q7 1 16 1.5t17 0.5q36 0 89 -9.5t122 -35.5q21 -7 40 -19.5t30 -35.5v1 q0 -1 1 -2t1 -2.5t1 -2.5q0 -2 2 -6q0 -3 -4.5 -1t-10.5 6.5t-12 9.5t-10 9q-4 14 -17 23t-26 14q-66 23 -118 33t-87 10q-26 0 -44 -3h1q-15 -15 -25 -19h1q-3 -2 -9 -4t-11.5 -3t-9.5 0t-3 6q1 6 7.5 10.5t15 8t17 5.5t13.5 3h-1q14 17 29 44.5t31 58.5q11 20 21.5 40.5 t21.5 38.5q15 27 33.5 56t35.5 52q11 16 23 32t26 32h-1q-6 -3 -10 -4.5t-7 -3.5q-35 -12 -71.5 -21t-74.5 -4q-4 0 -13.5 2.5t-21 7.5t-23.5 13t-21 21q-3 2 -4 7q-1 2 -1.5 2.5t-1.5 2.5q-2 3 3 1t12 -5.5t14 -7.5t10 -6q5 -11 19 -18.5t25 -11.5q8 -2 16.5 -2.5 t16.5 -0.5q37 0 73.5 11.5t70.5 28.5q3 5 10 13.5t15 8.5zM58 -8q1 1 2 1.5t2 1.5q2 2 2 2.5t4 2.5q-25 -8 -29 -15q9 0 20 7h-1zM336 390l-4 -2h1l-1.5 -1.5t-3.5 -1.5l1 2q1 -1 3 1.5t4 4.5l1 -2z" />
<glyph unicode="\" horiz-adv-x="108" d="M-31 371q16 -17 33.5 -58t34 -90t30.5 -99.5t24 -86.5q5 -22 9 -36.5t6 -18.5l-8 -1q0 2 -1 5q-2 6 -2 8q-2 5 -3.5 11.5t-4.5 14.5q-14 40 -27 78q-8 23 -16 44.5t-14 42.5q-8 25 -17 54t-18 55t-17.5 45t-15.5 25z" />
<glyph unicode="_" horiz-adv-x="284" d="M32 -25q7 -5 30 -7t45 0q8 0 24 -0.5t35 -0.5q20 -1 38.5 -1h27.5h16v-6h-6t-11 -1q-18 -2 -50 -4t-64 -2q-31 0 -55 3t-32 11z" />
<glyph unicode="`" horiz-adv-x="117" d="M14 258q0 2 6 2q12 0 20.5 -3t16.5 -6q7 -3 13.5 -5t14.5 -2q4 0 12 2q3 1 10 1q3 0 3 -4q0 -1 -6 -5.5t-33 -4.5q-15 0 -29 4.5t-28 18.5v2z" />
<glyph unicode="a" horiz-adv-x="185" d="M99 5q-5 5 -6.5 13t3.5 25q-22 -31 -45.5 -42.5t-43.5 0.5q-21 15 -21 50q0 19 7 41t21 42q13 19 28.5 33t32 22.5t32 10.5t27.5 -4q19 -12 14 -42q5 11 9 17.5t6 11.5q4 8 7 17q1 2 2 -3t1.5 -13t-0.5 -17t-4 -15q-6 -10 -14.5 -26.5t-17.5 -33.5t-17 -32.5t-11 -24.5 q-2 -4 -4 -12q-1 -5 0.5 -10t5.5 -7q4 0 10 2t14.5 8.5t20.5 19t27 33.5q3 3 6.5 2.5t1.5 -4.5q-6 -9 -12.5 -17.5t-11.5 -16.5q-11 -12 -25 -23t-28 -11q-11 1 -15 6zM25 11q18 -11 37.5 7.5t42.5 53.5q5 8 12.5 21.5t11.5 21.5q13 28 13 48q0 18 -12 25q-17 10 -44.5 -8.5 t-50.5 -52.5q-12 -19 -19 -40.5t-7 -37.5q0 -28 16 -38z" />
<glyph unicode="b" horiz-adv-x="174" d="M168 150q0 -23 -7 -41q5 0 14 -1.5t14 -3.5v-6q-5 2 -14 3.5t-15 1.5q-10 -24 -24.5 -44t-30.5 -34t-32 -22t-29 -8q-11 0 -16 2.5t-9 7.5q-4 -2 -8.5 -3.5t-7.5 -1.5h-3.5t-7.5 2t-7 7t-3 15t4 23t18 42q8 17 15.5 31.5t15.5 28.5q5 10 10 19l10 18l18.5 37t17.5 33 l11 22l5 10q12 26 16 34t6 8q3 0 3 -19q0 -16 -2 -24q-1 -1 -1 -3q0 -1 -1 -2q-3 -6 -11 -20.5t-18 -31.5v-1q-9 -15 -15 -26t-13 -23q27 25 53 25q44 0 44 -55zM17 10q0 1 1 1zM-1 6q3 0 8 1t10 3q-5 22 5 40t29 30.5t42.5 19.5t45.5 9q7 20 7 40t-8.5 31.5t-22.5 11.5 t-27.5 -10.5t-27.5 -27.5q-7 -8 -18 -28.5t-22 -43t-19 -41.5t-8 -25q0 -8 6 -10zM138 103h-2q1 0 1 1zM41 4q11 1 24.5 9.5t27 22t25 30.5t18.5 37q-13 -2 -34 -7t-40 -15.5t-31.5 -26.5t-8.5 -40q1 1 1.5 2t1.5 2q3 5 7 11t10 6q2 -1 -3 -11t-13 -15q7 -5 15 -5z" />
<glyph unicode="c" horiz-adv-x="137" d="M141 60q-21 -33 -49 -50t-53 -17t-38 15t-13 42q0 29 13 56.5t32 48.5t40.5 34.5t38.5 14.5q32 1 32 -26q0 -8 -2 -14.5t-4 -11.5q-6 -8 -9 -11q-5 -4 -11 -7t-15 -3h-8q0 3 7.5 7t12.5 5q11 0 17 9.5t6 20.5q0 8 -4.5 15t-13.5 7q-17 0 -36 -13t-35 -34t-27 -47t-11 -51 q0 -45 39 -45q20 0 42.5 16t42.5 45q3 3 7 0q0 -5 -1 -6z" />
<glyph unicode="d" horiz-adv-x="189" d="M194 67q-6 -9 -11.5 -17t-12.5 -16q-11 -12 -25 -23t-26 -11h-4.5t-7.5 2.5t-7 7.5t-3 14q0 8 5 26q-38 -55 -72 -55q-20 0 -31 15t-11 39q0 27 12 54t30.5 49t40 36t40.5 14q39 0 39 -40q0 -5 -0.5 -9.5t-2.5 -12.5q25 48 42.5 83.5t29.5 58.5q7 14 13.5 26.5t11.5 21.5 q3 0 3 -17q0 -12 -2.5 -20.5t-2.5 -7.5h2q0 -1 -1 -2t-1.5 -2.5t-1.5 -3.5q-4 -6 -9.5 -16t-13.5 -24q-6 -11 -13.5 -24.5t-13.5 -24.5q-35 -63 -58.5 -109.5t-23.5 -61.5q0 -11 9 -11q4 0 10 2t14.5 8.5t20 19.5t26.5 35l2 2q1 1 2 1q3 0 2 -6v-1zM27 11q4 -4 13 -4 q12 0 30 17t34 41t27.5 51t11.5 47q0 29 -25 29q-16 0 -35 -13t-35 -34t-27 -46t-11 -49q0 -28 17 -39z" />
<glyph unicode="e" horiz-adv-x="139" d="M134 155q-17 -18 -51 -18q-7 0 -14 2t-13 8l-3 3q-1 3 7.5 2.5t11.5 -2.5q3 -5 11 -6.5t13 -1.5q8 2 17.5 5.5t15.5 11.5q4 5 6.5 11.5t1.5 12t-5.5 9t-14.5 3.5q-17 -1 -40.5 -19.5t-42.5 -46.5q-12 -19 -18.5 -40.5t-6.5 -38.5q0 -29 16 -39q11 -7 25 -5.5t29 10 t30.5 22.5t28.5 33q4 5 7 3.5t-2 -9.5q-14 -22 -33 -38t-38 -24t-36 -9t-29 7h1q-11 7 -16.5 19.5t-5.5 29.5q0 42 28 86q24 38 56.5 56.5t57.5 10.5q7 -2 11 -8t4.5 -13.5t-1.5 -15t-8 -11.5z" />
<glyph unicode="f" horiz-adv-x="101" d="M36 31q-2 -5 -4.5 -9.5t-4.5 -9.5q-11 -22 -23.5 -44.5t-29 -42.5t-36.5 -35.5t-45 -22.5q-11 -4 -35 -4q-5 0 -14 1t-20 4.5t-22 9.5t-19 17q-2 2 -3.5 4.5t-3.5 6.5q-2 3 2.5 2t11.5 -3.5t14 -6t10 -5.5q5 -9 16.5 -15t15.5 -6q4 -2 15 -1.5t25.5 3.5t28.5 9t24 17 q16 16 27 36.5t22 42.5l3 6l3 6v-1q11 20 20 39.5t19 39.5q4 7 9 17.5t8 17.5l12 26t11 24q-15 -21 -36 -48.5t-35 -45.5l-6 5q11 14 22.5 29.5t23.5 31.5t23.5 32t22.5 30v-1q11 25 26 53.5t34 53t41 42t48 20.5q24 3 50 -2.5t44 -28.5q2 -2 3.5 -5.5t2.5 -5.5 q0 -2 -4.5 -1t-10.5 3.5l-12 5t-9 4.5q-7 12 -19 17.5t-23 6.5q-26 2 -42 -8l-6 -4q-2 -1 -5 -3t-5 -3h1q-27 -22 -46.5 -56t-38.5 -71q5 2 7.5 2.5t5.5 0.5q5 7 13 13t17 11q2 0 5.5 1t5.5 2q1 0 -0.5 -4t-5.5 -9.5l-8 -11t-7 -8.5q-13 -4 -21.5 -17t-10.5 -25q-2 -2 -4 -2 q-3 0 -3 4q2 8 3 13q0 3 2 5v-1q2 5 2 10t5 12q-5 -2 -11 -8q-3 -3 -2.5 -3t-0.5 -2l-6 -12q-1 -1 -1 -2t-1 -3t-1.5 -3.5t-1.5 -3.5q-7 -14 -16.5 -34.5t-19.5 -42.5q-4 -8 -7 -14.5t-6 -13.5t-6.5 -14t-6.5 -14z" />
<glyph unicode="g" horiz-adv-x="192" d="M198 69l-12 -18t-12 -17q-11 -14 -24.5 -24.5t-24.5 -11.5q-4 -1 -11 2q-6 3 -10 13q-6 -10 -9 -16.5t-5 -11.5q-2 -4 -3 -6.5t-2 -4.5q-12 -26 -28 -52.5t-35 -50t-40 -40t-42 -22.5q-25 -6 -54 0t-47 29q-3 3 -6 11q0 1 5 0t11 -3t12 -5t9 -5q5 -9 14 -14t17 -7 q29 -4 56 11t44 38q15 20 26.5 39.5t22.5 40.5l11 22q8 21 16 38t17 32q3 3 5.5 7.5t2.5 5.5q-23 -33 -48 -46t-45 -2q-21 15 -21 50q0 19 7 41t21 42q13 19 28.5 33t32 22.5t31.5 10.5t27 -4q10 -6 13 -18t1 -27q7 14 11.5 25t4.5 12q1 2 2 4.5t2 4.5l2 4q2 4 3 -0.5 t2 -12.5t1 -16.5t-1 -11.5q0 -3 -1 -4v1l-2 -4q-2 -2 -2 -3q-4 -6 -14 -26t-23 -47q-1 -1 -2 -4t-1 -4q-8 -19 -13 -33l-4 -16q-1 -6 0.5 -10.5t6.5 -5.5q3 0 8.5 1t14 7.5t20 20t27.5 38.5v-1q1 6 6 6q2 -4 1 -6v-1zM107 72q10 18 18.5 36t13 33.5t3.5 28t-10 18.5 q-17 10 -45 -8t-50 -53q-13 -20 -19.5 -40.5t-6.5 -37.5q0 -28 16 -38q18 -11 37.5 7.5t42.5 53.5z" />
<glyph unicode="h" horiz-adv-x="171" d="M146 182q0 1 1 2q-1 -1 -1 -2zM117 273q-5 -9 -9 -17.5t-9 -17.5l-10.5 -21t-8.5 -18t-9.5 -18.5t-12.5 -21.5q18 19 39 34q11 7 24.5 12t28.5 -4q10 -11 9 -26t-6 -27q0 -2 -2.5 -6t-5.5 -9q-10 -16 -26 -44t-26 -54q-2 -4 -4 -12q-1 -5 0.5 -10t5.5 -7q4 0 10 2.5 t14.5 9t20.5 19t28 33.5q4 7 7 4q2 -2 0 -6q-3 -5 -3 -6q-5 -7 -11 -14.5t-11 -13.5q-11 -12 -25 -23t-26 -11q-14 0 -18 10v-1q-5 8 -2.5 26t21.5 54q4 7 7 13.5t6 12.5l21 41q2 4 5 9.5t5.5 10.5t3.5 7.5t-1 0.5q2 7 -5 13h1q-8 5 -20.5 0.5t-21.5 -9.5q-20 -14 -36 -31 t-29 -37v1q-15 -29 -31 -60t-23 -49q-2 -3 -2.5 -5t-1.5 -4l-4 -4t-6 1q-2 2 -2 6q15 34 32.5 72.5t36 76.5t36 73.5t32.5 63.5q8 14 12.5 24t4.5 11q3 5 4 0t1.5 -13.5t0 -16.5t-1.5 -10l-2 -4z" />
<glyph unicode="i" horiz-adv-x="70" d="M76 74q2 -2 -2 -9q-6 -9 -11 -16t-12 -15q-11 -12 -25 -23t-26 -11q-14 0 -18 10v-1q-6 9 -2.5 27t20.5 53q1 2 7.5 16t14.5 31q4 9 9.5 20.5t10 21t7.5 16.5t3 9q1 0 2.5 -6t2 -13.5t0.5 -14.5t-1 -9q-8 -15 -15.5 -30l-15.5 -31l-15.5 -31l-14.5 -29q0 -3 -1 -4 q-2 -6 -3 -16t5 -13q3 0 9 2t15 9t21 19.5t28 33.5q4 4 6 4h1zM88 266q1 3 5.5 9t9 11.5t8.5 8.5t4 0q0 -2 -0.5 -3t-0.5 -3v-6q-2 -18 -11 -30.5t-18 -20.5q-8 -7 -7.5 -4.5t3.5 10.5q2 5 4.5 12.5t2.5 15.5z" />
<glyph unicode="j" horiz-adv-x="77" d="M-16 3q-17 -31 -42 -61t-63 -40q-6 -2 -14 -2t-13 1q-12 2 -27 7t-26 18h1q-3 2 -5 5v-1q-2 2 -4 6q0 1 5 0.5t11.5 -2t13 -3.5t9.5 -4q6 -10 19 -14t25 -4q22 7 44 32t42.5 59t39 72t33.5 71q8 17 14.5 32t12.5 26q2 4 3.5 -1t2.5 -13t0.5 -16.5t-1.5 -10.5l-22 -40 q-9 -17 -18.5 -37t-17.5 -36q4 5 1.5 -0.5t-4.5 -9.5q-2 -5 -3 -8l-2 -6q-2 -13 7 -17q4 0 9.5 2.5t14.5 9t21 19t28 33.5q4 7 7 4q2 -2 0 -6q-3 -5 -3 -6q-12 -15 -23 -28q-11 -12 -25 -23t-26 -11q-2 -1 -10 2q-3 2 -5 3.5t-4 7.5q-3 -8 -6 -11v1zM121 295v-6.5t-1 -5.5 q-2 -17 -10.5 -30t-17.5 -21q-8 -5 -7.5 -2.5t3.5 9.5l5 12.5t3 14.5q1 3 5 9t8.5 11.5t8 8.5t3.5 0z" />
<glyph unicode="k" horiz-adv-x="175" d="M161 185q-8 -31 -31 -52t-53 -34q0 -8 2 -23t6 -30.5t8.5 -27t9.5 -12.5q4 0 9.5 1t13.5 7t20 19t29 36q2 2 2 3q1 6 5 2h-1q3 -2 2 -6q-3 -5 -3 -6q-5 -7 -11 -14.5t-11 -13.5q-11 -12 -25 -23t-26 -11q-12 -2 -22 8q-8 8 -16.5 27.5t-12.5 60.5q-5 0 -11 1.5t-9 5.5 l-2 4t-1 4q-2 -5 -6 -11v1q-14 -26 -25.5 -50t-17.5 -39q-2 -5 -4 -9l-4 -4t-6 1h1q-5 2 -2 7q2 6 8.5 22t15.5 36t19.5 41.5t19 40t14.5 30.5l6 12v-1q3 5 12 23.5t19 38.5q5 11 9.5 20.5t7.5 14.5q8 15 14 27.5t7 14.5q2 5 3 3t1.5 -8t0 -13.5t-0.5 -13.5v-8 q-2 -8 -8 -20.5t-13.5 -27t-15.5 -29t-15 -26.5q-2 -4 -4 -7l-4 -6q-4 -7 -9.5 -17.5t-12.5 -23.5q-6 -11 0 -22q2 -4 8.5 -4t13.5 2l9 3q1 0 1.5 0.5t1.5 0.5q16 7 31 21t16 33q2 5 8.5 12.5t13 14t12 10t5.5 0.5q0 -5 -0.5 -8t-1.5 -8z" />
<glyph unicode="l" horiz-adv-x="68" d="M-1 0q-15 0 -19 10v-1q-5 8 -1.5 27t20.5 53q14 29 31.5 62.5t34.5 66.5l9.5 19t9.5 18q6 12 12 23.5t5 11.5q2 2 3.5 -3.5t1.5 -13.5t-0.5 -15.5t-1.5 -9.5v1q0 1 -2 -5l-2 -4v-1l-2 -2q-4 -7 -7.5 -13.5t-6.5 -12.5q-5 -9 -10.5 -20t-13.5 -25v1q-23 -41 -42 -78.5 t-27 -54.5q-1 -2 -1.5 -5t-1.5 -6q-2 -13 7 -17q3 0 9.5 2t15.5 8.5t20.5 19t26.5 33.5q1 1 1 1.5t1 1.5v-1q2 4 7 2q0 -2 -3 -8q-6 -9 -11 -16t-12 -15q-11 -12 -25 -23t-26 -11z" />
<glyph unicode="m" horiz-adv-x="268" d="M245 183l-1 -1zM146 145q1 1 1.5 2.5t1.5 2.5q-1 0 -1 -1zM53 160q-2 -2 -4 -8q21 24 45 41q11 8 24.5 13t27.5 -5q10 -10 10.5 -23.5t-4.5 -24.5q18 21 43 40q11 7 24.5 12t28.5 -4q12 -9 10.5 -26t-9.5 -31q0 -1 -1 -2q-3 -3 -4 -6q-5 -8 -12 -20t-14.5 -25.5t-15 -28 t-11.5 -26.5q-2 -3 -4 -13q-1 -5 0.5 -10t5.5 -7q4 0 10 2t15 9t21 19.5t29 34.5q3 3 4 3q3 -3 2 -6q-3 -5 -3 -6q-12 -15 -23 -28q-11 -12 -25 -23t-26 -11q-13 0 -17 10v-1q-5 8 -2.5 26t20.5 54q4 7 7 13.5t6 12.5l21 41q2 4 5 9.5t5.5 10.5t3.5 7.5t-1 -0.5q1 3 -1 6.5 t-4 7.5h1q-8 5 -20.5 0.5t-21.5 -9.5q-17 -12 -33.5 -29t-29.5 -36q-5 -8 -12.5 -21.5t-15.5 -29t-15.5 -32t-12.5 -28.5q-1 -1 -2 -4t-3 -6q-3 -4 -9 -2q-1 0 -1 6q0 3 5.5 16.5t13.5 32t17.5 40t18.5 40.5t15.5 33t8.5 19q0 5 -5 10h1q-8 5 -20.5 0.5t-21.5 -9.5 q-21 -15 -38.5 -33t-29.5 -38l-15 -30q-9 -19 -18 -37t-17 -38l-2 -4q-1 -1 -1 -2q-2 -2 -3 -4l-4 -4t-5 2q-2 2 -2 6q1 5 11.5 31t24.5 54q0 4 1 5v-1q8 19 16 36t15 31q6 14 11 25.5t6 13.5q2 4 3.5 -0.5t2 -12.5t0.5 -16.5t-1 -11.5z" />
<glyph unicode="n" horiz-adv-x="169" d="M146 182q0 1 1 2q-1 -1 -1 -2zM52 152l-2 -3q10 12 21.5 23.5t25.5 20.5q11 7 24.5 12t28.5 -4q10 -11 9 -26t-6 -27q0 -2 -2.5 -6t-5.5 -9q-10 -16 -26 -44t-26 -54q-2 -4 -4 -12q-1 -5 0.5 -10t5.5 -7q4 0 10 2t15 9t21 19.5t28 34.5q3 3 4 3q3 -3 2 -6q-3 -5 -3 -6 q-5 -7 -11 -14.5t-11 -13.5q-11 -12 -25 -23t-26 -11q-14 0 -18 10v-1q-5 8 -2.5 26t21.5 54q4 7 7 13.5t6 12.5l21 41q2 4 5 9.5t5.5 10.5t3.5 7.5t-1 0.5q2 7 -5 13h1q-10 5 -21 1t-21 -10q-26 -17 -43 -38t-31 -45q-2 -2 -3.5 -6.5t-2.5 -6.5q-10 -20 -19.5 -39.5 t-17.5 -40.5l-4 -8q-6 -6 -13 -4q-1 0 -1 6q1 4 8.5 22.5t18.5 43t22.5 50t19.5 43.5q5 10 8 17.5t3 6.5l3 6q0 1 0.5 2t0.5 2t1 2q2 4 3.5 -1t2.5 -13t0.5 -16.5t-1.5 -10.5z" />
<glyph unicode="o" horiz-adv-x="153" d="M148 145q-7 -44 -35 -84q12 -3 22.5 1t18.5 12l8 -2q-27 -22 -52 -16q-26 -35 -54 -49.5t-48 -0.5q-21 13 -21 49q0 20 7 43.5t21 43.5q12 19 27.5 33t31 22.5t29 11t22.5 -1.5q18 -7 16 -28q5 0 6.5 -11t0.5 -19v-4zM95 137q-4 1 3 6t12 7q5 6 10.5 12t14.5 14v-1 q2 11 -4 18.5t-12 7.5h-4q-18 -2 -40 -20t-40 -47q-13 -20 -19.5 -41t-6.5 -38q0 -13 4 -23.5t13 -15.5q17 -11 36.5 3t38.5 40q-13 10 -13 30q0 13 4 26t10 22h-7zM111 138q-5 -8 -10.5 -21.5t-5.5 -27.5q0 -19 10 -25q12 20 22 40t14 44q1 5 1 14.5t-2 8.5q-2 -14 -11 -22 t-19 -11h1zM135 168v-1v1h1l-1 -1l-2 -2q1 2 1 4z" />
<glyph unicode="p" horiz-adv-x="171" d="M148 184l-1 -1zM58 160q-4 -6 -7 -12q11 14 22.5 24.5t25.5 20.5q11 7 24.5 12.5t27.5 -4.5q12 -11 11.5 -26.5t-8.5 -28.5l-7 -11.5t-16.5 -28t-19.5 -35.5t-16 -36q-2 -4 -4 -12q-1 -6 0.5 -10.5t6.5 -5.5q3 -1 8 0t14 7t21.5 19.5t29.5 36.5v-1q4 7 5 7q3 -6 1 -8 q-11 -17 -25 -34q-11 -12 -25 -22.5t-25 -10.5q-14 0 -18 10v-1q-6 9 -3 26.5t22 52.5q3 9 8 19l9 18t8 15.5t7 15.5q2 4 5 9.5t5.5 10.5t3.5 7.5t-1 -0.5q0 2 -1 6t-3 7h1q-8 5 -21 0.5t-21 -9.5q-39 -26 -66 -70v1q-9 -19 -19.5 -39t-19.5 -39q-1 -1 -0.5 -1t-0.5 -1v1 q-5 -9 -9 -17l-8 -16q-6 -12 -10 -21t-6 -12q-37 -76 -97 -96q-11 -3 -25 -5.5t-27 -0.5q-13 1 -32 7.5t-33 23.5q-2 2 -3.5 5.5t-2.5 5.5q0 1 5 0.5t11 -3t11.5 -5t8.5 -4.5q7 -12 19.5 -17.5t24.5 -6.5q15 0 32 5t34 17q20 18 34.5 42t25.5 46q10 20 20 41t21 43 q17 33 32.5 65.5t29.5 63.5q2 4 3.5 -1t2 -13t0.5 -16.5t-1 -10.5z" />
<glyph unicode="q" horiz-adv-x="183" d="M50 -41q8 17 14.5 30l14.5 29q-20 -17 -39.5 -22t-34.5 4q-21 13 -21 49q0 20 7 43.5t21 43.5q23 36 50.5 52t54.5 15q14 -1 23 -10t11 -23q2 2 3 6.5t3 7.5q2 2 3 6t3 7q2 4 4 7q1 0 2.5 -6.5t2 -14.5t0 -15t-1.5 -9q-4 -5 -10.5 -18t-12.5 -26q-10 -20 -18.5 -39.5 t-13.5 -27.5q-3 -3 -5 -12q-5 -8 -5 -13q-1 -5 0.5 -10t5.5 -7q4 0 9.5 2t14.5 9t21 19.5t29 34.5v-1q2 7 5 4h-1q4 -1 2 -6q-3 -5 -3 -6q-12 -15 -23 -28q-11 -12 -25 -23t-25 -11q-4 -1 -8 1q-9 2 -11 10q-5 -13 -10.5 -23.5t-7.5 -13.5q-11 -23 -27.5 -53t-38.5 -56 t-50.5 -43.5t-62.5 -15.5q-12 1 -33 7t-36 26q-3 3 -6 11q0 1 4.5 0.5t10.5 -3l12 -5t9 -4.5q6 -14 20.5 -19.5t26.5 -4.5q23 0 44 11t35 30q20 22 33.5 47.5t27.5 51.5q2 2 1.5 3t1.5 3v-1zM91 44q4 4 12 22.5t18 39.5q7 17 13.5 32.5t11.5 23.5q-1 12 -10.5 22.5 t-20.5 10.5q-18 0 -41 -18.5t-41 -47.5q-14 -20 -20 -40t-6 -37q0 -14 4 -25t12 -16h-1q17 -10 34 0t35 33z" />
<glyph unicode="r" horiz-adv-x="153" d="M156 74q5 -3 1 -7q-13 -20 -25 -33q-11 -12 -25 -23t-26 -11q-14 -2 -18 9v-1q-5 8 -3 26.5t19 54.5q1 3 3 8.5t4 8.5q1 3 3 8.5t4 8.5q2 5 5 11.5t5 11.5q4 9 7 17l6 16q-1 11 -11 14t-21 2h-6q-8 -14 -16 -29t-15 -28q-1 -1 -3 -5q-13 -23 -26 -46.5t-24 -36.5l-6 6 q13 16 34.5 53.5t46.5 85.5q-6 0 -14 3t-7 12t12 18t20 0q3 -5 3 -13q0 -5 -1 -8h9.5t9.5 -1q1 0 1.5 -0.5t1.5 -0.5q19 -5 22 -12v1q1 -2 2 -8.5t1.5 -13.5t0 -13.5t-1.5 -8.5l-6 -11.5t-14 -28t-17 -36.5t-16 -36q-2 -5 -4 -15q-1 -5 0.5 -10t5.5 -7q4 0 10 2t15 9 t21 19.5t29 34.5v-1q2 7 5 4h-1zM73 206v1h1zM59 209q-1 -1 4 -1.5t10 -0.5q4 10 -1 14q-2 2 -7 -2.5t-6 -9.5z" />
<glyph unicode="s" horiz-adv-x="142" d="M63 182q0 1 -0.5 2t-0.5 3q-1 3 -1.5 7.5t-2.5 9.5t2 16t18 7q11 -7 7 -17.5t-9 -18.5q-2 -2 -2 -3q1 -6 5 -13q2 -5 3.5 -9t3.5 -9t3.5 -10t3.5 -10q7 -18 14 -40t10 -41q4 -25 -11.5 -40t-33.5 -16q-21 -1 -34 11t-13 32v6q1 3 6 -4t6 -12q0 -6 1 -8q5 -12 23 -17 q14 1 25.5 13t9.5 29q0 15 -6 39.5t-12 44.5q-1 4 -2 7l-2 6q-2 8 -4 13.5t-4 12.5q-7 -14 -16.5 -31l-19 -34t-19 -32t-17.5 -25l-6 5q8 11 18.5 27t21 33.5t20 34.5t15.5 31zM71 199l1 1l1 -3h-2v2z" />
<glyph unicode="t" horiz-adv-x="73" d="M176 232q-18 1 -36.5 3.5t-36.5 5.5q-8 -16 -18 -35.5t-21 -39.5q-10 -20 -20.5 -39.5t-20 -37.5t-16.5 -32.5t-11 -22.5q-1 -2 -1.5 -5t-1.5 -6q-1 -5 0.5 -10t5.5 -7q17 1 33 16.5t29 32.5q3 4 5.5 7.5t5.5 7.5q1 3 2.5 5t4.5 -1h-1q3 -2 2 -6q-3 -5 -3 -6 q-12 -15 -23 -28q-11 -12 -25 -23t-26 -11q-14 0 -18 10v-1q-5 8 -1.5 27t20.5 53q7 12 15 28l14 28q12 24 25.5 50.5t24.5 48.5q-13 2 -24.5 4.5t-24.5 4.5q-2 0 -4 0.5t-4 0.5q-9 2 -17.5 3.5t-17.5 3.5q-24 5 -48 9t-49 8q-5 1 -9.5 1.5t-9.5 1.5q-27 4 -58 6 q-12 -1 -25 -6.5t-20 -17.5q-5 -5 -18 -13.5t-21 -12.5q-3 -1 -1 6.5t10 18.5q13 17 34 25t44 7q36 -2 74.5 -7.5t79.5 -12.5l26 -4l26 -4l62 -12l5 10q2 2 2.5 4.5t2.5 4.5v-1l9.5 19l8.5 17t6 12.5t3 6.5q2 5 3 -0.5t1 -14t-0.5 -17t-1.5 -10.5q-5 -8 -10.5 -18.5 t-7.5 -16.5q20 -5 40.5 -7.5t50.5 -2.5q12 1 25 6.5t18 16.5q3 2 9 5t12.5 5.5t10.5 3t3 -2.5q-2 -2 -2 -3q-3 -5 -3 -6q-11 -14 -25.5 -21t-29.5 -10q-6 -2 -13.5 -2h-16.5h-12z" />
<glyph unicode="u" horiz-adv-x="177" d="M178 71q3 3 4 3h1q1 -2 1 -4t-2 -6q-5 -8 -11 -15t-12 -15q-12 -13 -28 -23.5t-34 -11.5q-13 0 -17 6q-5 5 -6 16t7 31q-7 -7 -17 -16t-21 -17t-22 -13.5t-19 -5.5q-15 0 -19 10v-1q-12 17 19 80q18 36 29 57.5t17 33.5l8 16t2 6q2 3 3 -2t2 -13.5t0.5 -16.5t-1.5 -10 q-13 -22 -25 -44q-11 -19 -21.5 -39.5t-17.5 -36.5q-1 -2 -3 -7.5t-2.5 -11t0 -10t5.5 -5.5q8 -2 35 13t57 55q2 2 2.5 4t2.5 5l4 8l26 53q5 10 9.5 19.5t8.5 17.5l10 20q4 8 5.5 -2.5t0.5 -23.5q0 -7 -0.5 -11t-1.5 -7q-6 -9 -14 -23t-16.5 -30t-17 -32.5t-14.5 -29.5 q-2 -4 -4.5 -9.5t-4 -11t-0.5 -10t7 -5.5q3 0 10.5 1.5t18.5 8t24.5 19t29.5 34.5z" />
<glyph unicode="v" horiz-adv-x="140" d="M51 162q1 0 1 1zM128 209q3 -3 5 -11q8 -23 2.5 -44.5t-16.5 -38.5q-8 -13 -15 -23.5t-14 -19.5q-4 -4 -6 -8q-3 -5 -12 -16t-20 -21.5t-23.5 -18.5t-24.5 -8q-11 -1 -15 9q-4 8 -2 26.5t16 53.5q3 8 6 17t6 16q2 5 4 11t4 11q7 18 12.5 35t8.5 25q-1 -5 -0.5 -12t2 -14 t3 -11.5t2.5 -4.5q-1 -2 -1.5 -5t-2.5 -5q-4 -9 -10.5 -23t-14 -30t-14.5 -32t-11 -29q-2 -5 -4 -15q-1 -6 0.5 -11t6.5 -6q6 -1 26 11t44 41q11 14 24 33t24 37q5 10 6 21.5t-5 20.5q0 3 1 11t2 15t2.5 11t3.5 1v1z" />
<glyph unicode="w" horiz-adv-x="225" d="M52 162q1 0 1 1zM134 161l1 1zM211 208q1 -2 1.5 -2.5t1.5 -2.5q1 -1 1 -1.5t2 -2.5q5 -14 4.5 -27t-3.5 -24t-7 -19t-7 -11v1q-11 -20 -17.5 -29t-11.5 -17q-2 -2 -3.5 -4.5t-3.5 -4.5q-3 -5 -11.5 -15.5t-19.5 -21.5t-24 -19t-25 -8q-9 -1 -13 4q-4 6 -5.5 15.5 t3.5 29.5q-12 -15 -30 -32t-38 -17q-12 -1 -16 9q-4 8 -2 26.5t16 53.5q3 8 6 17t6 16q2 5 4 11t4 11q7 18 12.5 35t8.5 25q-1 -5 -0.5 -12.5t2 -14t3.5 -11t3 -4.5q-1 -2 -1.5 -5t-2.5 -5q-4 -9 -10.5 -23t-14 -30t-14.5 -32t-11 -29q-3 -9 -3 -16q-1 -6 1 -10.5t7 -5.5 q8 -1 27.5 11.5t48.5 50.5v-1q8 29 21.5 68.5t27.5 68.5q0 -11 2 -26t4 -17q-2 -3 -8 -16.5t-14 -32t-16.5 -38.5t-14.5 -36q-3 -8 -3 -15q0 -6 2 -10.5t7 -5.5q8 -2 26 10t42 41q10 13 22.5 32.5t23.5 37.5q5 10 6 21.5t-5 20.5q0 3 1 11t2 15t2.5 11t3.5 1z" />
<glyph unicode="x" horiz-adv-x="127" d="M-55 -51q-1 3 -1 9q-1 12 2.5 23.5t9.5 22t12 18t11 12.5q5 6 11.5 12.5t10.5 11.5q10 12 22 25q0 10 0.5 24.5l1 29t1 27.5t0.5 21v13q0 5 3 2.5t7 -7.5t7 -11t3 -8q-1 -14 -1 -27q-1 -11 -1 -24.5t-1 -24.5q8 8 12.5 14t9.5 11t7 8q7 10 11.5 21t0.5 21q1 3 4 10 t6 13.5t6 10.5t3 2q1 -3 1.5 -6t1.5 -5q3 -29 -12.5 -51t-33.5 -41q-5 -5 -8.5 -9t-7.5 -9q-2 -10 -2 -14q-2 -12 -2 -19.5t-1 -20.5q0 -8 2 -14q5 -12 13 -15q3 -1 9 0.5t15 7.5t20 18.5t25 33.5q3 5 6 5q6 0 1 -7q-13 -20 -24 -32t-24 -22.5t-26 -9.5q-12 -1 -20 5 q-7 5 -11 19.5t-2 42.5v5q-5 -6 -12 -13.5t-12 -14.5l-21 -24q-6 -8 -10 -19t-1 -18q-1 -4 -4.5 -11t-7 -13.5t-6.5 -10t-3 -0.5z" />
<glyph unicode="y" horiz-adv-x="165" d="M95 0q-3 0 -9 2q-10 4 -12 12q-17 -32 -37 -59.5t-48 -44.5h-1q-2 -2 -6.5 -3t-7.5 -2l-9 -3q-14 -3 -29 -1q-12 2 -26.5 7t-25.5 18h1q-3 2 -5 5v-1q-2 2 -4 6q0 1 5 0.5t11.5 -2t12.5 -3.5t9 -4q8 -11 21 -15t27 -2q15 4 30.5 18t29.5 33t27.5 41.5t24.5 45.5 q-13 -15 -34 -31.5t-41 -16.5q-15 0 -19 10v-1q-12 17 19 80q26 52 37.5 75.5t15.5 30.5l2 4t1 3q1 2 2.5 -3.5t2 -13t0.5 -15t-1 -10.5q-6 -14 -15.5 -30.5t-17.5 -30.5v1q-11 -20 -21 -37t-13 -27q-2 -3 -4 -13q-2 -13 7 -17q4 0 13 2.5t20.5 9t25.5 19t29 32.5v-1 q2 5 8 18.5t14 30t16 34t14.5 30.5t10 19.5t1.5 1.5q1 -2 2 -7.5t1 -12.5v-13t-1 -9q0 -1 -5.5 -12l-15.5 -31q-8 -14 -17 -33t-20 -41q0 -3 -1 -4q-2 -8 -5 -19.5t6 -13.5q3 0 8.5 1t14 7t20.5 19t29 37q4 4 7 4q2 -2 -2 -9q-6 -9 -11 -16t-12 -15q-11 -12 -24.5 -23 t-25.5 -11z" />
<glyph unicode="z" horiz-adv-x="146" d="M31 -90q11 20 20.5 40.5t19.5 41.5q8 18 17 36l19 38v2q-2 0 -4 -5t-5 -11l-3.5 -7t-3.5 -6q-2 -4 -3 -7q-2 -2 -7 -5t-10 5q-3 6 0 20q1 2 6 17q4 11 9.5 26t11 30.5t11 30t8.5 23.5q0 2 -0.5 7t-2.5 7q-4 3 -10.5 1t-14 -7t-14.5 -12.5t-12 -14.5v1l-15 -27 q-12 -20 -24.5 -42t-26.5 -42l-7 5q15 18 27 38.5t21 37.5q3 8 5 10q2 3 3.5 6.5t3.5 6.5q5 10 6 21t-4 19q0 3 1 10.5t2.5 14t3 11t3.5 2.5q0 -2 3 -5q0 -2 2 -6q5 -10 4.5 -19.5t-2.5 -18.5q8 9 17.5 16t24.5 8q11 0 14.5 -7.5t3.5 -25.5v-17q0 -2 -0.5 -3t-0.5 -3 q-14 -27 -25 -50q-9 -20 -16 -38t-5 -24q3 3 5 11q3 8 6.5 14.5t5.5 8.5v-1q5 8 10.5 11t10.5 -2h-1q7 -3 7 -15.5t-4 -20.5q-2 -2 -6 -10l-12 -24q-4 -7 -7.5 -14.5t-6.5 -12.5l-5 -10q-12 -26 -28 -53.5t-35 -51t-41 -40t-45 -20.5q-21 -3 -47 -0.5t-46 25.5q-1 1 -2 3 l-2 4q-3 3 -3 4t5 0.5t11 -2.5t12 -4.5t9 -4.5q8 -12 21 -16.5t29 -3.5q18 1 34 10t30 23t25 30.5t19 32.5z" />
<glyph unicode="&#xa1;" horiz-adv-x="84" d="M33 -172q-5 13 -7.5 36t-2.5 52q0 24 1.5 51t3.5 54t4 52t4 45q2 17 3 30.5t1 18.5h7v-6t-1 -8q-1 -5 -1 -9.5t-1 -11.5q-1 -17 -1.5 -37t-0.5 -37v-36t-2 -34q-2 -25 -3.5 -52.5t-1.5 -51.5q0 -19 1 -33t5 -21zM48 187q0 -3 -0.5 -1t-1 6.5t-1 10t-0.5 8.5q0 1 2 6.5 t4.5 11.5t6 11t6.5 5q3 -2 3 -12.5t-1 -18.5q-1 -4 -3.5 -7.5t-5.5 -7.5q-9 -11 -9 -12z" />
<glyph unicode="&#xa2;" horiz-adv-x="210" d="M70 81q0 -1 1 0h-1zM162 323q-4 -4 -6 -8q-1 -1 -0.5 0t-0.5 -1q28 0 28 -26q0 -8 -1.5 -14.5t-3.5 -11.5q-6 -8 -9 -11q-5 -4 -11 -7t-15 -3h-8q0 3 7.5 7t12.5 5q11 0 17 9.5t6 20.5q0 8 -4.5 15t-13.5 7q-5 0 -11 -2q-6 -12 -11 -28.5t-11 -33.5q-2 -7 -5 -15.5 t-5 -15.5q-4 -12 -8 -24.5t-9 -25.5q-9 -21 -17 -45h7q20 0 42.5 15.5t42.5 44.5q3 3 6 0q0 -5 -1 -6q-20 -29 -49 -46.5t-53 -19.5q-2 -3 -2 -5.5t-1 -4.5q-2 -3 -3.5 -7t-1.5 -5l-4 1q1 4 6 21q-44 5 -44 56q0 27 12 52.5t29.5 46.5t38 35.5t37.5 19.5q7 11 12 16zM51 159 q0 -34 24 -42q5 18 12.5 42t15.5 49t17 49t18 42q-15 -8 -30.5 -22.5t-28 -34t-20.5 -41t-8 -42.5z" />
<glyph unicode="&#xa8;" horiz-adv-x="89" d="M53 247q1 3 5.5 9t9 11.5t8.5 8.5t4 0q0 -2 -0.5 -3t-0.5 -3v-6q-2 -18 -11 -30.5t-18 -20.5q-8 -7 -7.5 -4.5t3.5 10.5q2 5 4.5 12.5t2.5 15.5zM23 247q1 3 5.5 9t9 11.5t8.5 8.5t4 0q0 -2 -0.5 -3t-0.5 -3v-6q-2 -18 -11 -30.5t-18 -20.5q-8 -7 -7.5 -4.5t3.5 10.5 q2 5 4.5 12.5t2.5 15.5z" />
<glyph unicode="&#xb4;" horiz-adv-x="118" d="M107 258q-14 -14 -28 -18.5t-29 -4.5q-27 0 -33 4.5t-6 5.5q0 4 3 4q7 0 10 -1q8 -2 12 -2q8 0 14.5 2t13.5 5q8 3 16.5 6t20.5 3q6 0 6 -2v-2z" />
<glyph unicode="&#xb8;" horiz-adv-x="87" d="M51 0q-1 -1 -2 -1t-2 -1q9 -5 14.5 -16t-4.5 -21q-8 -8 -20 -8q-8 0 -11.5 4t-3.5 10t3.5 12t9.5 11q2 2 5 2t1 -4t-5 -8q-7 -11 -7 -14q0 -6 8 -6t14 7q6 6 2.5 13t-11.5 12q-2 2 -2 5q0 4 4 8l5 5l7 -5z" />
<glyph unicode="&#xbf;" horiz-adv-x="246" d="M128 -112q-20 -2 -38.5 3.5t-33 17t-23.5 29.5t-10 42q0 25 7 45t18.5 35.5t26 29t29.5 25.5q28 22 51.5 47.5t29.5 67.5l4 -2q-2 -23 -9.5 -41.5t-19 -33.5t-25 -27.5t-27.5 -24.5t-27 -24.5t-23.5 -26.5t-16.5 -30.5t-6 -36.5q0 -18 8 -33.5t21 -27.5t29.5 -18.5 t34.5 -6.5q18 3 35 11.5t30.5 20.5t22 27t8.5 32q0 10 -3.5 22t-10.5 21.5t-18 16t-26 6.5q-3 1 -8.5 3.5t-11 6t-9.5 6t-4 3.5q0 2 6 2h8q16 -1 28 -6t20 -11q20 -15 28.5 -32.5t8.5 -35.5q0 -20 -9.5 -38t-24.5 -32t-33.5 -22.5t-36.5 -9.5zM186 246q0 3 -4 11 q-2 5 -4.5 11t-2.5 10q0 6 0.5 13.5t2.5 12.5q0 -7 6.5 -19.5t7.5 -12.5l1 1q0 -7 -1 -13t-3 -12z" />
<glyph unicode="&#xc0;" horiz-adv-x="586" d="M16 6q-7 16 -9 32.5t-2 31.5q0 35 10 61t26.5 43.5t39 26t46.5 8.5q20 0 44.5 -8.5t40.5 -27.5q2 -2 3.5 -6t1.5 -8q-11 0 -20 6t-17 12q-9 8 -18.5 15t-22.5 9q-24 0 -46.5 -6t-40.5 -21t-29 -39.5t-11 -61.5q0 -35 14 -63t36.5 -47.5t52 -30t60.5 -10.5t63.5 8.5 t65.5 22t66.5 30.5t66.5 35q20 11 39.5 20.5t39.5 19.5q0 14 1.5 32.5t4.5 32.5q-2 0 -4 0.5t-4 0.5q-3 0 -8.5 0.5l-11 1t-9 0.5t-2.5 0q-33 -33 -69.5 -64t-73.5 -55.5t-72.5 -40t-66.5 -16.5q-30 0 -52.5 15.5t-22.5 48.5q0 21 10.5 40.5t27.5 39.5q29 34 68 46t84 12 q32 0 63.5 -4t63.5 -9q10 -2 18.5 -2.5t18.5 -2.5q16 16 37.5 38t35.5 39v-1q15 35 36 69t41.5 60.5t37 43.5t22.5 18q5 0 5 -5q0 -6 -8 -20.5t-22.5 -35.5t-35 -47.5t-44.5 -55.5v1q-12 -26 -22 -53.5t-17 -54.5q20 1 41 5.5t36 14.5l5 -6q-17 -11 -40 -15.5t-44 -5.5 q-4 -14 -5 -27.5t-2 -27.5q35 14 67 24t61 10q28 0 51 -9t39.5 -23.5t25.5 -32.5t9 -37q0 -23 -10.5 -44t-28 -37.5t-39.5 -26t-44 -9.5q-36 0 -63.5 15.5t-46.5 39.5t-29.5 53.5t-11.5 58.5q-15 -8 -38.5 -20t-39.5 -20q-33 -18 -67.5 -36t-69.5 -32t-70 -23t-70 -9 q-49 0 -89 25t-57 71zM196 -42q30 0 64.5 14t70.5 37.5t72.5 54t70.5 64.5q-14 1 -30 5q-32 5 -65 8.5t-63 3.5q-42 0 -79.5 -12t-66.5 -45q-17 -19 -27 -38t-10 -36q0 -16 6 -27t15.5 -17.5t20.5 -9t21 -2.5zM665 95q-29 0 -61 -9.5t-67 -25.5q1 -24 8 -53t22.5 -54 t39.5 -42t59 -17q25 0 46 10t36.5 25t24.5 34t9 37q0 17 -8.5 34t-24 30.5t-37 22t-47.5 8.5zM488 134q-2 0 0 -1v1zM488 133h2l-1 -1zM543 186q-14 -14 -26.5 -27.5t-26.5 -25.5q5 -1 13 -1.5t13 -0.5q2 0 4 -0.5t4 -0.5q1 2 2 5.5t2 5.5q4 13 7 23.5t8 21.5zM644 476 q0 2 6 2q12 0 20.5 -3t16.5 -6q7 -3 13.5 -5t14.5 -2q4 0 12 2q3 1 10 1q3 0 3 -4q0 -1 -6 -5.5t-33 -4.5q-15 0 -29 4.5t-28 18.5v2z" />
<glyph unicode="&#xc1;" horiz-adv-x="586" d="M16 6q-7 16 -9 32.5t-2 31.5q0 35 10 61t26.5 43.5t39 26t46.5 8.5q20 0 44.5 -8.5t40.5 -27.5q2 -2 3.5 -6t1.5 -8q-11 0 -20 6t-17 12q-9 8 -18.5 15t-22.5 9q-24 0 -46.5 -6t-40.5 -21t-29 -39.5t-11 -61.5q0 -35 14 -63t36.5 -47.5t52 -30t60.5 -10.5t63.5 8.5 t65.5 22t66.5 30.5t66.5 35q20 11 39.5 20.5t39.5 19.5q0 14 1.5 32.5t4.5 32.5q-2 0 -4 0.5t-4 0.5q-3 0 -8.5 0.5l-11 1t-9 0.5t-2.5 0q-33 -33 -69.5 -64t-73.5 -55.5t-72.5 -40t-66.5 -16.5q-30 0 -52.5 15.5t-22.5 48.5q0 21 10.5 40.5t27.5 39.5q29 34 68 46t84 12 q32 0 63.5 -4t63.5 -9q10 -2 18.5 -2.5t18.5 -2.5q16 16 37.5 38t35.5 39v-1q15 35 36 69t41.5 60.5t37 43.5t22.5 18q5 0 5 -5q0 -6 -8 -20.5t-22.5 -35.5t-35 -47.5t-44.5 -55.5v1q-12 -26 -22 -53.5t-17 -54.5q20 1 41 5.5t36 14.5l5 -6q-17 -11 -40 -15.5t-44 -5.5 q-4 -14 -5 -27.5t-2 -27.5q35 14 67 24t61 10q28 0 51 -9t39.5 -23.5t25.5 -32.5t9 -37q0 -23 -10.5 -44t-28 -37.5t-39.5 -26t-44 -9.5q-36 0 -63.5 15.5t-46.5 39.5t-29.5 53.5t-11.5 58.5q-15 -8 -38.5 -20t-39.5 -20q-33 -18 -67.5 -36t-69.5 -32t-70 -23t-70 -9 q-49 0 -89 25t-57 71zM196 -42q30 0 64.5 14t70.5 37.5t72.5 54t70.5 64.5q-14 1 -30 5q-32 5 -65 8.5t-63 3.5q-42 0 -79.5 -12t-66.5 -45q-17 -19 -27 -38t-10 -36q0 -16 6 -27t15.5 -17.5t20.5 -9t21 -2.5zM665 95q-29 0 -61 -9.5t-67 -25.5q1 -24 8 -53t22.5 -54 t39.5 -42t59 -17q25 0 46 10t36.5 25t24.5 34t9 37q0 17 -8.5 34t-24 30.5t-37 22t-47.5 8.5zM488 134q-2 0 0 -1v1zM488 133h2l-1 -1zM543 186q-14 -14 -26.5 -27.5t-26.5 -25.5q5 -1 13 -1.5t13 -0.5q2 0 4 -0.5t4 -0.5q1 2 2 5.5t2 5.5q4 13 7 23.5t8 21.5zM740 476 q-14 -14 -28 -18.5t-29 -4.5q-27 0 -33 4.5t-6 5.5q0 4 3 4q7 0 10 -1q8 -2 12 -2q8 0 14.5 2t13.5 5q8 3 16.5 6t20.5 3q6 0 6 -2v-2z" />
<glyph unicode="&#xc2;" horiz-adv-x="586" d="M16 6q-7 16 -9 32.5t-2 31.5q0 35 10 61t26.5 43.5t39 26t46.5 8.5q20 0 44.5 -8.5t40.5 -27.5q2 -2 3.5 -6t1.5 -8q-11 0 -20 6t-17 12q-9 8 -18.5 15t-22.5 9q-24 0 -46.5 -6t-40.5 -21t-29 -39.5t-11 -61.5q0 -35 14 -63t36.5 -47.5t52 -30t60.5 -10.5t63.5 8.5 t65.5 22t66.5 30.5t66.5 35q20 11 39.5 20.5t39.5 19.5q0 14 1.5 32.5t4.5 32.5q-2 0 -4 0.5t-4 0.5q-3 0 -8.5 0.5l-11 1t-9 0.5t-2.5 0q-33 -33 -69.5 -64t-73.5 -55.5t-72.5 -40t-66.5 -16.5q-30 0 -52.5 15.5t-22.5 48.5q0 21 10.5 40.5t27.5 39.5q29 34 68 46t84 12 q32 0 63.5 -4t63.5 -9q10 -2 18.5 -2.5t18.5 -2.5q16 16 37.5 38t35.5 39v-1q15 35 36 69t41.5 60.5t37 43.5t22.5 18q5 0 5 -5q0 -6 -8 -20.5t-22.5 -35.5t-35 -47.5t-44.5 -55.5v1q-12 -26 -22 -53.5t-17 -54.5q20 1 41 5.5t36 14.5l5 -6q-17 -11 -40 -15.5t-44 -5.5 q-4 -14 -5 -27.5t-2 -27.5q35 14 67 24t61 10q28 0 51 -9t39.5 -23.5t25.5 -32.5t9 -37q0 -23 -10.5 -44t-28 -37.5t-39.5 -26t-44 -9.5q-36 0 -63.5 15.5t-46.5 39.5t-29.5 53.5t-11.5 58.5q-15 -8 -38.5 -20t-39.5 -20q-33 -18 -67.5 -36t-69.5 -32t-70 -23t-70 -9 q-49 0 -89 25t-57 71zM196 -42q30 0 64.5 14t70.5 37.5t72.5 54t70.5 64.5q-14 1 -30 5q-32 5 -65 8.5t-63 3.5q-42 0 -79.5 -12t-66.5 -45q-17 -19 -27 -38t-10 -36q0 -16 6 -27t15.5 -17.5t20.5 -9t21 -2.5zM665 95q-29 0 -61 -9.5t-67 -25.5q1 -24 8 -53t22.5 -54 t39.5 -42t59 -17q25 0 46 10t36.5 25t24.5 34t9 37q0 17 -8.5 34t-24 30.5t-37 22t-47.5 8.5zM488 134q-2 0 0 -1v1zM488 133h2l-1 -1zM543 186q-14 -14 -26.5 -27.5t-26.5 -25.5q5 -1 13 -1.5t13 -0.5q2 0 4 -0.5t4 -0.5q1 2 2 5.5t2 5.5q4 13 7 23.5t8 21.5zM723 438 q-3 0 -4 1q1 -1 4 -1zM719 439q-3 0 -4 1q1 -1 4 -1zM752 448q-2 0 -6 -0.5t-9 -0.5h10q3 0 5 1zM697 476q8 -3 11.5 -6.5l8.5 -8.5t9.5 -8.5t9.5 -5.5h1q-10 -2 -18.5 -3.5t-3.5 -3.5q-6 2 -11.5 6.5t-10.5 14.5q-11 -8 -21.5 -9t-18.5 1q-14 3 -20 11t-2 9q1 -1 4.5 -2.5 t5.5 -2.5l6 -3q6 -1 11.5 1t11.5 4l12 4t13 2h2z" />
<glyph unicode="&#xc3;" horiz-adv-x="586" d="M16 6q-7 16 -9 32.5t-2 31.5q0 35 10 61t26.5 43.5t39 26t46.5 8.5q20 0 44.5 -8.5t40.5 -27.5q2 -2 3.5 -6t1.5 -8q-11 0 -20 6t-17 12q-9 8 -18.5 15t-22.5 9q-24 0 -46.5 -6t-40.5 -21t-29 -39.5t-11 -61.5q0 -35 14 -63t36.5 -47.5t52 -30t60.5 -10.5t63.5 8.5 t65.5 22t66.5 30.5t66.5 35q20 11 39.5 20.5t39.5 19.5q0 14 1.5 32.5t4.5 32.5q-2 0 -4 0.5t-4 0.5q-3 0 -8.5 0.5l-11 1t-9 0.5t-2.5 0q-33 -33 -69.5 -64t-73.5 -55.5t-72.5 -40t-66.5 -16.5q-30 0 -52.5 15.5t-22.5 48.5q0 21 10.5 40.5t27.5 39.5q29 34 68 46t84 12 q32 0 63.5 -4t63.5 -9q10 -2 18.5 -2.5t18.5 -2.5q16 16 37.5 38t35.5 39v-1q15 35 36 69t41.5 60.5t37 43.5t22.5 18q5 0 5 -5q0 -6 -8 -20.5t-22.5 -35.5t-35 -47.5t-44.5 -55.5v1q-12 -26 -22 -53.5t-17 -54.5q20 1 41 5.5t36 14.5l5 -6q-17 -11 -40 -15.5t-44 -5.5 q-4 -14 -5 -27.5t-2 -27.5q35 14 67 24t61 10q28 0 51 -9t39.5 -23.5t25.5 -32.5t9 -37q0 -23 -10.5 -44t-28 -37.5t-39.5 -26t-44 -9.5q-36 0 -63.5 15.5t-46.5 39.5t-29.5 53.5t-11.5 58.5q-15 -8 -38.5 -20t-39.5 -20q-33 -18 -67.5 -36t-69.5 -32t-70 -23t-70 -9 q-49 0 -89 25t-57 71zM196 -42q30 0 64.5 14t70.5 37.5t72.5 54t70.5 64.5q-14 1 -30 5q-32 5 -65 8.5t-63 3.5q-42 0 -79.5 -12t-66.5 -45q-17 -19 -27 -38t-10 -36q0 -16 6 -27t15.5 -17.5t20.5 -9t21 -2.5zM665 95q-29 0 -61 -9.5t-67 -25.5q1 -24 8 -53t22.5 -54 t39.5 -42t59 -17q25 0 46 10t36.5 25t24.5 34t9 37q0 17 -8.5 34t-24 30.5t-37 22t-47.5 8.5zM488 134q-2 0 0 -1v1zM488 133h2l-1 -1zM543 186q-14 -14 -26.5 -27.5t-26.5 -25.5q5 -1 13 -1.5t13 -0.5q2 0 4 -0.5t4 -0.5q1 2 2 5.5t2 5.5q4 13 7 23.5t8 21.5zM749 466 q0 -8 -4 -12.5t-9.5 -7t-10.5 -3.5t-6 -1q-13 0 -18.5 5t-10.5 10q-4 5 -8.5 8.5t-12.5 3.5q-9 0 -17 -4h1q-6 -4 -9 0.5t2 7.5h-1q13 11 26 11q12 0 19.5 -5.5t13.5 -10.5q5 -5 9 -8t7 -3q5 0 10 2.5t14 10.5q5 5 5 -4z" />
<glyph unicode="&#xc4;" horiz-adv-x="586" d="M16 6q-7 16 -9 32.5t-2 31.5q0 35 10 61t26.5 43.5t39 26t46.5 8.5q20 0 44.5 -8.5t40.5 -27.5q2 -2 3.5 -6t1.5 -8q-11 0 -20 6t-17 12q-9 8 -18.5 15t-22.5 9q-24 0 -46.5 -6t-40.5 -21t-29 -39.5t-11 -61.5q0 -35 14 -63t36.5 -47.5t52 -30t60.5 -10.5t63.5 8.5 t65.5 22t66.5 30.5t66.5 35q20 11 39.5 20.5t39.5 19.5q0 14 1.5 32.5t4.5 32.5q-2 0 -4 0.5t-4 0.5q-3 0 -8.5 0.5l-11 1t-9 0.5t-2.5 0q-33 -33 -69.5 -64t-73.5 -55.5t-72.5 -40t-66.5 -16.5q-30 0 -52.5 15.5t-22.5 48.5q0 21 10.5 40.5t27.5 39.5q29 34 68 46t84 12 q32 0 63.5 -4t63.5 -9q10 -2 18.5 -2.5t18.5 -2.5q16 16 37.5 38t35.5 39v-1q15 35 36 69t41.5 60.5t37 43.5t22.5 18q5 0 5 -5q0 -6 -8 -20.5t-22.5 -35.5t-35 -47.5t-44.5 -55.5v1q-12 -26 -22 -53.5t-17 -54.5q20 1 41 5.5t36 14.5l5 -6q-17 -11 -40 -15.5t-44 -5.5 q-4 -14 -5 -27.5t-2 -27.5q35 14 67 24t61 10q28 0 51 -9t39.5 -23.5t25.5 -32.5t9 -37q0 -23 -10.5 -44t-28 -37.5t-39.5 -26t-44 -9.5q-36 0 -63.5 15.5t-46.5 39.5t-29.5 53.5t-11.5 58.5q-15 -8 -38.5 -20t-39.5 -20q-33 -18 -67.5 -36t-69.5 -32t-70 -23t-70 -9 q-49 0 -89 25t-57 71zM196 -42q30 0 64.5 14t70.5 37.5t72.5 54t70.5 64.5q-14 1 -30 5q-32 5 -65 8.5t-63 3.5q-42 0 -79.5 -12t-66.5 -45q-17 -19 -27 -38t-10 -36q0 -16 6 -27t15.5 -17.5t20.5 -9t21 -2.5zM665 95q-29 0 -61 -9.5t-67 -25.5q1 -24 8 -53t22.5 -54 t39.5 -42t59 -17q25 0 46 10t36.5 25t24.5 34t9 37q0 17 -8.5 34t-24 30.5t-37 22t-47.5 8.5zM488 134q-2 0 0 -1v1zM488 133h2l-1 -1zM543 186q-14 -14 -26.5 -27.5t-26.5 -25.5q5 -1 13 -1.5t13 -0.5q2 0 4 -0.5t4 -0.5q1 2 2 5.5t2 5.5q4 13 7 23.5t8 21.5zM722 465 q1 3 5.5 9t9 11.5t8.5 8.5t4 0q0 -2 -0.5 -3t-0.5 -3v-6q-2 -18 -11 -30.5t-18 -20.5q-8 -7 -7.5 -4.5t3.5 10.5q2 5 4.5 12.5t2.5 15.5zM692 465q1 3 5.5 9t9 11.5t8.5 8.5t4 0q0 -2 -0.5 -3t-0.5 -3v-6q-2 -18 -11 -30.5t-18 -20.5q-8 -7 -7.5 -4.5t3.5 10.5q2 5 4.5 12.5 t2.5 15.5z" />
<glyph unicode="&#xc5;" horiz-adv-x="586" d="M16 6q-7 16 -9 32.5t-2 31.5q0 35 10 61t26.5 43.5t39 26t46.5 8.5q20 0 44.5 -8.5t40.5 -27.5q2 -2 3.5 -6t1.5 -8q-11 0 -20 6t-17 12q-9 8 -18.5 15t-22.5 9q-24 0 -46.5 -6t-40.5 -21t-29 -39.5t-11 -61.5q0 -35 14 -63t36.5 -47.5t52 -30t60.5 -10.5t63.5 8.5 t65.5 22t66.5 30.5t66.5 35q20 11 39.5 20.5t39.5 19.5q0 14 1.5 32.5t4.5 32.5q-2 0 -4 0.5t-4 0.5q-3 0 -8.5 0.5l-11 1t-9 0.5t-2.5 0q-33 -33 -69.5 -64t-73.5 -55.5t-72.5 -40t-66.5 -16.5q-30 0 -52.5 15.5t-22.5 48.5q0 21 10.5 40.5t27.5 39.5q29 34 68 46t84 12 q32 0 63.5 -4t63.5 -9q10 -2 18.5 -2.5t18.5 -2.5q16 16 37.5 38t35.5 39v-1q15 35 36 69t41.5 60.5t37 43.5t22.5 18q5 0 5 -5q0 -6 -8 -20.5t-22.5 -35.5t-35 -47.5t-44.5 -55.5v1q-12 -26 -22 -53.5t-17 -54.5q20 1 41 5.5t36 14.5l5 -6q-17 -11 -40 -15.5t-44 -5.5 q-4 -14 -5 -27.5t-2 -27.5q35 14 67 24t61 10q28 0 51 -9t39.5 -23.5t25.5 -32.5t9 -37q0 -23 -10.5 -44t-28 -37.5t-39.5 -26t-44 -9.5q-36 0 -63.5 15.5t-46.5 39.5t-29.5 53.5t-11.5 58.5q-15 -8 -38.5 -20t-39.5 -20q-33 -18 -67.5 -36t-69.5 -32t-70 -23t-70 -9 q-49 0 -89 25t-57 71zM196 -42q30 0 64.5 14t70.5 37.5t72.5 54t70.5 64.5q-14 1 -30 5q-32 5 -65 8.5t-63 3.5q-42 0 -79.5 -12t-66.5 -45q-17 -19 -27 -38t-10 -36q0 -16 6 -27t15.5 -17.5t20.5 -9t21 -2.5zM665 95q-29 0 -61 -9.5t-67 -25.5q1 -24 8 -53t22.5 -54 t39.5 -42t59 -17q25 0 46 10t36.5 25t24.5 34t9 37q0 17 -8.5 34t-24 30.5t-37 22t-47.5 8.5zM488 134q-2 0 0 -1v1zM488 133h2l-1 -1zM543 186q-14 -14 -26.5 -27.5t-26.5 -25.5q5 -1 13 -1.5t13 -0.5q2 0 4 -0.5t4 -0.5q1 2 2 5.5t2 5.5q4 13 7 23.5t8 21.5zM714 456 q0 -3 -2 -7q6 8 7 12q0 1 0.5 1.5t0.5 2.5q-1 0 -3 -3.5t-3 -5.5zM708 465q1 3 5.5 9t9 11.5t8.5 8.5t4 0q0 -2 -0.5 -3t-0.5 -3v-6q0 -18 -10 -30.5t-19 -20.5q-8 -7 -7.5 -4.5t3.5 10.5q2 5 4.5 12.5t2.5 15.5z" />
<glyph unicode="&#xc6;" horiz-adv-x="905" d="M718 -189q-35 4 -57 33t-28 63q-25 8 -40 20h1q-6 1 -6 3q-2 2 -5 4.5t-5 4.5q-26 24 -40.5 60t-17.5 71q-15 -8 -38.5 -20t-39.5 -20q-33 -18 -67.5 -36t-69.5 -32t-70 -23t-70 -9q-48 0 -88 25.5t-58 70.5q-6 15 -8.5 32.5t-2.5 31.5q0 35 10 61t27 43.5t39 26t46 8.5 q20 0 44.5 -8.5t40.5 -28.5q2 -2 3.5 -6t1.5 -8q-11 0 -20 6t-17 13q-9 8 -18.5 15t-22.5 9q-24 0 -46.5 -6.5t-40.5 -21.5t-29 -39.5t-11 -60.5q0 -35 14 -63t36.5 -47.5t52 -30t60.5 -10.5t63.5 8.5t65.5 22t66.5 30.5t66.5 35q20 11 39.5 20.5t39.5 19.5q0 14 1.5 32.5 t4.5 32.5q-2 0 -4 0.5t-4 0.5q-3 0 -8.5 0.5l-11 1t-9 0.5t-2.5 0q-32 -33 -68.5 -64t-74 -55.5t-73 -40t-66.5 -16.5q-30 0 -52.5 15.5t-22.5 48.5q0 21 10.5 40.5t27.5 39.5q29 34 68 46t84 12q32 0 64 -4t63 -9q10 -2 18.5 -2.5t18.5 -2.5q16 16 37.5 38t35.5 39v-1 q8 19 17.5 38t19.5 35q-5 10 -8.5 23t-3.5 24q0 33 20.5 53.5t47.5 20.5q8 0 17 -2.5t18 -5.5q2 2 4.5 3t4.5 2q5 0 5 -5q0 -2 -1 -4.5t-2 -4.5q9 -8 17.5 -18.5t12.5 -24.5q2 -6 2 -10q0 -2 -4 0t-9.5 5.5t-10.5 8.5t-7 9q-2 5 -3.5 9t-3.5 9q-10 -19 -29.5 -46.5 t-45.5 -60.5q28 -26 69 -44.5t79 -18.5q18 0 36.5 2.5t36.5 7.5h-1q8 11 19 23.5t20 21.5q16 17 35 34t39 28h-1q11 6 20 9t14 4q4 1 8.5 0t3.5 -10q0 -5 -4 -11q-21 -35 -58 -61.5t-82 -40.5h1q-6 -8 -12.5 -17.5t-19.5 -26.5q1 -1 2 -1l4 -4t0 -6q-3 -4 -7 -3.5t-8 2.5h1 q-5 1 -7 6q-27 6 -58 6q-29 0 -58.5 -6t-56.5 -19h1q-4 -3 -12 -7l-21 -15q-11 -10 -19.5 -21t-13.5 -22q28 11 53.5 17.5t50.5 6.5q24 0 45 -7t38 -18q11 5 23 8t23 3q17 1 31.5 -6t25 -19t16.5 -28t6 -32q0 -20 -9 -39t-24 -34.5t-35 -28t-42 -18.5q-15 -5 -30 -7.5 t-32 -2.5q-33 0 -64 10q2 -13 8.5 -25t14.5 -23q8 -8 17 -14.5t19 -5.5q3 -1 9.5 -5t12.5 -8t9 -7.5t-1 -3.5h-11zM199 -22q30 0 64.5 14t70.5 37.5t72.5 54t70.5 64.5q-14 1 -30 5q-31 5 -64.5 8.5t-63.5 3.5q-42 0 -79.5 -12t-66.5 -45q-17 -19 -27 -38t-10 -36 q0 -16 6 -27t15.5 -17.5t20.5 -9t21 -2.5zM668 115q-25 0 -53 -7.5t-55 -18.5q-8 -26 -8 -49q0 -29 12.5 -57t41.5 -48h-1q2 -1 3.5 -2t3.5 -2q7 -6 18 -9q1 22 10 47.5t24 49t35 43t43 31.5q-31 22 -74 22zM785 20q0 17 -10.5 36t-27.5 33q-22 -11 -41.5 -31.5t-34.5 -44.5 t-23.5 -48.5t-8.5 -45.5q1 0 2 -1t2 -1q1 -1 3 -1q5 -1 11 -1.5t12 -0.5q25 0 46.5 10t37 25t24 34t8.5 37zM797 101q-20 0 -41 -8q17 -15 27 -34t10 -39q0 -19 -8.5 -37.5t-22.5 -34t-32 -27t-37 -15.5q6 -1 12 -1h12q34 0 64 11q36 16 62 45.5t26 61.5q0 15 -5.5 29 t-15 25t-22.5 17.5t-29 6.5zM555 150h11.5t10.5 2h-1l3 3q29 26 64 35.5t72 9.5q22 0 44.5 -2.5t43.5 -5.5q4 7 12 18q2 3 5.5 7.5t5.5 8.5q-34 -8 -64 -8q-45 0 -84.5 16t-68.5 48l-1 -2q-5 -5 -10 -11l-10 -12v1q-12 -26 -22 -54t-17 -54h6zM597 309q1 0 1 1q0 -2 1 -2z M588 350q0 -20 10 -40q19 29 41 56.5t36 42.5q-13 8 -26 8q-23 0 -42 -19t-19 -48zM982 338q1 2 1.5 5t-1.5 4q-31 -11 -63.5 -40.5t-61.5 -64.5q39 14 72 40t53 56zM608 293v1q1 -1 2 -1h-2zM608 294q29 35 48.5 63t28.5 43q-2 2 -3.5 3t-2.5 2q-9 -9 -18.5 -22.5 t-19 -28.5t-18 -30.5t-15.5 -28.5v-1zM491 154q-2 0 0 -1v1zM491 153h2l-1 -1zM546 206q-27 -29 -53 -53q5 -1 13 -1.5t13 -0.5q2 0 4 -0.5t4 -0.5q1 2 2 5.5t2 5.5q4 12 7 23t8 22zM548 144l-1 -1zM547 143q-4 -14 -5 -24.5t-2 -23.5q10 28 27 48h-20zM603 289l-2 -5l1 1 q1 1 1 1.5t1 1.5zM687 412l1 -1q0 -1 1 -1q0 1 1 3zM815 180q-2 2 -3 1l1 2q2 -2 4 -2l-1 -2z" />
<glyph unicode="&#xc7;" horiz-adv-x="406" d="M181 -49q9 -5 14.5 -16t-4.5 -21q-8 -8 -20 -8q-8 0 -11.5 4t-3.5 10t3.5 12t9.5 11q2 2 5 2t1 -4t-5 -8q-7 -11 -7 -14q0 -6 8 -6t14 7q6 6 2.5 13t-11.5 12q-2 2 -2 5q0 4 3 7l2 2q-14 6 -24.5 16.5t-17.5 22.5q-9 -2 -19 -4t-20 -2q-41 0 -67.5 26t-27.5 69 q-2 59 24.5 105t70.5 77.5t100 48t113 16.5q11 0 22 -0.5t22 -1.5q42 20 90 37.5t89 17.5q12 0 24.5 -1t22 -4t16 -9.5t6.5 -16.5q0 -15 -10.5 -24.5t-26.5 -14.5t-34 -6.5t-34 -1.5q-30 0 -49 2.5t-34 5.5q-17 3 -36 5q-37 -20 -77 -45.5t-73 -53.5q22 -20 22 -55 q0 -24 -7.5 -49.5t-21.5 -48.5t-33.5 -41.5t-43.5 -29.5q12 -23 39 -35t57 -12q45 0 87.5 23t72.5 66q5 6 6 11q1 1 1 2t1 2q1 2 4.5 -0.5t2.5 -4.5q-7 -14 -13 -21q-31 -39 -74 -62t-88 -23q-15 0 -29 2.5t-26 7.5q-1 0 -1.5 -1t-1.5 -1h1q-2 -2 -3 -2zM311 327 q-51 0 -104.5 -15t-97 -45t-71.5 -74t-28 -102q3 -48 30 -66.5t69 -18.5h11.5t11.5 2q-7 20 -7 44t7 49t19 48t26.5 43t29.5 36q-7 4 -13.5 5t-14.5 1q-15 0 -29 -6t-25.5 -15.5t-18 -22t-6.5 -25.5q0 -8 3 -15q0 -3 -1 -9.5t-3 -12.5t-4 -11t-3 -5q-2 0 -3.5 4.5t-2.5 10.5 t-1.5 11t-0.5 7q0 19 7.5 36.5t20.5 30.5t30 21t37 9q8 0 16.5 -2.5t16.5 -6.5q28 28 62.5 51.5t66.5 40.5q-8 1 -15 1.5t-15 0.5zM244 164q0 35 -20 53q-15 -13 -30.5 -32t-28.5 -41.5t-21.5 -47.5t-8.5 -51q0 -8 1 -16.5t4 -17.5q23 10 42.5 28t33 39t21 43.5t7.5 42.5z M596 355q0 14 -14.5 18.5t-31.5 4.5q-35 0 -75 -13t-85 -36q5 -1 12 -2t12 -3q15 -3 33.5 -5.5t50.5 -2.5q16 0 33.5 1.5t31.5 6t23.5 12t9.5 19.5z" />
<glyph unicode="&#xc8;" horiz-adv-x="381" d="M195 -189q-35 4 -57 33t-28 63q-48 15 -74 54.5t-26 85.5q0 29 11 57t35 51q29 26 64 35.5t72 9.5q22 0 45 -2.5t44 -5.5q4 7 12 18l5 7.5t5 8.5q-32 -8 -64 -8q-48 0 -89.5 17.5t-70.5 55.5q-21 28 -21 59q0 33 20.5 53.5t47.5 20.5q24 0 46 -17t30 -43q2 -6 2 -10 q0 -2 -4 0t-9.5 6t-10.5 9t-7 9q-2 16 -16 27.5t-31 11.5q-23 0 -42 -19t-19 -48q0 -26 20 -54q28 -37 68.5 -54t85.5 -17q40 0 73 10h-1q8 11 19 23.5t20 21.5q16 17 35 34t39 28h-1q11 6 20 9t14 4q4 1 8.5 0t3.5 -10q0 -5 -4 -11q-21 -35 -58 -61.5t-82 -40.5h1 q-6 -8 -12.5 -17.5t-18.5 -26.5q0 -1 1 -1l4 -4t0 -6q-3 -4 -6.5 -3.5t-7.5 2.5h1q-5 1 -7 6q-14 3 -29.5 4.5t-30.5 1.5q-38 0 -76 -10.5t-70 -36.5q-22 -18 -33.5 -45t-11.5 -56t12.5 -57t41.5 -48h-1q2 -1 3.5 -2t3.5 -2q7 -6 18 -9q1 28 15 61t37 60.5t53 46t63 18.5 q16 1 30.5 -6t25 -19t16.5 -28t6 -32q0 -20 -9 -39t-24 -34.5t-35 -28t-42 -18.5q-15 -5 -30 -7.5t-32 -2.5q-33 0 -64 10q2 -13 8.5 -25t14.5 -23q8 -8 17 -14.5t19 -5.5q3 -1 9.5 -5t12.5 -8t9 -7.5t-1 -3.5h-11zM275 101q-32 0 -60.5 -19t-50 -46.5t-35 -59.5t-13.5 -58 q37 -14 78 -14q16 0 33 3.5t32 8.5q35 16 61 45.5t26 61.5q0 15 -5.5 29t-15 25t-22.5 17.5t-28 6.5zM293 180q-2 2 -3 1l1 2q2 -2 4 -2l-1 -2zM459 338q1 2 1.5 5t-1.5 4q-31 -11 -63.5 -40.5t-61.5 -64.5q39 14 72 40t53 56zM419 414q0 2 6 2q12 0 20.5 -3t16.5 -6 q7 -3 13.5 -5t14.5 -2q4 0 12 2q3 1 10 1q3 0 3 -4q0 -1 -6 -5.5t-33 -4.5q-15 0 -29 4.5t-28 18.5v2z" />
<glyph unicode="&#xc9;" horiz-adv-x="381" d="M195 -189q-35 4 -57 33t-28 63q-48 15 -74 54.5t-26 85.5q0 29 11 57t35 51q29 26 64 35.5t72 9.5q22 0 45 -2.5t44 -5.5q4 7 12 18l5 7.5t5 8.5q-32 -8 -64 -8q-48 0 -89.5 17.5t-70.5 55.5q-21 28 -21 59q0 33 20.5 53.5t47.5 20.5q24 0 46 -17t30 -43q2 -6 2 -10 q0 -2 -4 0t-9.5 6t-10.5 9t-7 9q-2 16 -16 27.5t-31 11.5q-23 0 -42 -19t-19 -48q0 -26 20 -54q28 -37 68.5 -54t85.5 -17q40 0 73 10h-1q8 11 19 23.5t20 21.5q16 17 35 34t39 28h-1q11 6 20 9t14 4q4 1 8.5 0t3.5 -10q0 -5 -4 -11q-21 -35 -58 -61.5t-82 -40.5h1 q-6 -8 -12.5 -17.5t-18.5 -26.5q0 -1 1 -1l4 -4t0 -6q-3 -4 -6.5 -3.5t-7.5 2.5h1q-5 1 -7 6q-14 3 -29.5 4.5t-30.5 1.5q-38 0 -76 -10.5t-70 -36.5q-22 -18 -33.5 -45t-11.5 -56t12.5 -57t41.5 -48h-1q2 -1 3.5 -2t3.5 -2q7 -6 18 -9q1 28 15 61t37 60.5t53 46t63 18.5 q16 1 30.5 -6t25 -19t16.5 -28t6 -32q0 -20 -9 -39t-24 -34.5t-35 -28t-42 -18.5q-15 -5 -30 -7.5t-32 -2.5q-33 0 -64 10q2 -13 8.5 -25t14.5 -23q8 -8 17 -14.5t19 -5.5q3 -1 9.5 -5t12.5 -8t9 -7.5t-1 -3.5h-11zM275 101q-32 0 -60.5 -19t-50 -46.5t-35 -59.5t-13.5 -58 q37 -14 78 -14q16 0 33 3.5t32 8.5q35 16 61 45.5t26 61.5q0 15 -5.5 29t-15 25t-22.5 17.5t-28 6.5zM293 180q-2 2 -3 1l1 2q2 -2 4 -2l-1 -2zM459 338q1 2 1.5 5t-1.5 4q-31 -11 -63.5 -40.5t-61.5 -64.5q39 14 72 40t53 56zM518 406q-14 -14 -28 -18.5t-29 -4.5 q-27 0 -33 4.5t-6 5.5q0 4 3 4q7 0 10 -1q8 -2 12 -2q8 0 14.5 2t13.5 5q8 3 16.5 6t20.5 3q6 0 6 -2v-2z" />
<glyph unicode="&#xca;" horiz-adv-x="381" d="M195 -189q-35 4 -57 33t-28 63q-48 15 -74 54.5t-26 85.5q0 29 11 57t35 51q29 26 64 35.5t72 9.5q22 0 45 -2.5t44 -5.5q4 7 12 18l5 7.5t5 8.5q-32 -8 -64 -8q-48 0 -89.5 17.5t-70.5 55.5q-21 28 -21 59q0 33 20.5 53.5t47.5 20.5q24 0 46 -17t30 -43q2 -6 2 -10 q0 -2 -4 0t-9.5 6t-10.5 9t-7 9q-2 16 -16 27.5t-31 11.5q-23 0 -42 -19t-19 -48q0 -26 20 -54q28 -37 68.5 -54t85.5 -17q40 0 73 10h-1q8 11 19 23.5t20 21.5q16 17 35 34t39 28h-1q11 6 20 9t14 4q4 1 8.5 0t3.5 -10q0 -5 -4 -11q-21 -35 -58 -61.5t-82 -40.5h1 q-6 -8 -12.5 -17.5t-18.5 -26.5q0 -1 1 -1l4 -4t0 -6q-3 -4 -6.5 -3.5t-7.5 2.5h1q-5 1 -7 6q-14 3 -29.5 4.5t-30.5 1.5q-38 0 -76 -10.5t-70 -36.5q-22 -18 -33.5 -45t-11.5 -56t12.5 -57t41.5 -48h-1q2 -1 3.5 -2t3.5 -2q7 -6 18 -9q1 28 15 61t37 60.5t53 46t63 18.5 q16 1 30.5 -6t25 -19t16.5 -28t6 -32q0 -20 -9 -39t-24 -34.5t-35 -28t-42 -18.5q-15 -5 -30 -7.5t-32 -2.5q-33 0 -64 10q2 -13 8.5 -25t14.5 -23q8 -8 17 -14.5t19 -5.5q3 -1 9.5 -5t12.5 -8t9 -7.5t-1 -3.5h-11zM275 101q-32 0 -60.5 -19t-50 -46.5t-35 -59.5t-13.5 -58 q37 -14 78 -14q16 0 33 3.5t32 8.5q35 16 61 45.5t26 61.5q0 15 -5.5 29t-15 25t-22.5 17.5t-28 6.5zM293 180q-2 2 -3 1l1 2q2 -2 4 -2l-1 -2zM459 338q1 2 1.5 5t-1.5 4q-31 -11 -63.5 -40.5t-61.5 -64.5q39 14 72 40t53 56zM499 377q-3 0 -4 1q1 -1 4 -1zM495 378 q-3 0 -4 1q1 -1 4 -1zM528 387q-2 0 -6 -0.5t-9 -0.5h10q3 0 5 1zM473 415q8 -3 11.5 -6.5l8.5 -8.5t9.5 -8.5t9.5 -5.5h1q-10 -2 -18.5 -3.5t-3.5 -3.5q-6 2 -11.5 6.5t-10.5 14.5q-11 -8 -21.5 -9t-18.5 1q-14 3 -20 11t-2 9q1 -1 4.5 -2.5t5.5 -2.5l6 -3q6 -1 11.5 1 t11.5 4l12 4t13 2h2z" />
<glyph unicode="&#xcb;" horiz-adv-x="381" d="M195 -189q-35 4 -57 33t-28 63q-48 15 -74 54.5t-26 85.5q0 29 11 57t35 51q29 26 64 35.5t72 9.5q22 0 45 -2.5t44 -5.5q4 7 12 18l5 7.5t5 8.5q-32 -8 -64 -8q-48 0 -89.5 17.5t-70.5 55.5q-21 28 -21 59q0 33 20.5 53.5t47.5 20.5q24 0 46 -17t30 -43q2 -6 2 -10 q0 -2 -4 0t-9.5 6t-10.5 9t-7 9q-2 16 -16 27.5t-31 11.5q-23 0 -42 -19t-19 -48q0 -26 20 -54q28 -37 68.5 -54t85.5 -17q40 0 73 10h-1q8 11 19 23.5t20 21.5q16 17 35 34t39 28h-1q11 6 20 9t14 4q4 1 8.5 0t3.5 -10q0 -5 -4 -11q-21 -35 -58 -61.5t-82 -40.5h1 q-6 -8 -12.5 -17.5t-18.5 -26.5q0 -1 1 -1l4 -4t0 -6q-3 -4 -6.5 -3.5t-7.5 2.5h1q-5 1 -7 6q-14 3 -29.5 4.5t-30.5 1.5q-38 0 -76 -10.5t-70 -36.5q-22 -18 -33.5 -45t-11.5 -56t12.5 -57t41.5 -48h-1q2 -1 3.5 -2t3.5 -2q7 -6 18 -9q1 28 15 61t37 60.5t53 46t63 18.5 q16 1 30.5 -6t25 -19t16.5 -28t6 -32q0 -20 -9 -39t-24 -34.5t-35 -28t-42 -18.5q-15 -5 -30 -7.5t-32 -2.5q-33 0 -64 10q2 -13 8.5 -25t14.5 -23q8 -8 17 -14.5t19 -5.5q3 -1 9.5 -5t12.5 -8t9 -7.5t-1 -3.5h-11zM275 101q-32 0 -60.5 -19t-50 -46.5t-35 -59.5t-13.5 -58 q37 -14 78 -14q16 0 33 3.5t32 8.5q35 16 61 45.5t26 61.5q0 15 -5.5 29t-15 25t-22.5 17.5t-28 6.5zM293 180q-2 2 -3 1l1 2q2 -2 4 -2l-1 -2zM459 338q1 2 1.5 5t-1.5 4q-31 -11 -63.5 -40.5t-61.5 -64.5q39 14 72 40t53 56zM485 400q1 3 5.5 9t9 11.5t8.5 8.5t4 0 q0 -2 -0.5 -3t-0.5 -3v-6q-2 -18 -11 -30.5t-18 -20.5q-8 -7 -7.5 -4.5t3.5 10.5q2 5 4.5 12.5t2.5 15.5zM455 400q1 3 5.5 9t9 11.5t8.5 8.5t4 0q0 -2 -0.5 -3t-0.5 -3v-6q-2 -18 -11 -30.5t-18 -20.5q-8 -7 -7.5 -4.5t3.5 10.5q2 5 4.5 12.5t2.5 15.5z" />
<glyph unicode="&#xcc;" horiz-adv-x="83" d="M56 -57q20 0 33 6.5t20 11.5l1 1q1 0 1 0.5t1 0.5v1q-9 -6 -23.5 -10.5t-27.5 -4.5q-16 0 -27.5 7.5t-11.5 27.5q0 24 11.5 57.5t29 70.5t38 73.5t38.5 67.5q14 25 25 44t15 27q5 11 6.5 20.5t1.5 16.5q0 1 -0.5 7t-2 12.5t-3 12t-4.5 5.5q-2 0 -3.5 -12.5t-1.5 -21.5 q0 -4 2 -10q1 -2 2 -5t1 -6q0 -10 -4 -19q-14 -23 -26.5 -42.5t-26.5 -39.5q-20 -29 -38 -56.5t-33 -57t-25 -60.5t-14 -65q-1 -11 -0.5 -21.5t5.5 -19t14.5 -14t26.5 -5.5zM152 436q0 2 6 2q12 0 20.5 -3t16.5 -6q7 -3 13.5 -5t14.5 -2q4 0 12 2q3 1 9 1q3 0 3 -4 q0 -1 -6 -5.5t-32 -4.5q-15 0 -29 4.5t-28 18.5v2z" />
<glyph unicode="&#xcd;" horiz-adv-x="83" d="M56 -59q-18 0 -28 5.5t-15 14.5t-5.5 20t0.5 22q8 68 40 127t70 114q14 20 27 41t27 43v-1q3 7 3 16q0 3 -1 6t-2 5q-2 6 -2 10q0 9 2 22.5t5 13.5t5.5 -5.5t4 -12.5t2 -13.5t0.5 -7.5q0 -7 -1.5 -16.5t-6.5 -20.5q-7 -16 -17 -34t-23 -39q-18 -31 -38.5 -67.5t-38 -73.5 t-29 -70t-11.5 -56q0 -18 11.5 -25.5t25.5 -7.5t28 5t24 11l1 -6q-1 -1 -1.5 -1t-1.5 -1q-7 -5 -20.5 -11.5t-34.5 -6.5zM256 435q-14 -14 -27.5 -18.5t-28.5 -4.5q-27 0 -33 4.5t-6 5.5q0 4 3 4q7 0 10 -1q8 -2 12 -2q8 0 14.5 2t13.5 5q8 3 16.5 6t19.5 3q6 0 6 -2v-2z " />
<glyph unicode="&#xce;" horiz-adv-x="83" d="M56 -57q20 0 33 6.5t20 11.5l1 1q1 0 1 0.5t1 0.5v1q-9 -6 -23.5 -10.5t-27.5 -4.5q-16 0 -27.5 7.5t-11.5 27.5q0 24 11.5 57.5t29 70.5t38 73.5t38.5 67.5q14 25 25 44t15 27q5 11 6.5 20.5t1.5 16.5q0 1 -0.5 7t-2 12.5t-3 12t-4.5 5.5q-2 0 -3.5 -12.5t-1.5 -21.5 q0 -4 2 -10q1 -2 2 -5t1 -6q0 -10 -4 -19q-14 -23 -26.5 -42.5t-26.5 -39.5q-20 -29 -38 -56.5t-33 -57t-25 -60.5t-14 -65q-1 -11 -0.5 -21.5t5.5 -19t14.5 -14t26.5 -5.5zM238 406q-3 0 -4 1q1 -1 4 -1zM234 407q-3 0 -4 1q1 -1 4 -1zM266 416q-2 0 -6 -0.5t-9 -0.5h10 q3 0 5 1zM212 444q8 -3 11.5 -6.5l8.5 -8.5t9 -8.5t9 -5.5h1q-9 -2 -17.5 -3.5t-3.5 -3.5q-6 2 -11.5 6.5t-10.5 14.5q-11 -8 -21.5 -9t-18.5 1q-14 3 -20 11t-2 9q1 -1 4.5 -2.5t5.5 -2.5l6 -3q6 -1 11.5 1t11.5 4l12 4t13 2h2z" />
<glyph unicode="&#xcf;" horiz-adv-x="83" d="M56 -59q-18 0 -28 5.5t-15 14.5t-5.5 20t0.5 22q8 68 40 127t70 114q14 20 27 41t27 43v-1q3 7 3 16q0 3 -1 6t-2 5q-2 6 -2 10q0 9 2 22.5t5 13.5t5.5 -5.5t4 -12.5t2 -13.5t0.5 -7.5q0 -7 -1.5 -16.5t-6.5 -20.5q-7 -16 -17 -34t-23 -39q-18 -31 -38.5 -67.5t-38 -73.5 t-29 -70t-11.5 -56q0 -18 11.5 -25.5t25.5 -7.5t28 5t24 11l1 -6q-1 -1 -1.5 -1t-1.5 -1q-7 -5 -20.5 -11.5t-34.5 -6.5zM223 431q1 3 5.5 9t9 11.5t8 8.5t3.5 0q0 -2 -0.5 -3t-0.5 -3v-6q-2 -18 -10.5 -30.5t-17.5 -20.5q-8 -7 -7.5 -4.5t3.5 10.5q2 5 4.5 12.5t2.5 15.5z M193 431q1 3 5.5 9t9 11.5t8.5 8.5t4 0q0 -2 -0.5 -3t-0.5 -3v-6q-2 -18 -11 -30.5t-18 -20.5q-8 -7 -7.5 -4.5t3.5 10.5q2 5 4.5 12.5t2.5 15.5z" />
<glyph unicode="&#xd0;" horiz-adv-x="599" d="M119 33q-24 0 -45 5.5t-37.5 17.5t-26 31t-9.5 46q0 62 32 110.5t82 82t110 51t117 17.5q68 0 115.5 -19.5t77 -50.5t43 -68t13.5 -73q0 -33 -9 -66q-14 -53 -38 -89.5t-54 -59.5t-64 -33t-69 -10q-29 0 -52 3.5t-40 6.5q-22 5 -37 5l-4 -4q-5 -5 -11 -12t-13 -9 q-13 -1 -13 10q1 8 8.5 14t24.5 8q10 16 20.5 35t21.5 38q8 15 17.5 31t17.5 31q2 3 2.5 5.5t2.5 4.5q2 4 3 5t1 2h-11q-3 0 -6 0.5t-6 0.5h-12q-17 -22 -44 -37.5t-53 -22.5q3 -8 10.5 -14.5t16.5 -13.5q9 -8 16 -14.5t7 -17.5q-11 0 -20 5.5t-16 14t-12 17.5t-8 16 q-2 2 -2 5q-12 -2 -24 -3.5t-23 -1.5zM471 82q-6 3 -20.5 5.5t-34 5t-42.5 4t-46 2.5q-2 -2 -3.5 -5.5t-1.5 -5.5l-6 -12q-19 -35 -40.5 -68t-42.5 -60q11 0 27 -4q4 -1 14 -3q21 -5 36.5 -7t38.5 -2q48 0 89 20t71.5 54.5t48 82t17.5 101.5q0 38 -15.5 75.5t-48.5 68.5 q-28 26 -73 37t-89 11q-66 0 -117 -14t-89 -37t-64 -51t-42 -55.5t-23 -52t-7 -39.5q0 -48 33 -70.5t78 -22.5q20 0 45 5q-4 11 -4 24q0 18 6 38q-8 0 -14 0.5t-14 1.5t-15 1t-15 1q-12 1 -24 1h-17l-1 8q4 -1 14 -1h25h67q13 25 34 41t44 16q17 0 27.5 -8t10.5 -21 q0 -8 -2 -15t-6 -15q8 0 18.5 -0.5t17.5 -1.5q4 4 6 9t4 9q19 31 40 66t37 70q2 6 4.5 14.5t2.5 16.5q0 5 -1 9t-3 8q-3 7 -3 17q0 9 0.5 19t3.5 10q4 0 7 -7t5 -15.5t3 -15.5t1 -8q0 -13 -3 -24t-6 -17q-17 -42 -37 -84t-39 -78q46 -3 83 -8.5t57 -16.5zM281 147 q-2 7 -6.5 12.5t-14.5 7.5q-18 -1 -39 -13.5t-35 -34.5q20 0 39 -0.5t41 -1.5h7q4 8 6 15t2 15zM171 47h1v-1zM171 50q0 -2 1 -3q24 6 48.5 20t40.5 33q-40 2 -83 6q-8 -18 -8 -41q0 -10 1 -15zM195 -75q0 -3 4 -3q2 0 14 16q-11 -2 -14.5 -6.5t-3.5 -6.5z" />
<glyph unicode="&#xd1;" horiz-adv-x="524" d="M7 28q0 24 12.5 60.5t33.5 70t48.5 57.5t57.5 24q2 0 11 -0.5t9 -3.5q0 -2 -4.5 -4.5t-10.5 -5l-12 -5t-9 -3.5q-2 1 -9 1q-8 0 -17 -4.5t-15 -9.5q-22 -21 -38.5 -45t-27.5 -47.5t-16.5 -45.5t-5.5 -39q0 -29 13 -41t36 -12h7q2 0 3 0.5t3 0.5q-6 12 -6 25q0 35 10 66 t27 60q14 22 35 49.5t48 52t59 42.5t67 23q42 4 62.5 -15t20.5 -50q0 -26 -15 -53.5t-39.5 -54.5t-56.5 -51t-66 -44t-67.5 -34.5t-60.5 -20.5q13 -13 37 -13q29 0 63.5 16t72 41.5t76 59t74 69t66.5 69.5t54 62v-1q11 36 26 60.5t33 25.5q7 0 5 -5q-2 -9 -15.5 -29 t-36.5 -48q-9 -18 -18 -45.5t-15 -49.5l-5 -19q42 85 93 136.5t98 71.5q5 2 20.5 6.5t34.5 4.5q4 0 12 -1.5t15 -4t12.5 -5t5.5 -4.5q0 -3 -10 -3.5t-19 -0.5q-6 0 -10 1t-8 3q-8 3 -15 3q-35 0 -69.5 -27t-66.5 -69t-61 -92.5t-52 -97.5q-2 -6 -3.5 -14t-3.5 -13 q-8 -33 -14 -52.5t-12 -19.5q-4 0 -5.5 4.5t-1.5 7.5q0 22 5 37.5t11 29.5l9 21q11 25 19 52.5t16 53.5q5 17 9.5 31t9.5 31q-11 -13 -23.5 -27t-25.5 -28q-24 -27 -57 -62t-72 -69.5t-83 -65t-90 -48.5q-11 -4 -23 -6.5t-24 -2.5q-34 0 -52 24q-5 -1 -8.5 -1h-8.5 q-26 0 -41 13.5t-15 46.5zM468 24q4 10 8 27q-9 -22 -13.5 -34t-4.5 -17t1.5 -3t3 7t3 11t2.5 9zM556 303q-2 -3 -4 -9v-1q18 22 28.5 38.5t12.5 21.5q-19 -6 -37 -49v-1zM324 287q-43 -4 -85.5 -32.5t-77 -69t-56.5 -87t-23 -87.5q0 -17 8 -33q21 4 52 16.5t64.5 32 t66.5 43.5t59.5 51t43 54.5t16.5 53.5t-16.5 41.5t-51.5 16.5zM687 411q0 -8 -4 -12.5t-9.5 -7t-10.5 -3.5t-6 -1q-13 0 -18.5 5t-10.5 10q-4 5 -8.5 8.5t-12.5 3.5q-9 0 -17 -4h1q-6 -4 -9 0.5t2 7.5h-1q13 11 26 11q12 0 19.5 -5.5t13.5 -10.5q5 -5 9 -8t7 -3q5 0 10 2.5 t14 10.5q5 5 5 -4z" />
<glyph unicode="&#xd2;" d="M90 321q33 38 68.5 56.5t65.5 18.5q56 0 61 -57q11 -12 16.5 -32t5.5 -45q0 -57 -18.5 -113t-47.5 -104q-22 -33 -48.5 -59.5t-54.5 -39.5h1q4 -1 12 -1q20 0 40.5 9.5t37.5 24t29.5 31t16.5 30.5l7 -2q-5 -15 -17.5 -32.5t-30.5 -32.5t-39.5 -25t-43.5 -10q-16 0 -25 4 q-12 -3 -23 -3q-22 0 -41.5 13.5t-36.5 43.5q-7 14 -13 37t-6 55q0 26 5.5 58t19.5 68l1 2q-13 17 -20 40q-1 2 -1 5.5v6.5q0 26 21 39.5t52 13.5h6zM182 279l-1 -1q-1 0 -1 1h2zM231 221q-22 34 -50 57q-37 -41 -66 -91q21 -5 44 0t43 14q14 9 29 20zM93 189v1h1zM45 214 q10 -8 22.5 -14.5t25.5 -9.5q15 28 32.5 52.5t37.5 48.5q-14 8 -28.5 13.5t-28.5 7.5q-6 -7 -12.5 -15t-10.5 -15q-23 -30 -38 -68zM19 258q2 -9 6 -17.5t10 -15.5q11 27 23.5 49t23.5 40q-28 0 -46 -12.5t-18 -33.5q0 -8 1 -10zM103 -54q7 0 12 1q-31 18 -43 50t-12 67 q0 19 3 37q11 43 28 82q-14 3 -26.5 9t-22.5 14q-10 -19 -17 -46q-10 -36 -12 -77q1 -29 6.5 -50.5t12.5 -33.5q14 -29 32.5 -41t38.5 -12zM286 324q0 -29 -12 -56t-33 -48q9 -13 14.5 -28.5t5.5 -32.5q0 -8 -1 -15.5t-5 -15.5q-1 -1 -1 -2l-1 -2q0 -1 -2 -5q-2 -3 -3 1.5 t-2.5 11.5t-2 14.5t-0.5 11.5q6 9 5.5 19t-4.5 21q-2 5 -4 8t-5 9q-6 -5 -14.5 -10t-16.5 -10q-20 -11 -45.5 -14.5t-48.5 -0.5q-7 -14 -16 -36t-14 -38q-3 -13 -5 -27.5t-2 -27.5q0 -29 12.5 -57t41.5 -44q27 9 55.5 35.5t51.5 64.5q29 46 47.5 102t18.5 110 q0 15 -1.5 30.5t-9.5 29.5l-3 3v-1zM278 330q-12 3 -24 0t-24 -10.5t-23 -17t-20 -19.5q14 -11 26.5 -24.5t23.5 -31.5q18 20 30 46t11 51v6zM277 342q-1 1 -1 2q1 -1 3 -1zM169 297q8 10 20.5 21.5t27 19.5t30 11t29.5 -5q-4 22 -16.5 32t-29.5 10q-16 0 -37 -8 q-22 -8 -41.5 -23.5t-39.5 -35.5q14 -3 29 -9t28 -13zM218 437q0 2 6 2q12 0 20.5 -3t16.5 -6q7 -3 13.5 -5t14.5 -2q4 0 12 2q3 1 10 1q3 0 3 -4q0 -1 -6 -5.5t-33 -4.5q-15 0 -29 4.5t-28 18.5v2z" />
<glyph unicode="&#xd3;" d="M90 321q33 38 68.5 56.5t65.5 18.5q56 0 61 -57q11 -12 16.5 -32t5.5 -45q0 -57 -18.5 -113t-47.5 -104q-22 -33 -48.5 -59.5t-54.5 -39.5h1q4 -1 12 -1q20 0 40.5 9.5t37.5 24t29.5 31t16.5 30.5l7 -2q-5 -15 -17.5 -32.5t-30.5 -32.5t-39.5 -25t-43.5 -10q-16 0 -25 4 q-12 -3 -23 -3q-22 0 -41.5 13.5t-36.5 43.5q-7 14 -13 37t-6 55q0 26 5.5 58t19.5 68l1 2q-13 17 -20 40q-1 2 -1 5.5v6.5q0 26 21 39.5t52 13.5h6zM182 279l-1 -1q-1 0 -1 1h2zM231 221q-22 34 -50 57q-37 -41 -66 -91q21 -5 44 0t43 14q14 9 29 20zM93 189v1h1zM45 214 q10 -8 22.5 -14.5t25.5 -9.5q15 28 32.5 52.5t37.5 48.5q-14 8 -28.5 13.5t-28.5 7.5q-6 -7 -12.5 -15t-10.5 -15q-23 -30 -38 -68zM19 258q2 -9 6 -17.5t10 -15.5q11 27 23.5 49t23.5 40q-28 0 -46 -12.5t-18 -33.5q0 -8 1 -10zM103 -54q7 0 12 1q-31 18 -43 50t-12 67 q0 19 3 37q11 43 28 82q-14 3 -26.5 9t-22.5 14q-10 -19 -17 -46q-10 -36 -12 -77q1 -29 6.5 -50.5t12.5 -33.5q14 -29 32.5 -41t38.5 -12zM286 324q0 -29 -12 -56t-33 -48q9 -13 14.5 -28.5t5.5 -32.5q0 -8 -1 -15.5t-5 -15.5q-1 -1 -1 -2l-1 -2q0 -1 -2 -5q-2 -3 -3 1.5 t-2.5 11.5t-2 14.5t-0.5 11.5q6 9 5.5 19t-4.5 21q-2 5 -4 8t-5 9q-6 -5 -14.5 -10t-16.5 -10q-20 -11 -45.5 -14.5t-48.5 -0.5q-7 -14 -16 -36t-14 -38q-3 -13 -5 -27.5t-2 -27.5q0 -29 12.5 -57t41.5 -44q27 9 55.5 35.5t51.5 64.5q29 46 47.5 102t18.5 110 q0 15 -1.5 30.5t-9.5 29.5l-3 3v-1zM278 330q-12 3 -24 0t-24 -10.5t-23 -17t-20 -19.5q14 -11 26.5 -24.5t23.5 -31.5q18 20 30 46t11 51v6zM277 342q-1 1 -1 2q1 -1 3 -1zM169 297q8 10 20.5 21.5t27 19.5t30 11t29.5 -5q-4 22 -16.5 32t-29.5 10q-16 0 -37 -8 q-22 -8 -41.5 -23.5t-39.5 -35.5q14 -3 29 -9t28 -13zM312 438q-14 -14 -28 -18.5t-29 -4.5q-27 0 -33 4.5t-6 5.5q0 4 3 4q7 0 10 -1q8 -2 12 -2q8 0 14.5 2t13.5 5q8 3 16.5 6t20.5 3q6 0 6 -2v-2z" />
<glyph unicode="&#xd4;" d="M90 321q33 38 68.5 56.5t65.5 18.5q56 0 61 -57q11 -12 16.5 -32t5.5 -45q0 -57 -18.5 -113t-47.5 -104q-22 -33 -48.5 -59.5t-54.5 -39.5h1q4 -1 12 -1q20 0 40.5 9.5t37.5 24t29.5 31t16.5 30.5l7 -2q-5 -15 -17.5 -32.5t-30.5 -32.5t-39.5 -25t-43.5 -10q-16 0 -25 4 q-12 -3 -23 -3q-22 0 -41.5 13.5t-36.5 43.5q-7 14 -13 37t-6 55q0 26 5.5 58t19.5 68l1 2q-13 17 -20 40q-1 2 -1 5.5v6.5q0 26 21 39.5t52 13.5h6zM182 279l-1 -1q-1 0 -1 1h2zM231 221q-22 34 -50 57q-37 -41 -66 -91q21 -5 44 0t43 14q14 9 29 20zM93 189v1h1zM45 214 q10 -8 22.5 -14.5t25.5 -9.5q15 28 32.5 52.5t37.5 48.5q-14 8 -28.5 13.5t-28.5 7.5q-6 -7 -12.5 -15t-10.5 -15q-23 -30 -38 -68zM19 258q2 -9 6 -17.5t10 -15.5q11 27 23.5 49t23.5 40q-28 0 -46 -12.5t-18 -33.5q0 -8 1 -10zM103 -54q7 0 12 1q-31 18 -43 50t-12 67 q0 19 3 37q11 43 28 82q-14 3 -26.5 9t-22.5 14q-10 -19 -17 -46q-10 -36 -12 -77q1 -29 6.5 -50.5t12.5 -33.5q14 -29 32.5 -41t38.5 -12zM286 324q0 -29 -12 -56t-33 -48q9 -13 14.5 -28.5t5.5 -32.5q0 -8 -1 -15.5t-5 -15.5q-1 -1 -1 -2l-1 -2q0 -1 -2 -5q-2 -3 -3 1.5 t-2.5 11.5t-2 14.5t-0.5 11.5q6 9 5.5 19t-4.5 21q-2 5 -4 8t-5 9q-6 -5 -14.5 -10t-16.5 -10q-20 -11 -45.5 -14.5t-48.5 -0.5q-7 -14 -16 -36t-14 -38q-3 -13 -5 -27.5t-2 -27.5q0 -29 12.5 -57t41.5 -44q27 9 55.5 35.5t51.5 64.5q29 46 47.5 102t18.5 110 q0 15 -1.5 30.5t-9.5 29.5l-3 3v-1zM278 330q-12 3 -24 0t-24 -10.5t-23 -17t-20 -19.5q14 -11 26.5 -24.5t23.5 -31.5q18 20 30 46t11 51v6zM277 342q-1 1 -1 2q1 -1 3 -1zM169 297q8 10 20.5 21.5t27 19.5t30 11t29.5 -5q-4 22 -16.5 32t-29.5 10q-16 0 -37 -8 q-22 -8 -41.5 -23.5t-39.5 -35.5q14 -3 29 -9t28 -13zM303 409q-3 0 -4 1q1 -1 4 -1zM299 410q-3 0 -4 1q1 -1 4 -1zM332 419q-2 0 -6 -0.5t-9 -0.5h10q3 0 5 1zM277 447q8 -3 11.5 -6.5l8.5 -8.5t9.5 -8.5t9.5 -5.5h1q-10 -2 -18.5 -3.5t-3.5 -3.5q-6 2 -11.5 6.5 t-10.5 14.5q-11 -8 -21.5 -9t-18.5 1q-14 3 -20 11t-2 9q1 -1 4.5 -2.5t5.5 -2.5l6 -3q6 -1 11.5 1t11.5 4l12 4t13 2h2z" />
<glyph unicode="&#xd5;" d="M90 321q33 38 68.5 56.5t65.5 18.5q56 0 61 -57q11 -12 16.5 -32t5.5 -45q0 -57 -18.5 -113t-47.5 -104q-22 -33 -48.5 -59.5t-54.5 -39.5h1q4 -1 12 -1q20 0 40.5 9.5t37.5 24t29.5 31t16.5 30.5l7 -2q-5 -15 -17.5 -32.5t-30.5 -32.5t-39.5 -25t-43.5 -10q-16 0 -25 4 q-12 -3 -23 -3q-22 0 -41.5 13.5t-36.5 43.5q-7 14 -13 37t-6 55q0 26 5.5 58t19.5 68l1 2q-13 17 -20 40q-1 2 -1 5.5v6.5q0 26 21 39.5t52 13.5h6zM182 279l-1 -1q-1 0 -1 1h2zM231 221q-22 34 -50 57q-37 -41 -66 -91q21 -5 44 0t43 14q14 9 29 20zM93 189v1h1zM45 214 q10 -8 22.5 -14.5t25.5 -9.5q15 28 32.5 52.5t37.5 48.5q-14 8 -28.5 13.5t-28.5 7.5q-6 -7 -12.5 -15t-10.5 -15q-23 -30 -38 -68zM19 258q2 -9 6 -17.5t10 -15.5q11 27 23.5 49t23.5 40q-28 0 -46 -12.5t-18 -33.5q0 -8 1 -10zM103 -54q7 0 12 1q-31 18 -43 50t-12 67 q0 19 3 37q11 43 28 82q-14 3 -26.5 9t-22.5 14q-10 -19 -17 -46q-10 -36 -12 -77q1 -29 6.5 -50.5t12.5 -33.5q14 -29 32.5 -41t38.5 -12zM286 324q0 -29 -12 -56t-33 -48q9 -13 14.5 -28.5t5.5 -32.5q0 -8 -1 -15.5t-5 -15.5q-1 -1 -1 -2l-1 -2q0 -1 -2 -5q-2 -3 -3 1.5 t-2.5 11.5t-2 14.5t-0.5 11.5q6 9 5.5 19t-4.5 21q-2 5 -4 8t-5 9q-6 -5 -14.5 -10t-16.5 -10q-20 -11 -45.5 -14.5t-48.5 -0.5q-7 -14 -16 -36t-14 -38q-3 -13 -5 -27.5t-2 -27.5q0 -29 12.5 -57t41.5 -44q27 9 55.5 35.5t51.5 64.5q29 46 47.5 102t18.5 110 q0 15 -1.5 30.5t-9.5 29.5l-3 3v-1zM278 330q-12 3 -24 0t-24 -10.5t-23 -17t-20 -19.5q14 -11 26.5 -24.5t23.5 -31.5q18 20 30 46t11 51v6zM277 342q-1 1 -1 2q1 -1 3 -1zM169 297q8 10 20.5 21.5t27 19.5t30 11t29.5 -5q-4 22 -16.5 32t-29.5 10q-16 0 -37 -8 q-22 -8 -41.5 -23.5t-39.5 -35.5q14 -3 29 -9t28 -13zM322 425q0 -8 -4 -12.5t-9.5 -7t-10.5 -3.5t-6 -1q-13 0 -18.5 5t-10.5 10q-4 5 -8.5 8.5t-12.5 3.5q-9 0 -17 -4h1q-6 -4 -9 0.5t2 7.5h-1q13 11 26 11q12 0 19.5 -5.5t13.5 -10.5q5 -5 9 -8t7 -3q5 0 10 2.5t14 10.5 q5 5 5 -4z" />
<glyph unicode="&#xd6;" d="M90 321q33 38 68.5 56.5t65.5 18.5q56 0 61 -57q11 -12 16.5 -32t5.5 -45q0 -57 -18.5 -113t-47.5 -104q-22 -33 -48.5 -59.5t-54.5 -39.5h1q4 -1 12 -1q20 0 40.5 9.5t37.5 24t29.5 31t16.5 30.5l7 -2q-5 -15 -17.5 -32.5t-30.5 -32.5t-39.5 -25t-43.5 -10q-16 0 -25 4 q-12 -3 -23 -3q-22 0 -41.5 13.5t-36.5 43.5q-7 14 -13 37t-6 55q0 26 5.5 58t19.5 68l1 2q-13 17 -20 40q-1 2 -1 5.5v6.5q0 26 21 39.5t52 13.5h6zM182 279l-1 -1q-1 0 -1 1h2zM231 221q-22 34 -50 57q-37 -41 -66 -91q21 -5 44 0t43 14q14 9 29 20zM93 189v1h1zM45 214 q10 -8 22.5 -14.5t25.5 -9.5q15 28 32.5 52.5t37.5 48.5q-14 8 -28.5 13.5t-28.5 7.5q-6 -7 -12.5 -15t-10.5 -15q-23 -30 -38 -68zM19 258q2 -9 6 -17.5t10 -15.5q11 27 23.5 49t23.5 40q-28 0 -46 -12.5t-18 -33.5q0 -8 1 -10zM103 -54q7 0 12 1q-31 18 -43 50t-12 67 q0 19 3 37q11 43 28 82q-14 3 -26.5 9t-22.5 14q-10 -19 -17 -46q-10 -36 -12 -77q1 -29 6.5 -50.5t12.5 -33.5q14 -29 32.5 -41t38.5 -12zM286 324q0 -29 -12 -56t-33 -48q9 -13 14.5 -28.5t5.5 -32.5q0 -8 -1 -15.5t-5 -15.5q-1 -1 -1 -2l-1 -2q0 -1 -2 -5q-2 -3 -3 1.5 t-2.5 11.5t-2 14.5t-0.5 11.5q6 9 5.5 19t-4.5 21q-2 5 -4 8t-5 9q-6 -5 -14.5 -10t-16.5 -10q-20 -11 -45.5 -14.5t-48.5 -0.5q-7 -14 -16 -36t-14 -38q-3 -13 -5 -27.5t-2 -27.5q0 -29 12.5 -57t41.5 -44q27 9 55.5 35.5t51.5 64.5q29 46 47.5 102t18.5 110 q0 15 -1.5 30.5t-9.5 29.5l-3 3v-1zM278 330q-12 3 -24 0t-24 -10.5t-23 -17t-20 -19.5q14 -11 26.5 -24.5t23.5 -31.5q18 20 30 46t11 51v6zM277 342q-1 1 -1 2q1 -1 3 -1zM169 297q8 10 20.5 21.5t27 19.5t30 11t29.5 -5q-4 22 -16.5 32t-29.5 10q-16 0 -37 -8 q-22 -8 -41.5 -23.5t-39.5 -35.5q14 -3 29 -9t28 -13zM283 437q1 3 5.5 9t9 11.5t8.5 8.5t4 0q0 -2 -0.5 -3t-0.5 -3v-6q-2 -18 -11 -30.5t-18 -20.5q-8 -7 -7.5 -4.5t3.5 10.5q2 5 4.5 12.5t2.5 15.5zM253 437q1 3 5.5 9t9 11.5t8.5 8.5t4 0q0 -2 -0.5 -3t-0.5 -3v-6 q-2 -18 -11 -30.5t-18 -20.5q-8 -7 -7.5 -4.5t3.5 10.5q2 5 4.5 12.5t2.5 15.5z" />
<glyph unicode="&#xd7;" horiz-adv-x="833" />
<glyph unicode="&#xd8;" d="M90 321q33 38 68.5 56.5t65.5 18.5q11 0 22 -3q11 19 21 32t18 21l10 -9q-3 0 -5 -3q-13 -13 -31 -46q23 -15 26 -49q11 -12 16.5 -32t5.5 -45q0 -57 -18.5 -113t-47.5 -104q-22 -33 -48.5 -59.5t-54.5 -39.5h1q4 -1 12 -1q20 0 40.5 9.5t37.5 24t29.5 31t16.5 30.5l7 -2 q-5 -15 -17.5 -32.5t-30.5 -32.5t-39.5 -25t-43.5 -10q-16 0 -25 4q-12 -3 -23 -3q-24 0 -43 14q-2 -3 -2 -5.5t-1 -4.5q0 -1 -0.5 -2t-0.5 -2l-11 2l3 7.5t2 4.5q0 2 3 5q-13 12 -28 38q-7 14 -13 37t-6 55q0 26 5.5 58t19.5 68l1 2q-13 17 -20 40q-1 2 -1 5.5v6.5 q0 26 21 39.5t52 13.5h6zM286 324q0 -29 -12 -56t-33 -48q9 -13 14.5 -28.5t5.5 -32.5q0 -8 -1 -15.5t-5 -15.5q-1 -1 -1 -2l-1 -2q0 -1 -2 -5q-2 -3 -3 1.5t-2.5 11.5t-2 14.5t-0.5 11.5q6 9 5.5 19t-4.5 21q-2 5 -4 8t-5 9q-6 -5 -14.5 -10t-16.5 -10h1q-8 -5 -18 -8.5 t-20 -5.5q-11 -23 -22.5 -47.5t-24.5 -49.5q-9 -19 -19.5 -40.5t-19.5 -41.5q6 -14 17.5 -28.5t28.5 -23.5q27 9 55.5 35.5t51.5 64.5q29 46 47.5 102t18.5 110q0 15 -1.5 30.5t-9.5 29.5l-3 3v-1zM55 -36l1 2l1 -1zM32 -1q10 -21 24 -33q3 8 6 16.5t8 18.5q-10 29 -10 62 q0 20 3 38q11 43 28 82q-14 3 -26.5 9t-22.5 14q-10 -19 -17 -46q-10 -36 -12 -77q1 -29 6.5 -50.5t12.5 -33.5zM93 189v1h1zM45 214q10 -8 22.5 -14.5t25.5 -9.5q15 28 32.5 52.5t37.5 48.5q-14 8 -28.5 13.5t-28.5 7.5q-6 -7 -12.5 -15t-10.5 -15q-23 -30 -38 -68z M215 337q7 13 13 24t13 22q-11 2 -22.5 0.5t-25.5 -5.5q-20 -8 -41 -23.5t-40 -35.5q14 -3 29 -9t28 -13q8 10 20 21t26 20v-1zM278 330q-14 4 -26 0.5t-25 -11.5v1l-12 -26t-11 -25q8 -8 17 -19.5t16 -22.5q18 20 30 46t11 51v6zM75 15q0 1 1 2q0 -1 0.5 -1t0.5 -1h-2z M73 50q0 -8 0.5 -16.5t2.5 -16.5q5 14 11 28t12 30q10 25 20 50.5t22 52.5h-5h-13t-13 2q-7 -14 -16 -36t-14 -38q-3 -14 -5 -28.5t-2 -27.5zM19 258q2 -9 6 -17.5t10 -15.5q11 27 23.5 49t23.5 40q-28 0 -46 -12.5t-18 -33.5q0 -8 1 -10zM181 278q-37 -41 -66 -91 q6 -1 15.5 -1.5t14.5 -0.5q2 4 4 9t4 9q7 17 15.5 36t16.5 35zM177 204q-6 -9 -7 -15q8 2 16 5t16 7q14 9 29 20q-7 11 -15 21.5t-16 18.5q-2 -6 -4.5 -12t-4.5 -11q-4 -8 -7.5 -16.5t-6.5 -16.5v-1zM103 -54q3 0 5 -0.5t6 0.5q-14 8 -23 19t-16 23l-2 -4q-3 -7 -6.5 -12.5 t-3.5 -11.5q9 -6 19.5 -10t20.5 -4zM277 342v1h1zM241 348q17 5 36 -5q-4 26 -23 36q-1 -2 -1 -4t-1 -4q-2 -6 -4.5 -11.5t-6.5 -11.5zM188 282l2 4l-3 -3z" />
<glyph unicode="&#xd9;" horiz-adv-x="429" d="M319 32q-26 -29 -54 -39.5t-57 -10.5q-17 0 -35.5 5t-34 17.5t-25.5 34t-10 53.5q0 37 13.5 74t35.5 72t49.5 67t56.5 61q-46 -2 -89.5 -17.5t-78 -43.5t-55.5 -68t-21 -90q2 -11 8 -20.5t13 -17.5t12 -16.5t4 -20.5q-16 7 -25 19t-13.5 24t-5.5 22t-1 15 q0 60 24.5 101.5t63 67.5t84 38.5t87.5 14.5q20 21 28 28.5t17 7.5q13 0 13 -13q0 -11 -13 -20.5t-39 -10.5q-21 -26 -46.5 -60.5t-47.5 -72.5t-36.5 -78t-14.5 -77q0 -3 0.5 -6t0.5 -6v-7q1 -16 10.5 -28t22.5 -20.5t28.5 -12.5t28.5 -4q39 0 65.5 20t57.5 54v-1 q11 65 45.5 125t85.5 108q2 2 7.5 6.5t9.5 1.5h-1q4 -2 4 -9q0 -17 -10 -40t-25 -48t-32.5 -49t-31.5 -43q-7 -10 -12.5 -17.5t-9.5 -13.5v1q-8 -15 -13.5 -31.5t-5.5 -27.5q0 -38 28 -38q8 1 19 7t22 20l6 -5q-13 -16 -26.5 -23t-25.5 -7q-14 0 -21.5 6.5t-11 15t-4 15.5 t-0.5 8v7t1 7q0 2 0.5 4.5t0.5 6.5q-5 -5 -10 -11t-10 -11zM475 293q-8 -11 -20.5 -31t-27 -45.5t-29 -54t-25.5 -55.5q20 25 40 56t35.5 59t25.5 49.5t10 29.5q-2 -1 -7 -6zM310 403q-5 1 -10 -4l-9 -9q-4 -5 -6.5 -8t-6.5 -8q20 1 28.5 9t9.5 14q-2 4 -6 6zM366 408 q0 2 6 2q12 0 20.5 -3t16.5 -6q7 -3 13.5 -5t14.5 -2q4 0 12 2q3 1 10 1q3 0 3 -4q0 -1 -6 -5.5t-33 -4.5q-15 0 -29 4.5t-28 18.5v2z" />
<glyph unicode="&#xda;" horiz-adv-x="429" d="M319 32q-26 -29 -54 -39.5t-57 -10.5q-17 0 -35.5 5t-34 17.5t-25.5 34t-10 53.5q0 37 13.5 74t35.5 72t49.5 67t56.5 61q-46 -2 -89.5 -17.5t-78 -43.5t-55.5 -68t-21 -90q2 -11 8 -20.5t13 -17.5t12 -16.5t4 -20.5q-16 7 -25 19t-13.5 24t-5.5 22t-1 15 q0 60 24.5 101.5t63 67.5t84 38.5t87.5 14.5q20 21 28 28.5t17 7.5q13 0 13 -13q0 -11 -13 -20.5t-39 -10.5q-21 -26 -46.5 -60.5t-47.5 -72.5t-36.5 -78t-14.5 -77q0 -3 0.5 -6t0.5 -6v-7q1 -16 10.5 -28t22.5 -20.5t28.5 -12.5t28.5 -4q39 0 65.5 20t57.5 54v-1 q11 65 45.5 125t85.5 108q2 2 7.5 6.5t9.5 1.5h-1q4 -2 4 -9q0 -17 -10 -40t-25 -48t-32.5 -49t-31.5 -43q-7 -10 -12.5 -17.5t-9.5 -13.5v1q-8 -15 -13.5 -31.5t-5.5 -27.5q0 -38 28 -38q8 1 19 7t22 20l6 -5q-13 -16 -26.5 -23t-25.5 -7q-14 0 -21.5 6.5t-11 15t-4 15.5 t-0.5 8v7t1 7q0 2 0.5 4.5t0.5 6.5q-5 -5 -10 -11t-10 -11zM475 293q-8 -11 -20.5 -31t-27 -45.5t-29 -54t-25.5 -55.5q20 25 40 56t35.5 59t25.5 49.5t10 29.5q-2 -1 -7 -6zM310 403q-5 1 -10 -4l-9 -9q-4 -5 -6.5 -8t-6.5 -8q20 1 28.5 9t9.5 14q-2 4 -6 6zM462 404 q-14 -14 -28 -18.5t-29 -4.5q-27 0 -33 4.5t-6 5.5q0 4 3 4q7 0 10 -1q8 -2 12 -2q8 0 14.5 2t13.5 5q8 3 16.5 6t20.5 3q6 0 6 -2v-2z" />
<glyph unicode="&#xdb;" horiz-adv-x="429" d="M319 32q-26 -29 -54 -39.5t-57 -10.5q-17 0 -35.5 5t-34 17.5t-25.5 34t-10 53.5q0 37 13.5 74t35.5 72t49.5 67t56.5 61q-46 -2 -89.5 -17.5t-78 -43.5t-55.5 -68t-21 -90q2 -11 8 -20.5t13 -17.5t12 -16.5t4 -20.5q-16 7 -25 19t-13.5 24t-5.5 22t-1 15 q0 60 24.5 101.5t63 67.5t84 38.5t87.5 14.5q20 21 28 28.5t17 7.5q13 0 13 -13q0 -11 -13 -20.5t-39 -10.5q-21 -26 -46.5 -60.5t-47.5 -72.5t-36.5 -78t-14.5 -77q0 -3 0.5 -6t0.5 -6v-7q1 -16 10.5 -28t22.5 -20.5t28.5 -12.5t28.5 -4q39 0 65.5 20t57.5 54v-1 q11 65 45.5 125t85.5 108q2 2 7.5 6.5t9.5 1.5h-1q4 -2 4 -9q0 -17 -10 -40t-25 -48t-32.5 -49t-31.5 -43q-7 -10 -12.5 -17.5t-9.5 -13.5v1q-8 -15 -13.5 -31.5t-5.5 -27.5q0 -38 28 -38q8 1 19 7t22 20l6 -5q-13 -16 -26.5 -23t-25.5 -7q-14 0 -21.5 6.5t-11 15t-4 15.5 t-0.5 8v7t1 7q0 2 0.5 4.5t0.5 6.5q-5 -5 -10 -11t-10 -11zM475 293q-8 -11 -20.5 -31t-27 -45.5t-29 -54t-25.5 -55.5q20 25 40 56t35.5 59t25.5 49.5t10 29.5q-2 -1 -7 -6zM310 403q-5 1 -10 -4l-9 -9q-4 -5 -6.5 -8t-6.5 -8q20 1 28.5 9t9.5 14q-2 4 -6 6zM444 373 q-3 0 -4 1q1 -1 4 -1zM440 374q-3 0 -4 1q1 -1 4 -1zM473 383q-2 0 -6 -0.5t-9 -0.5h10q3 0 5 1zM418 411q8 -3 11.5 -6.5l8.5 -8.5t9.5 -8.5t9.5 -5.5h1q-10 -2 -18.5 -3.5t-3.5 -3.5q-6 2 -11.5 6.5t-10.5 14.5q-11 -8 -21.5 -9t-18.5 1q-14 3 -20 11t-2 9q1 -1 4.5 -2.5 t5.5 -2.5l6 -3q6 -1 11.5 1t11.5 4l12 4t13 2h2z" />
<glyph unicode="&#xdc;" horiz-adv-x="429" d="M319 32q-26 -29 -54 -39.5t-57 -10.5q-17 0 -35.5 5t-34 17.5t-25.5 34t-10 53.5q0 37 13.5 74t35.5 72t49.5 67t56.5 61q-46 -2 -89.5 -17.5t-78 -43.5t-55.5 -68t-21 -90q2 -11 8 -20.5t13 -17.5t12 -16.5t4 -20.5q-16 7 -25 19t-13.5 24t-5.5 22t-1 15 q0 60 24.5 101.5t63 67.5t84 38.5t87.5 14.5q20 21 28 28.5t17 7.5q13 0 13 -13q0 -11 -13 -20.5t-39 -10.5q-21 -26 -46.5 -60.5t-47.5 -72.5t-36.5 -78t-14.5 -77q0 -3 0.5 -6t0.5 -6v-7q1 -16 10.5 -28t22.5 -20.5t28.5 -12.5t28.5 -4q39 0 65.5 20t57.5 54v-1 q11 65 45.5 125t85.5 108q2 2 7.5 6.5t9.5 1.5h-1q4 -2 4 -9q0 -17 -10 -40t-25 -48t-32.5 -49t-31.5 -43q-7 -10 -12.5 -17.5t-9.5 -13.5v1q-8 -15 -13.5 -31.5t-5.5 -27.5q0 -38 28 -38q8 1 19 7t22 20l6 -5q-13 -16 -26.5 -23t-25.5 -7q-14 0 -21.5 6.5t-11 15t-4 15.5 t-0.5 8v7t1 7q0 2 0.5 4.5t0.5 6.5q-5 -5 -10 -11t-10 -11zM475 293q-8 -11 -20.5 -31t-27 -45.5t-29 -54t-25.5 -55.5q20 25 40 56t35.5 59t25.5 49.5t10 29.5q-2 -1 -7 -6zM310 403q-5 1 -10 -4l-9 -9q-4 -5 -6.5 -8t-6.5 -8q20 1 28.5 9t9.5 14q-2 4 -6 6zM425 404 q1 3 5.5 9t9 11.5t8.5 8.5t4 0q0 -2 -0.5 -3t-0.5 -3v-6q-2 -18 -11 -30.5t-18 -20.5q-8 -7 -7.5 -4.5t3.5 10.5q2 5 4.5 12.5t2.5 15.5zM395 404q1 3 5.5 9t9 11.5t8.5 8.5t4 0q0 -2 -0.5 -3t-0.5 -3v-6q-2 -18 -11 -30.5t-18 -20.5q-8 -7 -7.5 -4.5t3.5 10.5q2 5 4.5 12.5 t2.5 15.5z" />
<glyph unicode="&#xdd;" horiz-adv-x="401" d="M471 302q2 2 8 6t10 -3v1q1 -1 1 -7q0 -12 -12 -38.5t-35 -63.5v1q-15 -26 -34 -53t-40 -53q-5 -8 -8.5 -14t-7.5 -13t-7.5 -14.5t-7.5 -14.5q-45 -77 -98 -156q-14 -21 -28 -41.5t-28 -42.5v1q-1 -2 -2.5 -4.5t-2.5 -4.5q-8 -12 -22 -25.5t-40 -17.5q-2 -1 -5.5 -1h-6.5 t0 3.5t8 8t11 9t10 5.5q11 -1 21 6.5t17 16.5q32 55 64 111l64 112q-1 0 -1 -0.5t-1 -0.5h1q-1 -1 -4 -3h1q-21 -16 -42.5 -22.5t-42.5 -6.5q-39 0 -64 18h1q-12 6 -21.5 20t-11.5 24q-7 27 -7 56q0 22 4 38q17 66 55.5 122t86.5 105q-9 0 -12 -1q-29 -4 -64.5 -14.5 t-64.5 -30.5q-32 -19 -60.5 -52.5t-38.5 -80.5v-5q-1 -6 -1.5 -12.5t-0.5 -18.5q2 -11 6.5 -21.5t13.5 -15.5q2 -3 4.5 -9t4.5 -12.5t2.5 -11.5t-0.5 -5q-1 1 -5 3q-5 2 -6 5v-1q-16 13 -22 31.5t-6 40.5q0 28 8.5 56t21.5 50q27 44 70 70q21 14 45.5 22.5t49.5 12.5 q31 6 63 8l4.5 4.5t3.5 4.5q8 9 17.5 18t20.5 9q13 0 13 -13q0 -10 -11.5 -20.5t-36.5 -10.5h-6q-13 -15 -30 -37.5t-34 -49t-33.5 -56t-27.5 -57.5q-17 -45 -12 -101q2 -19 15 -37.5t33 -23.5q20 -7 42 -7q35 0 68 18h-1q7 5 12.5 10.5l12.5 12.5l4 5v-1q4 7 8 14.5t9 15.5 t8.5 14.5t8.5 14.5v-1q5 8 9.5 16.5t9.5 16.5q22 37 42 72.5t35 60.5q7 11 12 18.5t13 17.5zM308 403q-7 0 -13 -6t-12 -13q-2 -2 -4 -5.5t-4 -4.5q21 1 30 9t9 14t-6 6zM437 202q20 33 31.5 59.5t11.5 37.5q-1 -1 -2.5 -2t-2.5 -2q-3 -3 -4 -7q-6 -8 -10.5 -15t-8.5 -14 q-2 -2 -2.5 -4t-2.5 -4v1q-13 -27 -26 -55.5t-32 -66.5q14 20 25.5 37.5t22.5 34.5zM459 409q-14 -14 -28 -18.5t-29 -4.5q-27 0 -33 4.5t-6 5.5q0 4 3 4q7 0 10 -1q8 -2 12 -2q8 0 14.5 2t13.5 5q8 3 16.5 6t20.5 3q6 0 6 -2v-2z" />
<glyph unicode="&#xe0;" horiz-adv-x="185" d="M99 5q-5 5 -6.5 13t3.5 25q-22 -31 -45.5 -42.5t-43.5 0.5q-21 15 -21 50q0 19 7 41t21 42q13 19 28.5 33t32 22.5t32 10.5t27.5 -4q19 -12 14 -42q5 11 9 17.5t6 11.5q4 8 7 17q1 2 2 -3t1.5 -13t-0.5 -17t-4 -15q-6 -10 -14.5 -26.5t-17.5 -33.5t-17 -32.5t-11 -24.5 q-2 -4 -4 -12q-1 -5 0.5 -10t5.5 -7q4 0 10 2t14.5 8.5t20.5 19t27 33.5q3 3 6.5 2.5t1.5 -4.5q-6 -9 -12.5 -17.5t-11.5 -16.5q-11 -12 -25 -23t-28 -11q-11 1 -15 6zM25 11q18 -11 37.5 7.5t42.5 53.5q5 8 12.5 21.5t11.5 21.5q13 28 13 48q0 18 -12 25q-17 10 -44.5 -8.5 t-50.5 -52.5q-12 -19 -19 -40.5t-7 -37.5q0 -28 16 -38zM93 258q0 2 6 2q12 0 20.5 -3t16.5 -6q7 -3 13.5 -5t14.5 -2q4 0 12 2q3 1 10 1q3 0 3 -4q0 -1 -6 -5.5t-33 -4.5q-15 0 -29 4.5t-28 18.5v2z" />
<glyph unicode="&#xe1;" horiz-adv-x="185" d="M99 5q-5 5 -6.5 13t3.5 25q-22 -31 -45.5 -42.5t-43.5 0.5q-21 15 -21 50q0 19 7 41t21 42q13 19 28.5 33t32 22.5t32 10.5t27.5 -4q19 -12 14 -42q5 11 9 17.5t6 11.5q4 8 7 17q1 2 2 -3t1.5 -13t-0.5 -17t-4 -15q-6 -10 -14.5 -26.5t-17.5 -33.5t-17 -32.5t-11 -24.5 q-2 -4 -4 -12q-1 -5 0.5 -10t5.5 -7q4 0 10 2t14.5 8.5t20.5 19t27 33.5q3 3 6.5 2.5t1.5 -4.5q-6 -9 -12.5 -17.5t-11.5 -16.5q-11 -12 -25 -23t-28 -11q-11 1 -15 6zM25 11q18 -11 37.5 7.5t42.5 53.5q5 8 12.5 21.5t11.5 21.5q13 28 13 48q0 18 -12 25q-17 10 -44.5 -8.5 t-50.5 -52.5q-12 -19 -19 -40.5t-7 -37.5q0 -28 16 -38zM195 258q-14 -14 -28 -18.5t-29 -4.5q-27 0 -33 4.5t-6 5.5q0 4 3 4q7 0 10 -1q8 -2 12 -2q8 0 14.5 2t13.5 5q8 3 16.5 6t20.5 3q6 0 6 -2v-2z" />
<glyph unicode="&#xe2;" horiz-adv-x="185" d="M99 5q-5 5 -6.5 13t3.5 25q-22 -31 -45.5 -42.5t-43.5 0.5q-21 15 -21 50q0 19 7 41t21 42q13 19 28.5 33t32 22.5t32 10.5t27.5 -4q19 -12 14 -42q5 11 9 17.5t6 11.5q4 8 7 17q1 2 2 -3t1.5 -13t-0.5 -17t-4 -15q-6 -10 -14.5 -26.5t-17.5 -33.5t-17 -32.5t-11 -24.5 q-2 -4 -4 -12q-1 -5 0.5 -10t5.5 -7q4 0 10 2t14.5 8.5t20.5 19t27 33.5q3 3 6.5 2.5t1.5 -4.5q-6 -9 -12.5 -17.5t-11.5 -16.5q-11 -12 -25 -23t-28 -11q-11 1 -15 6zM25 11q18 -11 37.5 7.5t42.5 53.5q5 8 12.5 21.5t11.5 21.5q13 28 13 48q0 18 -12 25q-17 10 -44.5 -8.5 t-50.5 -52.5q-12 -19 -19 -40.5t-7 -37.5q0 -28 16 -38zM182 220q-3 0 -4 1q1 -1 4 -1zM178 221q-3 0 -4 1q1 -1 4 -1zM211 230q-2 0 -6 -0.5t-9 -0.5h10q3 0 5 1zM156 258q8 -3 11.5 -6.5l8.5 -8.5t9.5 -8.5t9.5 -5.5h1q-10 -2 -18.5 -3.5t-3.5 -3.5q-6 2 -11.5 6.5 t-10.5 14.5q-11 -8 -21.5 -9t-18.5 1q-14 3 -20 11t-2 9q1 -1 4.5 -2.5t5.5 -2.5l6 -3q6 -1 11.5 1t11.5 4l12 4t13 2h2z" />
<glyph unicode="&#xe3;" horiz-adv-x="185" d="M99 5q-5 5 -6.5 13t3.5 25q-22 -31 -45.5 -42.5t-43.5 0.5q-21 15 -21 50q0 19 7 41t21 42q13 19 28.5 33t32 22.5t32 10.5t27.5 -4q19 -12 14 -42q5 11 9 17.5t6 11.5q4 8 7 17q1 2 2 -3t1.5 -13t-0.5 -17t-4 -15q-6 -10 -14.5 -26.5t-17.5 -33.5t-17 -32.5t-11 -24.5 q-2 -4 -4 -12q-1 -5 0.5 -10t5.5 -7q4 0 10 2t14.5 8.5t20.5 19t27 33.5q3 3 6.5 2.5t1.5 -4.5q-6 -9 -12.5 -17.5t-11.5 -16.5q-11 -12 -25 -23t-28 -11q-11 1 -15 6zM25 11q18 -11 37.5 7.5t42.5 53.5q5 8 12.5 21.5t11.5 21.5q13 28 13 48q0 18 -12 25q-17 10 -44.5 -8.5 t-50.5 -52.5q-12 -19 -19 -40.5t-7 -37.5q0 -28 16 -38zM210 248q0 -8 -4 -12.5t-9.5 -7t-10.5 -3.5t-6 -1q-13 0 -18.5 5t-10.5 10q-4 5 -8.5 8.5t-12.5 3.5q-9 0 -17 -4h1q-6 -4 -9 0.5t2 7.5h-1q13 11 26 11q12 0 19.5 -5.5t13.5 -10.5q5 -5 9 -8t7 -3q5 0 10 2.5 t14 10.5q5 5 5 -4z" />
<glyph unicode="&#xe4;" horiz-adv-x="185" d="M99 5q-5 5 -6.5 13t3.5 25q-22 -31 -45.5 -42.5t-43.5 0.5q-21 15 -21 50q0 19 7 41t21 42q13 19 28.5 33t32 22.5t32 10.5t27.5 -4q19 -12 14 -42q5 11 9 17.5t6 11.5q4 8 7 17q1 2 2 -3t1.5 -13t-0.5 -17t-4 -15q-6 -10 -14.5 -26.5t-17.5 -33.5t-17 -32.5t-11 -24.5 q-2 -4 -4 -12q-1 -5 0.5 -10t5.5 -7q4 0 10 2t14.5 8.5t20.5 19t27 33.5q3 3 6.5 2.5t1.5 -4.5q-6 -9 -12.5 -17.5t-11.5 -16.5q-11 -12 -25 -23t-28 -11q-11 1 -15 6zM25 11q18 -11 37.5 7.5t42.5 53.5q5 8 12.5 21.5t11.5 21.5q13 28 13 48q0 18 -12 25q-17 10 -44.5 -8.5 t-50.5 -52.5q-12 -19 -19 -40.5t-7 -37.5q0 -28 16 -38zM173 247q1 3 5.5 9t9 11.5t8.5 8.5t4 0q0 -2 -0.5 -3t-0.5 -3v-6q-2 -18 -11 -30.5t-18 -20.5q-8 -7 -7.5 -4.5t3.5 10.5q2 5 4.5 12.5t2.5 15.5zM143 247q1 3 5.5 9t9 11.5t8.5 8.5t4 0q0 -2 -0.5 -3t-0.5 -3v-6 q-2 -18 -11 -30.5t-18 -20.5q-8 -7 -7.5 -4.5t3.5 10.5q2 5 4.5 12.5t2.5 15.5z" />
<glyph unicode="&#xe5;" horiz-adv-x="185" d="M99 5q-5 5 -6.5 13t3.5 25q-22 -31 -45.5 -42.5t-43.5 0.5q-21 15 -21 50q0 19 7 41t21 42q13 19 28.5 33t32 22.5t32 10.5t27.5 -4q19 -12 14 -42q5 11 9 17.5t6 11.5q4 8 7 17q1 2 2 -3t1.5 -13t-0.5 -17t-4 -15q-6 -10 -14.5 -26.5t-17.5 -33.5t-17 -32.5t-11 -24.5 q-2 -4 -4 -12q-1 -5 0.5 -10t5.5 -7q4 0 10 2t14.5 8.5t20.5 19t27 33.5q3 3 6.5 2.5t1.5 -4.5q-6 -9 -12.5 -17.5t-11.5 -16.5q-11 -12 -25 -23t-28 -11q-11 1 -15 6zM25 11q18 -11 37.5 7.5t42.5 53.5q5 8 12.5 21.5t11.5 21.5q13 28 13 48q0 18 -12 25q-17 10 -44.5 -8.5 t-50.5 -52.5q-12 -19 -19 -40.5t-7 -37.5q0 -28 16 -38zM159 238q0 -3 -2 -7q6 8 7 12q0 1 0.5 1.5t0.5 2.5q-1 0 -3 -3.5t-3 -5.5zM153 247q1 3 5.5 9t9 11.5t8.5 8.5t4 0q0 -2 -0.5 -3t-0.5 -3v-6q0 -18 -10 -30.5t-19 -20.5q-8 -7 -7.5 -4.5t3.5 10.5q2 5 4.5 12.5 t2.5 15.5z" />
<glyph unicode="&#xe6;" horiz-adv-x="267" d="M171 152q-14 -27 -33.5 -58.5t-41.5 -56.5t-44.5 -36.5t-43.5 0.5q-21 13 -21 50q0 19 7 41t21 42q13 19 28.5 33t32 22.5t32 10.5t27.5 -4q19 -12 14 -42q5 11 9 17.5t6 11.5t4 8.5t4 8.5q1 2 2 -3t1.5 -13t-0.5 -17t-4 -15zM26 11q18 -11 37.5 7.5t42.5 53.5 q5 8 12.5 21.5t11.5 21.5q13 28 13 48q0 18 -12 25q-17 10 -44.5 -8.5t-50.5 -52.5q-12 -19 -19 -40.5t-7 -37.5q0 -28 16 -38zM261 155q-17 -18 -51 -18q-7 0 -14 2t-12 8l-3 3q-1 3 7 2.5t11 -2.5q3 -5 11 -6.5t13 -1.5q8 2 17.5 5.5t15.5 11.5q4 5 6.5 11.5t1.5 12 t-5.5 9t-14.5 3.5q-17 -1 -40 -19.5t-42 -46.5q-12 -19 -18.5 -40.5t-6.5 -38.5q0 -29 16 -39q11 -7 25 -5.5t29 10t30 22.5t28 33q4 5 7 3.5t-2 -9.5q-14 -22 -32.5 -38t-37.5 -24t-36 -9t-29 7h1q-11 7 -16.5 19.5t-5.5 29.5q0 42 28 86q24 38 56 56.5t57 10.5q7 -2 11 -8 t4.5 -13.5t-1.5 -15t-8 -11.5z" />
<glyph unicode="&#xe7;" horiz-adv-x="137" d="M19 -9q9 -5 14.5 -16t-4.5 -21q-8 -8 -20 -8q-8 0 -11.5 4t-3.5 10t3.5 12t9.5 11q2 2 5 2t1 -4t-5 -8q-7 -11 -7 -14q0 -6 8 -6t14 7q6 6 2.5 13t-11.5 12q-2 2 -2 5q0 4 4 8q-28 12 -28 52q0 29 13 56.5t32 48.5t40.5 34.5t38.5 14.5q32 1 32 -26q0 -8 -2 -14.5 t-4 -11.5q-6 -8 -9 -11q-5 -4 -11 -7t-15 -3h-8q0 3 7.5 7t12.5 5q11 0 17 9.5t6 20.5q0 8 -4.5 15t-13.5 7q-17 0 -36 -13t-35 -34t-27 -47t-11 -51q0 -45 39 -45q20 0 42.5 16t42.5 45q3 3 7 0q0 -5 -1 -6q-21 -32 -49.5 -49.5t-52.5 -17.5h-4.5t-4.5 1q-1 0 -2.5 0.5 t-2.5 0.5q-2 0 -4 -2h1q-2 -2 -3 -2z" />
<glyph unicode="&#xe8;" horiz-adv-x="139" d="M134 155q-17 -18 -51 -18q-7 0 -14 2t-13 8l-3 3q-1 3 7.5 2.5t11.5 -2.5q3 -5 11 -6.5t13 -1.5q8 2 17.5 5.5t15.5 11.5q4 5 6.5 11.5t1.5 12t-5.5 9t-14.5 3.5q-17 -1 -40.5 -19.5t-42.5 -46.5q-12 -19 -18.5 -40.5t-6.5 -38.5q0 -29 16 -39q11 -7 25 -5.5t29 10 t30.5 22.5t28.5 33q4 5 7 3.5t-2 -9.5q-14 -22 -33 -38t-38 -24t-36 -9t-29 7h1q-11 7 -16.5 19.5t-5.5 29.5q0 42 28 86q24 38 56.5 56.5t57.5 10.5q7 -2 11 -8t4.5 -13.5t-1.5 -15t-8 -11.5zM92 258q0 2 6 2q12 0 20.5 -3t16.5 -6q7 -3 13.5 -5t14.5 -2q4 0 12 2q3 1 10 1 q3 0 3 -4q0 -1 -6 -5.5t-33 -4.5q-15 0 -29 4.5t-28 18.5v2z" />
<glyph unicode="&#xe9;" horiz-adv-x="139" d="M134 155q-17 -18 -51 -18q-7 0 -14 2t-13 8l-3 3q-1 3 7.5 2.5t11.5 -2.5q3 -5 11 -6.5t13 -1.5q8 2 17.5 5.5t15.5 11.5q4 5 6.5 11.5t1.5 12t-5.5 9t-14.5 3.5q-17 -1 -40.5 -19.5t-42.5 -46.5q-12 -19 -18.5 -40.5t-6.5 -38.5q0 -29 16 -39q11 -7 25 -5.5t29 10 t30.5 22.5t28.5 33q4 5 7 3.5t-2 -9.5q-14 -22 -33 -38t-38 -24t-36 -9t-29 7h1q-11 7 -16.5 19.5t-5.5 29.5q0 42 28 86q24 38 56.5 56.5t57.5 10.5q7 -2 11 -8t4.5 -13.5t-1.5 -15t-8 -11.5zM188 258q-14 -14 -28 -18.5t-29 -4.5q-27 0 -33 4.5t-6 5.5q0 4 3 4q7 0 10 -1 q8 -2 12 -2q8 0 14.5 2t13.5 5q8 3 16.5 6t20.5 3q6 0 6 -2v-2z" />
<glyph unicode="&#xea;" horiz-adv-x="139" d="M134 155q-17 -18 -51 -18q-7 0 -14 2t-13 8l-3 3q-1 3 7.5 2.5t11.5 -2.5q3 -5 11 -6.5t13 -1.5q8 2 17.5 5.5t15.5 11.5q4 5 6.5 11.5t1.5 12t-5.5 9t-14.5 3.5q-17 -1 -40.5 -19.5t-42.5 -46.5q-12 -19 -18.5 -40.5t-6.5 -38.5q0 -29 16 -39q11 -7 25 -5.5t29 10 t30.5 22.5t28.5 33q4 5 7 3.5t-2 -9.5q-14 -22 -33 -38t-38 -24t-36 -9t-29 7h1q-11 7 -16.5 19.5t-5.5 29.5q0 42 28 86q24 38 56.5 56.5t57.5 10.5q7 -2 11 -8t4.5 -13.5t-1.5 -15t-8 -11.5zM170 220q-3 0 -4 1q1 -1 4 -1zM166 221q-3 0 -4 1q1 -1 4 -1zM199 230 q-2 0 -6 -0.5t-9 -0.5h10q3 0 5 1zM144 258q8 -3 11.5 -6.5l8.5 -8.5t9.5 -8.5t9.5 -5.5h1q-10 -2 -18.5 -3.5t-3.5 -3.5q-6 2 -11.5 6.5t-10.5 14.5q-11 -8 -21.5 -9t-18.5 1q-14 3 -20 11t-2 9q1 -1 4.5 -2.5t5.5 -2.5l6 -3q6 -1 11.5 1t11.5 4l12 4t13 2h2z" />
<glyph unicode="&#xeb;" horiz-adv-x="139" d="M134 155q-17 -18 -51 -18q-7 0 -14 2t-13 8l-3 3q-1 3 7.5 2.5t11.5 -2.5q3 -5 11 -6.5t13 -1.5q8 2 17.5 5.5t15.5 11.5q4 5 6.5 11.5t1.5 12t-5.5 9t-14.5 3.5q-17 -1 -40.5 -19.5t-42.5 -46.5q-12 -19 -18.5 -40.5t-6.5 -38.5q0 -29 16 -39q11 -7 25 -5.5t29 10 t30.5 22.5t28.5 33q4 5 7 3.5t-2 -9.5q-14 -22 -33 -38t-38 -24t-36 -9t-29 7h1q-11 7 -16.5 19.5t-5.5 29.5q0 42 28 86q24 38 56.5 56.5t57.5 10.5q7 -2 11 -8t4.5 -13.5t-1.5 -15t-8 -11.5zM147 247q1 3 5.5 9t9 11.5t8.5 8.5t4 0q0 -2 -0.5 -3t-0.5 -3v-6 q-2 -18 -11 -30.5t-18 -20.5q-8 -7 -7.5 -4.5t3.5 10.5q2 5 4.5 12.5t2.5 15.5zM117 247q1 3 5.5 9t9 11.5t8.5 8.5t4 0q0 -2 -0.5 -3t-0.5 -3v-6q-2 -18 -11 -30.5t-18 -20.5q-8 -7 -7.5 -4.5t3.5 10.5q2 5 4.5 12.5t2.5 15.5z" />
<glyph unicode="&#xec;" horiz-adv-x="70" d="M74 71v1v-1zM49 36q13 14 25 34v1q1 0 -3 -4q-17 -23 -29.5 -35.5t-21.5 -18.5t-15 -7.5t-9 -1.5q-10 2 -8 13t4 18q1 2 1 4l14.5 29l15.5 31l15.5 31t15.5 30q1 2 1.5 10t0.5 16t-1 12.5t-3 0.5q-2 -2 -10.5 -22t-17.5 -41l-22 -47q-18 -35 -21.5 -51t1.5 -23 q6 -13 18 -13q11 0 24.5 10.5t24.5 23.5zM22 258q0 2 6 2q12 0 20.5 -3t16.5 -6q7 -3 13.5 -5t14.5 -2q4 0 12 2q3 1 10 1q3 0 3 -4q0 -1 -6 -5.5t-33 -4.5q-15 0 -29 4.5t-28 18.5v2z" />
<glyph unicode="&#xed;" horiz-adv-x="70" d="M76 74q2 -2 -2 -9q-6 -9 -11 -16t-12 -15q-11 -12 -25 -23t-26 -11q-14 0 -18 10v-1q-6 9 -2.5 27t20.5 53q1 2 7.5 16t14.5 31q4 9 9.5 20.5t10 21t7.5 16.5t3 9q1 0 2.5 -6t2 -13.5t0.5 -14.5t-1 -9q-8 -15 -15.5 -30l-15.5 -31l-15.5 -31l-14.5 -29q0 -3 -1 -4 q-2 -6 -3 -16t5 -13q3 0 9 2t15 9t21 19.5t28 33.5q4 4 6 4h1zM118 258q-14 -14 -28 -18.5t-29 -4.5q-27 0 -33 4.5t-6 5.5q0 4 3 4q7 0 10 -1q8 -2 12 -2q8 0 14.5 2t13.5 5q8 3 16.5 6t20.5 3q6 0 6 -2v-2z" />
<glyph unicode="&#xee;" horiz-adv-x="70" d="M74 71v1v-1zM49 36q13 14 25 34v1q1 0 -3 -4q-17 -23 -29.5 -35.5t-21.5 -18.5t-15 -7.5t-9 -1.5q-10 2 -8 13t4 18q1 2 1 4l14.5 29l15.5 31l15.5 31t15.5 30q1 2 1.5 10t0.5 16t-1 12.5t-3 0.5q-2 -2 -10.5 -22t-17.5 -41l-22 -47q-18 -35 -21.5 -51t1.5 -23 q6 -13 18 -13q11 0 24.5 10.5t24.5 23.5zM101 220q-3 0 -4 1q1 -1 4 -1zM97 221q-3 0 -4 1q1 -1 4 -1zM130 230q-2 0 -6 -0.5t-9 -0.5h10q3 0 5 1zM75 258q8 -3 11.5 -6.5l8.5 -8.5t9.5 -8.5t9.5 -5.5h1q-10 -2 -18.5 -3.5t-3.5 -3.5q-6 2 -11.5 6.5t-10.5 14.5 q-11 -8 -21.5 -9t-18.5 1q-14 3 -20 11t-2 9q1 -1 4.5 -2.5t5.5 -2.5l6 -3q6 -1 11.5 1t11.5 4l12 4t13 2h2z" />
<glyph unicode="&#xef;" horiz-adv-x="70" d="M76 74q2 -2 -2 -9q-6 -9 -11 -16t-12 -15q-11 -12 -25 -23t-26 -11q-14 0 -18 10v-1q-6 9 -2.5 27t20.5 53q1 2 7.5 16t14.5 31q4 9 9.5 20.5t10 21t7.5 16.5t3 9q1 0 2.5 -6t2 -13.5t0.5 -14.5t-1 -9q-8 -15 -15.5 -30l-15.5 -31l-15.5 -31l-14.5 -29q0 -3 -1 -4 q-2 -6 -3 -16t5 -13q3 0 9 2t15 9t21 19.5t28 33.5q4 4 6 4h1zM82 247q1 3 5.5 9t9 11.5t8.5 8.5t4 0q0 -2 -0.5 -3t-0.5 -3v-6q-2 -18 -11 -30.5t-18 -20.5q-8 -7 -7.5 -4.5t3.5 10.5q2 5 4.5 12.5t2.5 15.5zM52 247q1 3 5.5 9t9 11.5t8.5 8.5t4 0q0 -2 -0.5 -3t-0.5 -3v-6 q-2 -18 -11 -30.5t-18 -20.5q-8 -7 -7.5 -4.5t3.5 10.5q2 5 4.5 12.5t2.5 15.5z" />
<glyph unicode="&#xf1;" horiz-adv-x="169" d="M146 182q0 1 1 2q-1 -1 -1 -2zM52 152l-2 -3q10 12 21.5 23.5t25.5 20.5q11 7 24.5 12t28.5 -4q10 -11 9 -26t-6 -27q0 -2 -2.5 -6t-5.5 -9q-10 -16 -26 -44t-26 -54q-2 -4 -4 -12q-1 -5 0.5 -10t5.5 -7q4 0 10 2t15 9t21 19.5t28 34.5q3 3 4 3q3 -3 2 -6q-3 -5 -3 -6 q-5 -7 -11 -14.5t-11 -13.5q-11 -12 -25 -23t-26 -11q-14 0 -18 10v-1q-5 8 -2.5 26t21.5 54q4 7 7 13.5t6 12.5l21 41q2 4 5 9.5t5.5 10.5t3.5 7.5t-1 0.5q2 7 -5 13h1q-10 5 -21 1t-21 -10q-26 -17 -43 -38t-31 -45q-2 -2 -3.5 -6.5t-2.5 -6.5q-10 -20 -19.5 -39.5 t-17.5 -40.5l-4 -8q-6 -6 -13 -4q-1 0 -1 6q1 4 8.5 22.5t18.5 43t22.5 50t19.5 43.5q5 10 8 17.5t3 6.5l3 6q0 1 0.5 2t0.5 2t1 2q2 4 3.5 -1t2.5 -13t0.5 -16.5t-1.5 -10.5zM204 248q0 -8 -4 -12.5t-9.5 -7t-10.5 -3.5t-6 -1q-13 0 -18.5 5t-10.5 10q-4 5 -8.5 8.5 t-12.5 3.5q-9 0 -17 -4h1q-6 -4 -9 0.5t2 7.5h-1q13 11 26 11q12 0 19.5 -5.5t13.5 -10.5q5 -5 9 -8t7 -3q5 0 10 2.5t14 10.5q5 5 5 -4z" />
<glyph unicode="&#xf2;" horiz-adv-x="153" d="M148 145q-7 -44 -35 -84q12 -3 22.5 1t18.5 12l8 -2q-27 -22 -52 -16q-26 -35 -54 -49.5t-48 -0.5q-21 13 -21 49q0 20 7 43.5t21 43.5q12 19 27.5 33t31 22.5t29 11t22.5 -1.5q18 -7 16 -28q5 0 6.5 -11t0.5 -19v-4zM95 137q-4 1 3 6t12 7q5 6 10.5 12t14.5 14v-1 q2 11 -4 18.5t-12 7.5h-4q-18 -2 -40 -20t-40 -47q-13 -20 -19.5 -41t-6.5 -38q0 -13 4 -23.5t13 -15.5q17 -11 36.5 3t38.5 40q-13 10 -13 30q0 13 4 26t10 22h-7zM111 138q-5 -8 -10.5 -21.5t-5.5 -27.5q0 -19 10 -25q12 20 22 40t14 44q1 5 1 14.5t-2 8.5q-2 -14 -11 -22 t-19 -11h1zM135 168v-1v1h1l-1 -1l-2 -2q1 2 1 4zM104 258q0 2 6 2q12 0 20.5 -3t16.5 -6q7 -3 13.5 -5t14.5 -2q4 0 12 2q3 1 10 1q3 0 3 -4q0 -1 -6 -5.5t-33 -4.5q-15 0 -29 4.5t-28 18.5v2z" />
<glyph unicode="&#xf3;" horiz-adv-x="153" d="M148 145q-7 -44 -35 -84q12 -3 22.5 1t18.5 12l8 -2q-27 -22 -52 -16q-26 -35 -54 -49.5t-48 -0.5q-21 13 -21 49q0 20 7 43.5t21 43.5q12 19 27.5 33t31 22.5t29 11t22.5 -1.5q18 -7 16 -28q5 0 6.5 -11t0.5 -19v-4zM95 137q-4 1 3 6t12 7q5 6 10.5 12t14.5 14v-1 q2 11 -4 18.5t-12 7.5h-4q-18 -2 -40 -20t-40 -47q-13 -20 -19.5 -41t-6.5 -38q0 -13 4 -23.5t13 -15.5q17 -11 36.5 3t38.5 40q-13 10 -13 30q0 13 4 26t10 22h-7zM111 138q-5 -8 -10.5 -21.5t-5.5 -27.5q0 -19 10 -25q12 20 22 40t14 44q1 5 1 14.5t-2 8.5q-2 -14 -11 -22 t-19 -11h1zM135 168v-1v1h1l-1 -1l-2 -2q1 2 1 4zM199 258q-14 -14 -28 -18.5t-29 -4.5q-27 0 -33 4.5t-6 5.5q0 4 3 4q7 0 10 -1q8 -2 12 -2q8 0 14.5 2t13.5 5q8 3 16.5 6t20.5 3q6 0 6 -2v-2z" />
<glyph unicode="&#xf4;" horiz-adv-x="153" d="M148 145q-7 -44 -35 -84q12 -3 22.5 1t18.5 12l8 -2q-27 -22 -52 -16q-26 -35 -54 -49.5t-48 -0.5q-21 13 -21 49q0 20 7 43.5t21 43.5q12 19 27.5 33t31 22.5t29 11t22.5 -1.5q18 -7 16 -28q5 0 6.5 -11t0.5 -19v-4zM95 137q-4 1 3 6t12 7q5 6 10.5 12t14.5 14v-1 q2 11 -4 18.5t-12 7.5h-4q-18 -2 -40 -20t-40 -47q-13 -20 -19.5 -41t-6.5 -38q0 -13 4 -23.5t13 -15.5q17 -11 36.5 3t38.5 40q-13 10 -13 30q0 13 4 26t10 22h-7zM111 138q-5 -8 -10.5 -21.5t-5.5 -27.5q0 -19 10 -25q12 20 22 40t14 44q1 5 1 14.5t-2 8.5q-2 -14 -11 -22 t-19 -11h1zM135 168v-1v1h1l-1 -1l-2 -2q1 2 1 4zM179 220q-3 0 -4 1q1 -1 4 -1zM175 221q-3 0 -4 1q1 -1 4 -1zM208 230q-2 0 -6 -0.5t-9 -0.5h10q3 0 5 1zM153 258q8 -3 11.5 -6.5l8.5 -8.5t9.5 -8.5t9.5 -5.5h1q-10 -2 -18.5 -3.5t-3.5 -3.5q-6 2 -11.5 6.5t-10.5 14.5 q-11 -8 -21.5 -9t-18.5 1q-14 3 -20 11t-2 9q1 -1 4.5 -2.5t5.5 -2.5l6 -3q6 -1 11.5 1t11.5 4l12 4t13 2h2z" />
<glyph unicode="&#xf5;" horiz-adv-x="153" d="M148 145q-7 -44 -35 -84q12 -3 22.5 1t18.5 12l8 -2q-27 -22 -52 -16q-26 -35 -54 -49.5t-48 -0.5q-21 13 -21 49q0 20 7 43.5t21 43.5q12 19 27.5 33t31 22.5t29 11t22.5 -1.5q18 -7 16 -28q5 0 6.5 -11t0.5 -19v-4zM95 137q-4 1 3 6t12 7q5 6 10.5 12t14.5 14v-1 q2 11 -4 18.5t-12 7.5h-4q-18 -2 -40 -20t-40 -47q-13 -20 -19.5 -41t-6.5 -38q0 -13 4 -23.5t13 -15.5q17 -11 36.5 3t38.5 40q-13 10 -13 30q0 13 4 26t10 22h-7zM111 138q-5 -8 -10.5 -21.5t-5.5 -27.5q0 -19 10 -25q12 20 22 40t14 44q1 5 1 14.5t-2 8.5q-2 -14 -11 -22 t-19 -11h1zM135 168v-1v1h1l-1 -1l-2 -2q1 2 1 4zM206 248q0 -8 -4 -12.5t-9.5 -7t-10.5 -3.5t-6 -1q-13 0 -18.5 5t-10.5 10q-4 5 -8.5 8.5t-12.5 3.5q-9 0 -17 -4h1q-6 -4 -9 0.5t2 7.5h-1q13 11 26 11q12 0 19.5 -5.5t13.5 -10.5q5 -5 9 -8t7 -3q5 0 10 2.5t14 10.5 q5 5 5 -4z" />
<glyph unicode="&#xf6;" horiz-adv-x="153" d="M148 145q-7 -44 -35 -84q12 -3 22.5 1t18.5 12l8 -2q-27 -22 -52 -16q-26 -35 -54 -49.5t-48 -0.5q-21 13 -21 49q0 20 7 43.5t21 43.5q12 19 27.5 33t31 22.5t29 11t22.5 -1.5q18 -7 16 -28q5 0 6.5 -11t0.5 -19v-4zM95 137q-4 1 3 6t12 7q5 6 10.5 12t14.5 14v-1 q2 11 -4 18.5t-12 7.5h-4q-18 -2 -40 -20t-40 -47q-13 -20 -19.5 -41t-6.5 -38q0 -13 4 -23.5t13 -15.5q17 -11 36.5 3t38.5 40q-13 10 -13 30q0 13 4 26t10 22h-7zM111 138q-5 -8 -10.5 -21.5t-5.5 -27.5q0 -19 10 -25q12 20 22 40t14 44q1 5 1 14.5t-2 8.5q-2 -14 -11 -22 t-19 -11h1zM135 168v-1v1h1l-1 -1l-2 -2q1 2 1 4zM156 247q1 3 5.5 9t9 11.5t8.5 8.5t4 0q0 -2 -0.5 -3t-0.5 -3v-6q-2 -18 -11 -30.5t-18 -20.5q-8 -7 -7.5 -4.5t3.5 10.5q2 5 4.5 12.5t2.5 15.5zM126 247q1 3 5.5 9t9 11.5t8.5 8.5t4 0q0 -2 -0.5 -3t-0.5 -3v-6 q-2 -18 -11 -30.5t-18 -20.5q-8 -7 -7.5 -4.5t3.5 10.5q2 5 4.5 12.5t2.5 15.5z" />
<glyph unicode="&#xf7;" horiz-adv-x="200" d="M175 117q-6 4 -29 6.5t-45 0.5h-16.5t-16.5 1q-9 0 -18 0.5t-18 -0.5h-16v6h6.5t10.5 1q14 2 35.5 3.5t43.5 1.5t39.5 -2.5t25.5 -9.5zM103 108q-2 -3 -1.5 -6.5t1.5 -6.5q2 -9 0 -11v1q-2 -5 -8.5 -11t-9.5 -7q-3 2 -3.5 6.5t0.5 9t2.5 8l1.5 3.5h-1q4 5 12.5 11t5.5 2 v1zM122 188q-2 -3 -1.5 -6.5t1.5 -6.5q2 -9 0 -11v1q-2 -5 -8.5 -11t-9.5 -7q-3 2 -3.5 6.5t0.5 9t2.5 8l1.5 3.5h-1q4 5 12.5 11t5.5 2v1z" />
<glyph unicode="&#xf8;" horiz-adv-x="153" d="M125 237q-5 -5 -15 -27q3 0 7.5 -0.5t7.5 -2.5q18 -7 16 -28q5 0 6.5 -11t0.5 -19v-4q-7 -44 -35 -84q12 -3 22.5 1t18.5 12l8 -2q-27 -22 -52 -16q-17 -23 -35.5 -38t-35.5 -18q-2 -4 -2 -7t-1 -6q0 -2 -0.5 -3.5t-0.5 -2.5l-6 1q0 1 0.5 2t0.5 3q1 3 3 10t0 3 q-8 -1 -14 1t-11 5q-21 13 -21 49q0 20 7 43.5t21 43.5q17 27 41 45t44 22q6 11 11.5 21t10.5 15zM26 16q4 -4 10 -4q4 16 10.5 39.5t14 48.5t16 49.5t17.5 44.5q-16 -8 -30.5 -23t-28.5 -37q-12 -19 -19 -40.5t-7 -38.5q0 -13 4 -23.5t13 -15.5zM95 137q-4 1 3 6t12 7 q5 6 10.5 12t14.5 14v-1q2 11 -4 18.5t-12 7.5h-4q-3 0 -5 -1q-2 0 -2 -0.5t-2 -0.5q-7 -18 -13.5 -38.5t-11.5 -40.5q-5 -14 -10 -29l-10 -30q-5 -12 -9 -23.5t-9 -25.5q14 2 29 15.5t29 32.5q-13 10 -13 29q0 13 4 26t10 22h-7zM111 138q-5 -8 -10.5 -21.5t-5.5 -27.5 q0 -19 10 -25q12 20 22 40t14 44q1 5 1 14.5t-2 8.5q-2 -14 -11 -22t-19 -11h1zM135 168v-1v1h1l-1 -1l-2 -2q1 2 1 4z" />
<glyph unicode="&#xf9;" horiz-adv-x="177" d="M178 71q3 3 4 3h1q1 -2 1 -4t-2 -6q-5 -8 -11 -15t-12 -15q-12 -13 -28 -23.5t-34 -11.5q-13 0 -17 6q-5 5 -6 16t7 31q-7 -7 -17 -16t-21 -17t-22 -13.5t-19 -5.5q-15 0 -19 10v-1q-12 17 19 80q18 36 29 57.5t17 33.5l8 16t2 6q2 3 3 -2t2 -13.5t0.5 -16.5t-1.5 -10 q-13 -22 -25 -44q-11 -19 -21.5 -39.5t-17.5 -36.5q-1 -2 -3 -7.5t-2.5 -11t0 -10t5.5 -5.5q8 -2 35 13t57 55q2 2 2.5 4t2.5 5l4 8l26 53q5 10 9.5 19.5t8.5 17.5l10 20q4 8 5.5 -2.5t0.5 -23.5q0 -7 -0.5 -11t-1.5 -7q-6 -9 -14 -23t-16.5 -30t-17 -32.5t-14.5 -29.5 q-2 -4 -4.5 -9.5t-4 -11t-0.5 -10t7 -5.5q3 0 10.5 1.5t18.5 8t24.5 19t29.5 34.5zM77 258q0 2 6 2q12 0 20.5 -3t16.5 -6q7 -3 13.5 -5t14.5 -2q4 0 12 2q3 1 10 1q3 0 3 -4q0 -1 -6 -5.5t-33 -4.5q-15 0 -29 4.5t-28 18.5v2z" />
<glyph unicode="&#xfa;" horiz-adv-x="177" d="M178 71q3 3 4 3h1q1 -2 1 -4t-2 -6q-5 -8 -11 -15t-12 -15q-12 -13 -28 -23.5t-34 -11.5q-13 0 -17 6q-5 5 -6 16t7 31q-7 -7 -17 -16t-21 -17t-22 -13.5t-19 -5.5q-15 0 -19 10v-1q-12 17 19 80q18 36 29 57.5t17 33.5l8 16t2 6q2 3 3 -2t2 -13.5t0.5 -16.5t-1.5 -10 q-13 -22 -25 -44q-11 -19 -21.5 -39.5t-17.5 -36.5q-1 -2 -3 -7.5t-2.5 -11t0 -10t5.5 -5.5q8 -2 35 13t57 55q2 2 2.5 4t2.5 5l4 8l26 53q5 10 9.5 19.5t8.5 17.5l10 20q4 8 5.5 -2.5t0.5 -23.5q0 -7 -0.5 -11t-1.5 -7q-6 -9 -14 -23t-16.5 -30t-17 -32.5t-14.5 -29.5 q-2 -4 -4.5 -9.5t-4 -11t-0.5 -10t7 -5.5q3 0 10.5 1.5t18.5 8t24.5 19t29.5 34.5zM171 258q-14 -14 -28 -18.5t-29 -4.5q-27 0 -33 4.5t-6 5.5q0 4 3 4q7 0 10 -1q8 -2 12 -2q8 0 14.5 2t13.5 5q8 3 16.5 6t20.5 3q6 0 6 -2v-2z" />
<glyph unicode="&#xfb;" horiz-adv-x="177" d="M178 71q3 3 4 3h1q1 -2 1 -4t-2 -6q-5 -8 -11 -15t-12 -15q-12 -13 -28 -23.5t-34 -11.5q-13 0 -17 6q-5 5 -6 16t7 31q-7 -7 -17 -16t-21 -17t-22 -13.5t-19 -5.5q-15 0 -19 10v-1q-12 17 19 80q18 36 29 57.5t17 33.5l8 16t2 6q2 3 3 -2t2 -13.5t0.5 -16.5t-1.5 -10 q-13 -22 -25 -44q-11 -19 -21.5 -39.5t-17.5 -36.5q-1 -2 -3 -7.5t-2.5 -11t0 -10t5.5 -5.5q8 -2 35 13t57 55q2 2 2.5 4t2.5 5l4 8l26 53q5 10 9.5 19.5t8.5 17.5l10 20q4 8 5.5 -2.5t0.5 -23.5q0 -7 -0.5 -11t-1.5 -7q-6 -9 -14 -23t-16.5 -30t-17 -32.5t-14.5 -29.5 q-2 -4 -4.5 -9.5t-4 -11t-0.5 -10t7 -5.5q3 0 10.5 1.5t18.5 8t24.5 19t29.5 34.5zM154 220q-3 0 -4 1q1 -1 4 -1zM150 221q-3 0 -4 1q1 -1 4 -1zM183 230q-2 0 -6 -0.5t-9 -0.5h10q3 0 5 1zM128 258q8 -3 11.5 -6.5l8.5 -8.5t9.5 -8.5t9.5 -5.5h1q-10 -2 -18.5 -3.5 t-3.5 -3.5q-6 2 -11.5 6.5t-10.5 14.5q-11 -8 -21.5 -9t-18.5 1q-14 3 -20 11t-2 9q1 -1 4.5 -2.5t5.5 -2.5l6 -3q6 -1 11.5 1t11.5 4l12 4t13 2h2z" />
<glyph unicode="&#xfc;" horiz-adv-x="177" d="M178 71q3 3 4 3h1q1 -2 1 -4t-2 -6q-5 -8 -11 -15t-12 -15q-12 -13 -28 -23.5t-34 -11.5q-13 0 -17 6q-5 5 -6 16t7 31q-7 -7 -17 -16t-21 -17t-22 -13.5t-19 -5.5q-15 0 -19 10v-1q-12 17 19 80q18 36 29 57.5t17 33.5l8 16t2 6q2 3 3 -2t2 -13.5t0.5 -16.5t-1.5 -10 q-13 -22 -25 -44q-11 -19 -21.5 -39.5t-17.5 -36.5q-1 -2 -3 -7.5t-2.5 -11t0 -10t5.5 -5.5q8 -2 35 13t57 55q2 2 2.5 4t2.5 5l4 8l26 53q5 10 9.5 19.5t8.5 17.5l10 20q4 8 5.5 -2.5t0.5 -23.5q0 -7 -0.5 -11t-1.5 -7q-6 -9 -14 -23t-16.5 -30t-17 -32.5t-14.5 -29.5 q-2 -4 -4.5 -9.5t-4 -11t-0.5 -10t7 -5.5q3 0 10.5 1.5t18.5 8t24.5 19t29.5 34.5zM134 247q1 3 5.5 9t9 11.5t8.5 8.5t4 0q0 -2 -0.5 -3t-0.5 -3v-6q-2 -18 -11 -30.5t-18 -20.5q-8 -7 -7.5 -4.5t3.5 10.5q2 5 4.5 12.5t2.5 15.5zM104 247q1 3 5.5 9t9 11.5t8.5 8.5t4 0 q0 -2 -0.5 -3t-0.5 -3v-6q-2 -18 -11 -30.5t-18 -20.5q-8 -7 -7.5 -4.5t3.5 10.5q2 5 4.5 12.5t2.5 15.5z" />
<glyph unicode="&#xfd;" horiz-adv-x="165" d="M95 0q-3 0 -9 2q-10 4 -12 12q-17 -32 -37 -59.5t-48 -44.5h-1q-2 -2 -6.5 -3t-7.5 -2l-9 -3q-14 -3 -29 -1q-12 2 -26.5 7t-25.5 18h1q-3 2 -5 5v-1q-2 2 -4 6q0 1 5 0.5t11.5 -2t12.5 -3.5t9 -4q8 -11 21 -15t27 -2q15 4 30.5 18t29.5 33t27.5 41.5t24.5 45.5 q-13 -15 -34 -31.5t-41 -16.5q-15 0 -19 10v-1q-12 17 19 80q26 52 37.5 75.5t15.5 30.5l2 4t1 3q1 2 2.5 -3.5t2 -13t0.5 -15t-1 -10.5q-6 -14 -15.5 -30.5t-17.5 -30.5v1q-11 -20 -21 -37t-13 -27q-2 -3 -4 -13q-2 -13 7 -17q4 0 13 2.5t20.5 9t25.5 19t29 32.5v-1 q2 5 8 18.5t14 30t16 34t14.5 30.5t10 19.5t1.5 1.5q1 -2 2 -7.5t1 -12.5v-13t-1 -9q0 -1 -5.5 -12l-15.5 -31q-8 -14 -17 -33t-20 -41q0 -3 -1 -4q-2 -8 -5 -19.5t6 -13.5q3 0 8.5 1t14 7t20.5 19t29 37q4 4 7 4q2 -2 -2 -9q-6 -9 -11 -16t-12 -15q-11 -12 -24.5 -23 t-25.5 -11zM161 258q-14 -14 -28 -18.5t-29 -4.5q-27 0 -33 4.5t-6 5.5q0 4 3 4q7 0 10 -1q8 -2 12 -2q8 0 14.5 2t13.5 5q8 3 16.5 6t20.5 3q6 0 6 -2v-2z" />
<glyph unicode="&#xff;" horiz-adv-x="165" d="M95 0q-3 0 -9 2q-10 4 -12 12q-17 -32 -37 -59.5t-48 -44.5h-1q-2 -2 -6.5 -3t-7.5 -2l-9 -3q-14 -3 -29 -1q-12 2 -26.5 7t-25.5 18h1q-3 2 -5 5v-1q-2 2 -4 6q0 1 5 0.5t11.5 -2t12.5 -3.5t9 -4q8 -11 21 -15t27 -2q15 4 30.5 18t29.5 33t27.5 41.5t24.5 45.5 q-13 -15 -34 -31.5t-41 -16.5q-15 0 -19 10v-1q-12 17 19 80q26 52 37.5 75.5t15.5 30.5l2 4t1 3q1 2 2.5 -3.5t2 -13t0.5 -15t-1 -10.5q-6 -14 -15.5 -30.5t-17.5 -30.5v1q-11 -20 -21 -37t-13 -27q-2 -3 -4 -13q-2 -13 7 -17q4 0 13 2.5t20.5 9t25.5 19t29 32.5v-1 q2 5 8 18.5t14 30t16 34t14.5 30.5t10 19.5t1.5 1.5q1 -2 2 -7.5t1 -12.5v-13t-1 -9q0 -1 -5.5 -12l-15.5 -31q-8 -14 -17 -33t-20 -41q0 -3 -1 -4q-2 -8 -5 -19.5t6 -13.5q3 0 8.5 1t14 7t20.5 19t29 37q4 4 7 4q2 -2 -2 -9q-6 -9 -11 -16t-12 -15q-11 -12 -24.5 -23 t-25.5 -11zM124 247q1 3 5.5 9t9 11.5t8.5 8.5t4 0q0 -2 -0.5 -3t-0.5 -3v-6q-2 -18 -11 -30.5t-18 -20.5q-8 -7 -7.5 -4.5t3.5 10.5q2 5 4.5 12.5t2.5 15.5zM94 247q1 3 5.5 9t9 11.5t8.5 8.5t4 0q0 -2 -0.5 -3t-0.5 -3v-6q-2 -18 -11 -30.5t-18 -20.5q-8 -7 -7.5 -4.5 t3.5 10.5q2 5 4.5 12.5t2.5 15.5z" />
<glyph unicode="&#x152;" horiz-adv-x="512" d="M326 -189q-35 4 -57 33t-28 63q-34 11 -58 35q-12 -4 -27 -4q-16 0 -25 4q-12 -3 -23 -3q-22 0 -41.5 13.5t-36.5 43.5q-7 14 -13 37t-6 55q0 26 5.5 58t19.5 68l1 2q-13 17 -20 40q-1 2 -1 5.5v6.5q0 26 21 39.5t52 13.5h6q52 59 107 71h-1q19 32 56 32q24 0 45.5 -17 t29.5 -43q2 -6 2 -10q0 -2 -4 0t-9 6t-10 9t-7 9q-2 16 -16 27.5t-31 11.5q-26 0 -44 -23q5 1 8 1.5t8 0.5q57 0 62 -57q11 -12 16.5 -32t5.5 -45q0 -7 -0.5 -14t-1.5 -13v-4q13 -4 27 -5t31 -1q40 0 74 10h-1q8 11 19 23.5t20 21.5q16 17 35 34t39 28h-1q11 6 20 9t14 4 q4 1 8.5 0t3.5 -10q0 -5 -4 -11q-21 -35 -58 -61.5t-82 -40.5h1q-6 -8 -12.5 -17.5t-19.5 -26.5q1 -1 2 -1l4 -4t0 -6q-3 -4 -7 -3.5t-8 2.5h1q-5 1 -7 6q-29 6 -60 6q-11 0 -23 -1t-23 -3q-10 -36 -25.5 -73t-32.5 -66q-29 -44 -65 -75q3 -5 6.5 -9.5t6.5 -8.5 q15 8 33.5 20.5t30.5 24.5v-1q11 22 26.5 42.5t35 36t41 24.5t44.5 9q17 1 31.5 -6t25 -19t16.5 -28t6 -32q0 -20 -9 -39t-24.5 -34.5t-35.5 -28t-42 -18.5q-15 -5 -30 -7.5t-31 -2.5q-33 0 -64 10q2 -13 8.5 -25t14.5 -23q8 -8 17 -14.5t19 -5.5q3 -1 9.5 -5t12 -8 t8.5 -7.5t-1 -3.5h-10zM405 101q-35 0 -64.5 -20.5t-52.5 -50.5v1q-5 -19 -23 -38v1q-9 -20 -14.5 -39t-3.5 -36q18 -7 38 -11t40 -4q15 0 32 3.5t32 8.5q36 16 62 45.5t26 61.5q0 15 -5.5 29t-15 25t-22.5 17.5t-29 6.5zM132 -50q6 2 14 6.5t17 9.5q-11 17 -17 38t-6 42 q0 30 11.5 58t35.5 51q13 12 30 21.5t34 14.5q0 1 -1 3q0 1 -0.5 1.5t-0.5 2.5l-4 8t-5 9q-6 -5 -14.5 -10t-16.5 -10q-20 -11 -45.5 -14.5t-48.5 -0.5q-7 -14 -16 -36t-14 -38q-3 -13 -5 -27.5t-2 -27.5q0 -30 12 -57.5t42 -43.5zM239 50q40 59 57 133q-6 -2 -16 -5t-15 -3 q3 -23 -4 -47q-1 -1 -1 -2l-1 -2q-1 -2 -1.5 -2.5t-1.5 -2.5q-2 -3 -3 1.5t-2.5 11.5t-2 14.5t-0.5 11.5q2 2 3 5.5t2 6.5q-11 -5 -24 -12t-24 -17q-23 -17 -34 -43.5t-11 -55.5q0 -35 16 -66q36 28 63 74zM108 -54q7 0 12 1q-31 18 -43 50t-12 67q0 19 3 37q11 43 28 82 q-14 3 -26.5 9t-22.5 14q-10 -19 -17 -46q-10 -36 -12 -77q1 -29 6.5 -50.5t12.5 -33.5q14 -29 32.5 -41t38.5 -12zM98 189v1h1zM50 214q10 -8 22.5 -14.5t25.5 -9.5q15 28 32.5 52.5t37.5 48.5q-14 8 -28.5 13.5t-28.5 7.5q-6 -7 -12.5 -15t-10.5 -15q-23 -30 -38 -68z M187 279l-1 -1q-1 0 -1 1h2zM236 221q-22 34 -50 57q-37 -41 -66 -91q21 -5 44 0t43 14q14 9 29 20zM284 330q-20 6 -38.5 -4t-35.5 -25q0 -2 3 -2l4 -4q8 -12 20 -23t26 -19q10 16 15.5 34t5.5 37v6zM590 338q1 2 1.5 5t-1.5 4q-31 -11 -63.5 -40.5t-61.5 -64.5 q39 14 72 40t53 56zM173 296v1q1 -1 2 -1h-2zM117 319q14 -3 28.5 -9t27.5 -13q4 4 10 10.5t12 11.5q-6 16 -6 31q0 17 4 26q-20 -8 -38.5 -22.5t-37.5 -34.5zM283 342q0 1 -0.5 1t-0.5 1q1 0 1.5 -0.5t1.5 -0.5zM200 324q18 14 40 22.5t42 -2.5q-4 23 -17.5 32t-30.5 9 q-15 0 -31 -6q-7 -14 -7 -29q0 -13 4 -26zM311 226v-2l-1 1zM369 218q-17 0 -31 1t-27 5q-1 -2 -1 -5q-1 -5 -2 -11.5t-1 -8.5q20 1 43 -0.5t44 -4.5q5 -1 8.5 -1t8.5 -1q4 7 12 18q2 3 5.5 7.5t5.5 8.5q-34 -8 -65 -8zM24 258q2 -9 6 -17.5t10 -15.5q11 27 23.5 49t23.5 40 q-28 0 -46 -12.5t-18 -33.5q0 -8 1 -10zM299 198v1h1zM260 193q19 4 39 6q2 7 3 14.5t2 13.5q-8 4 -20 8.5t-18 7.5q-8 -13 -20 -23q3 -5 6.5 -12zM292 324q0 -40 -22 -75q8 -5 16.5 -8t18.5 -7q1 7 1 13.5v14.5q0 15 -1.5 30.5t-9.5 29.5l-3 3v-1zM241 226l1 1 q1 0 0.5 -0.5t0.5 -0.5h-2zM192 283q14 -11 26.5 -24.5t23.5 -31.5q4 4 8 8.5t9 10.5q-31 20 -49 45q-3 3 -4 6q-6 -4 -10 -10zM253 -19q-2 -1 -5 -4q2 4 3 5zM238 -78q1 13 3 27.5t7 27.5q-11 -10 -23 -17t-26 -13q3 -2 4 -3l4.5 -4.5t6.5 -4.5h-1q2 -1 3.5 -2t3.5 -2 q7 -6 18 -9zM156 -55q6 0 11 0.5t11 2.5q-6 6 -10 12q-5 -3 -11.5 -7t-13.5 -7h1q4 -1 12 -1zM423 180q-2 2 -3 1l1 2q2 -2 4 -2l-1 -2z" />
<glyph unicode="&#x153;" horiz-adv-x="256" d="M250 155q-17 -18 -51 -18q-16 0 -26 10l-3 3q-1 3 7.5 2.5t10.5 -2.5q3 -5 11 -6.5t13 -1.5q8 2 17.5 5.5t15.5 11.5q4 5 6.5 11.5t1.5 12t-5.5 9t-14.5 3.5q-17 -1 -40 -19.5t-42 -46.5q-12 -19 -18.5 -40.5t-6.5 -38.5q0 -29 16 -39q11 -7 25 -5.5t29 10t30 22.5t28 33 q4 5 7 3.5t-2 -9.5q-14 -22 -32.5 -37t-37 -23.5t-36 -9.5t-29.5 6q-21 13 -21 46q-26 -33 -51 -43.5t-45 2.5q-21 13 -21 49q0 20 7 43.5t21 43.5q12 19 27.5 33t31 22.5t29 11t22.5 -1.5q8 -3 12 -12t4 -17q5 2 6.5 -4t1.5 -14q23 25 49.5 37.5t46.5 5.5q7 -2 11 -8 t4.5 -13.5t-1.5 -15t-8 -11.5zM94 137q-4 1 3 6t12 7q5 6 10.5 12t14.5 14v-1q2 11 -4 18.5t-12 7.5h-4q-18 -2 -40 -20t-40 -47q-13 -20 -19.5 -41t-6.5 -38q0 -13 4 -23.5t13 -15.5q17 -11 36.5 3t38.5 40q-13 10 -13 30q0 13 4 26t10 22h-7zM110 138q-5 -8 -10.5 -21.5 t-5.5 -27.5q0 -19 10 -25q2 18 8.5 36.5t18.5 35.5v-1q0 1 2 5q1 2 2 3v-1q1 2 2.5 4t2.5 4v-1q1 5 1 14t-2 8q-2 -14 -11 -22t-19 -11h1zM134 168v-1v1h1l-1 -1l-2 -2q1 2 1 4z" />
<glyph unicode="&#x160;" horiz-adv-x="380" d="M257 -58q-39 -18 -85 -18q-38 0 -74 13.5t-60 41.5q-17 20 -25.5 45t-8.5 52q0 29 9.5 56.5t27.5 48.5q29 35 69 46.5t87 8.5q14 -2 30 -10t26 -20q2 -2 3.5 -5.5t2.5 -5.5q0 -2 -5 -1t-11 3t-12 4.5t-8 4.5q-8 14 -22.5 19t-27.5 5h-5q-25 0 -40 -4q-17 -5 -32.5 -13 t-29.5 -26q-20 -21 -31.5 -49.5t-11.5 -58.5q0 -22 7 -43.5t24 -39.5q20 -26 52.5 -40t70.5 -14q32 0 65 11q29 9 53 27.5t38 47.5q7 20 7 41q0 23 -6.5 45t-16.5 41v-1q-17 28 -41 60t-52 66q-7 7 -14.5 19t-12.5 27q-5 14 3.5 30t20.5 21h-1q14 8 35.5 12.5t45.5 4.5 q21 0 42 -3.5t40.5 -11t34.5 -18.5t24 -26q0 -2 3 -5q0 -2 2 -6q1 -3 -3.5 -2t-10.5 4t-12 7.5t-8 7.5q-10 24 -34.5 30.5t-48.5 8.5h-17q-20 0 -39 -2.5t-34 -8.5q-33 -14 -33 -36q0 -9 6 -21.5t17 -26.5q29 -35 54 -69t42 -64v1q14 -23 19.5 -43.5t5.5 -39.5 q0 -44 -26 -76.5t-68 -51.5zM335 476h2h-2zM332 477q2 0 3 -1h-2q-1 0 -1 1zM367 478q7 -4 7 -5q-4 2 -7 5zM344 476q1 -1 1.5 -1t1.5 -1q-3 1 -5.5 1t-4.5 1h7zM431 436l8 -8q-6 4 -10 8h2zM380 437q-5 4 -9.5 9.5t-7.5 10.5q-3 4 -6 8.5t-10 8.5q9 -2 17.5 -2.5t9.5 1.5 q5 -4 8 -8.5t5 -15.5q11 5 21.5 4.5t18.5 -4.5q-9 3 -6.5 -2t8.5 -11q-10 3 -21 0q-6 -2 -12.5 -2.5t-13.5 2.5z" />
<glyph unicode="&#x161;" horiz-adv-x="142" d="M63 182q0 1 -0.5 2t-0.5 3q-1 3 -1.5 7.5t-2.5 9.5t2 16t18 7q11 -7 7 -17.5t-9 -18.5q-2 -2 -2 -3q1 -6 5 -13q2 -5 3.5 -9t3.5 -9t3.5 -10t3.5 -10q7 -18 14 -40t10 -41q4 -25 -11.5 -40t-33.5 -16q-21 -1 -34 11t-13 32v6q1 3 6 -4t6 -12q0 -6 1 -8q5 -12 23 -17 q14 1 25.5 13t9.5 29q0 15 -6 39.5t-12 44.5q-1 4 -2 7l-2 6q-2 8 -4 13.5t-4 12.5q-7 -14 -16.5 -31l-19 -34t-19 -32t-17.5 -25l-6 5q8 11 18.5 27t21 33.5t20 34.5t15.5 31zM71 199l1 1l1 -3h-2v2zM44 282h2h-2zM41 283q2 0 3 -1h-2q-1 0 -1 1zM76 284q7 -4 7 -5 q-4 2 -7 5zM53 282q1 -1 1.5 -1t1.5 -1q-3 1 -5.5 1t-4.5 1h7zM140 242l8 -8q-6 4 -10 8h2zM89 243q-5 4 -9.5 9.5t-7.5 10.5q-3 4 -6 8.5t-10 8.5q9 -2 17.5 -2.5t9.5 1.5q5 -4 8 -8.5t5 -15.5q11 5 21.5 4.5t18.5 -4.5q-9 3 -6.5 -2t8.5 -11q-10 3 -21 0q-6 -2 -12.5 -2.5 t-13.5 2.5z" />
<glyph unicode="&#x178;" horiz-adv-x="401" d="M471 302q2 2 8 6t10 -3v1q1 -1 1 -7q0 -12 -12 -38.5t-35 -63.5v1q-15 -26 -34 -53t-40 -53q-5 -8 -8.5 -14t-7.5 -13t-7.5 -14.5t-7.5 -14.5q-45 -77 -98 -156q-14 -21 -28 -41.5t-28 -42.5v1q-1 -2 -2.5 -4.5t-2.5 -4.5q-8 -12 -22 -25.5t-40 -17.5q-2 -1 -5.5 -1h-6.5 t0 3.5t8 8t11 9t10 5.5q11 -1 21 6.5t17 16.5q32 55 64 111l64 112q-1 0 -1 -0.5t-1 -0.5h1q-1 -1 -4 -3h1q-21 -16 -42.5 -22.5t-42.5 -6.5q-39 0 -64 18h1q-12 6 -21.5 20t-11.5 24q-7 27 -7 56q0 22 4 38q17 66 55.5 122t86.5 105q-9 0 -12 -1q-29 -4 -64.5 -14.5 t-64.5 -30.5q-32 -19 -60.5 -52.5t-38.5 -80.5v-5q-1 -6 -1.5 -12.5t-0.5 -18.5q2 -11 6.5 -21.5t13.5 -15.5q2 -3 4.5 -9t4.5 -12.5t2.5 -11.5t-0.5 -5q-1 1 -5 3q-5 2 -6 5v-1q-16 13 -22 31.5t-6 40.5q0 28 8.5 56t21.5 50q27 44 70 70q21 14 45.5 22.5t49.5 12.5 q31 6 63 8l4.5 4.5t3.5 4.5q8 9 17.5 18t20.5 9q13 0 13 -13q0 -10 -11.5 -20.5t-36.5 -10.5h-6q-13 -15 -30 -37.5t-34 -49t-33.5 -56t-27.5 -57.5q-17 -45 -12 -101q2 -19 15 -37.5t33 -23.5q20 -7 42 -7q35 0 68 18h-1q7 5 12.5 10.5l12.5 12.5l4 5v-1q4 7 8 14.5t9 15.5 t8.5 14.5t8.5 14.5v-1q5 8 9.5 16.5t9.5 16.5q22 37 42 72.5t35 60.5q7 11 12 18.5t13 17.5zM308 403q-7 0 -13 -6t-12 -13q-2 -2 -4 -5.5t-4 -4.5q21 1 30 9t9 14t-6 6zM437 202q20 33 31.5 59.5t11.5 37.5q-1 -1 -2.5 -2t-2.5 -2q-3 -3 -4 -7q-6 -8 -10.5 -15t-8.5 -14 q-2 -2 -2.5 -4t-2.5 -4v1q-13 -27 -26 -55.5t-32 -66.5q14 20 25.5 37.5t22.5 34.5zM431 465q1 3 5.5 9t9 11.5t8.5 8.5t4 0q0 -2 -0.5 -3t-0.5 -3v-6q-2 -18 -11 -30.5t-18 -20.5q-8 -7 -7.5 -4.5t3.5 10.5q2 5 4.5 12.5t2.5 15.5zM401 465q1 3 5.5 9t9 11.5t8.5 8.5t4 0 q0 -2 -0.5 -3t-0.5 -3v-6q-2 -18 -11 -30.5t-18 -20.5q-8 -7 -7.5 -4.5t3.5 10.5q2 5 4.5 12.5t2.5 15.5z" />
<glyph unicode="&#x17d;" horiz-adv-x="187" d="M337 399q6 0 7 -5.5t-5 -9.5l-4.5 -3t-3.5 -3t-4.5 -3t-4.5 -2q-13 -15 -22 -28.5t-20 -30.5q-5 -9 -12 -20.5t-13 -22.5v1q-9 -16 -18 -33.5t-20 -34.5v1l-32 -56t-31.5 -53t-30.5 -46.5t-28 -36.5q7 1 16 1.5t17 0.5q36 0 89 -9.5t122 -35.5q21 -7 40 -19.5t30 -35.5v1 q0 -1 1 -2t1 -2.5t1 -2.5q0 -2 2 -6q0 -3 -4.5 -1t-10.5 6.5t-12 9.5t-10 9q-4 14 -17 23t-26 14q-66 23 -118 33t-87 10q-26 0 -44 -3h1q-15 -15 -25 -19h1q-3 -2 -9 -4t-11.5 -3t-9.5 0t-3 6q1 6 7.5 10.5t15 8t17 5.5t13.5 3h-1q14 17 29 44.5t31 58.5q11 20 21.5 40.5 t21.5 38.5q15 27 33.5 56t35.5 52q11 16 23 32t26 32h-1q-6 -3 -10 -4.5t-7 -3.5q-35 -12 -71.5 -21t-74.5 -4q-4 0 -13.5 2.5t-21 7.5t-23.5 13t-21 21q-3 2 -4 7q-1 2 -1.5 2.5t-1.5 2.5q-2 3 3 1t12 -5.5t14 -7.5t10 -6q5 -11 19 -18.5t25 -11.5q8 -2 16.5 -2.5 t16.5 -0.5q37 0 73.5 11.5t70.5 28.5q3 5 10 13.5t15 8.5zM58 -8q1 1 2 1.5t2 1.5q2 2 2 2.5t4 2.5q-25 -8 -29 -15q9 0 20 7h-1zM336 390l-4 -2h1l-1.5 -1.5t-3.5 -1.5l1 2q1 -1 3 1.5t4 4.5l1 -2zM288 476h2h-2zM285 477q2 0 3 -1h-2q-1 0 -1 1zM320 478q7 -4 7 -5 q-4 2 -7 5zM297 476q1 -1 1.5 -1t1.5 -1q-3 1 -5.5 1t-4.5 1h7zM384 436l8 -8q-6 4 -10 8h2zM333 437q-5 4 -9.5 9.5t-7.5 10.5q-3 4 -6 8.5t-10 8.5q9 -2 17.5 -2.5t9.5 1.5q5 -4 8 -8.5t5 -15.5q11 5 21.5 4.5t18.5 -4.5q-9 3 -6.5 -2t8.5 -11q-10 3 -21 0 q-6 -2 -12.5 -2.5t-13.5 2.5z" />
<glyph unicode="&#x17e;" horiz-adv-x="146" d="M31 -90q11 20 20.5 40.5t19.5 41.5q8 18 17 36l19 38v2q-2 0 -4 -5t-5 -11l-3.5 -7t-3.5 -6q-2 -4 -3 -7q-2 -2 -7 -5t-10 5q-3 6 0 20q1 2 6 17q4 11 9.5 26t11 30.5t11 30t8.5 23.5q0 2 -0.5 7t-2.5 7q-4 3 -10.5 1t-14 -7t-14.5 -12.5t-12 -14.5v1l-15 -27 q-12 -20 -24.5 -42t-26.5 -42l-7 5q15 18 27 38.5t21 37.5q3 8 5 10q2 3 3.5 6.5t3.5 6.5q5 10 6 21t-4 19q0 3 1 10.5t2.5 14t3 11t3.5 2.5q0 -2 3 -5q0 -2 2 -6q5 -10 4.5 -19.5t-2.5 -18.5q8 9 17.5 16t24.5 8q11 0 14.5 -7.5t3.5 -25.5v-17q0 -2 -0.5 -3t-0.5 -3 q-14 -27 -25 -50q-9 -20 -16 -38t-5 -24q3 3 5 11q3 8 6.5 14.5t5.5 8.5v-1q5 8 10.5 11t10.5 -2h-1q7 -3 7 -15.5t-4 -20.5q-2 -2 -6 -10l-12 -24q-4 -7 -7.5 -14.5t-6.5 -12.5l-5 -10q-12 -26 -28 -53.5t-35 -51t-41 -40t-45 -20.5q-21 -3 -47 -0.5t-46 25.5q-1 1 -2 3 l-2 4q-3 3 -3 4t5 0.5t11 -2.5t12 -4.5t9 -4.5q8 -12 21 -16.5t29 -3.5q18 1 34 10t30 23t25 30.5t19 32.5zM70 282h2h-2zM67 283q2 0 3 -1h-2q-1 0 -1 1zM102 284q7 -4 7 -5q-4 2 -7 5zM79 282q1 -1 1.5 -1t1.5 -1q-3 1 -5.5 1t-4.5 1h7zM166 242l8 -8q-6 4 -10 8h2z M115 243q-5 4 -9.5 9.5t-7.5 10.5q-3 4 -6 8.5t-10 8.5q9 -2 17.5 -2.5t9.5 1.5q5 -4 8 -8.5t5 -15.5q11 5 21.5 4.5t18.5 -4.5q-9 3 -6.5 -2t8.5 -11q-10 3 -21 0q-6 -2 -12.5 -2.5t-13.5 2.5z" />
<glyph unicode="&#x2c6;" horiz-adv-x="144" d="M103 220q-3 0 -4 1q1 -1 4 -1zM99 221q-3 0 -4 1q1 -1 4 -1zM132 230q-2 0 -6 -0.5t-9 -0.5h10q3 0 5 1zM77 258q8 -3 11.5 -6.5l8.5 -8.5t9.5 -8.5t9.5 -5.5h1q-10 -2 -18.5 -3.5t-3.5 -3.5q-6 2 -11.5 6.5t-10.5 14.5q-11 -8 -21.5 -9t-18.5 1q-14 3 -20 11t-2 9 q1 -1 4.5 -2.5t5.5 -2.5l6 -3q6 -1 11.5 1t11.5 4l12 4t13 2h2z" />
<glyph unicode="&#x2c7;" horiz-adv-x="150" d="M18 258h2h-2zM15 259q2 0 3 -1h-2q-1 0 -1 1zM50 260q7 -4 7 -5q-4 2 -7 5zM27 258q1 -1 1.5 -1t1.5 -1q-3 1 -5.5 1t-4.5 1h7zM114 218l8 -8q-6 4 -10 8h2zM63 219q-5 4 -9.5 9.5t-7.5 10.5q-3 4 -6 8.5t-10 8.5q9 -2 17.5 -2.5t9.5 1.5q5 -4 8 -8.5t5 -15.5 q11 5 21.5 4.5t18.5 -4.5q-9 3 -6.5 -2t8.5 -11q-10 3 -21 0q-6 -2 -12.5 -2.5t-13.5 2.5z" />
<glyph unicode="&#x2da;" horiz-adv-x="54" d="M26 238q0 -3 -2 -7q6 8 7 12q0 1 0.5 1.5t0.5 2.5q-1 0 -3 -3.5t-3 -5.5zM20 247q1 3 5.5 9t9 11.5t8.5 8.5t4 0q0 -2 -0.5 -3t-0.5 -3v-6q0 -18 -10 -30.5t-19 -20.5q-8 -7 -7.5 -4.5t3.5 10.5q2 5 4.5 12.5t2.5 15.5z" />
<glyph unicode="&#x2dc;" horiz-adv-x="124" d="M113 248q0 -8 -4 -12.5t-9.5 -7t-10.5 -3.5t-6 -1q-13 0 -18.5 5t-10.5 10q-4 5 -8.5 8.5t-12.5 3.5q-9 0 -17 -4h1q-6 -4 -9 0.5t2 7.5h-1q13 11 26 11q12 0 19.5 -5.5t13.5 -10.5q5 -5 9 -8t7 -3q5 0 10 2.5t14 10.5q5 5 5 -4z" />
<glyph unicode="&#x2019;" horiz-adv-x="100" d="M86 234q5 8 9 21q2 6 3 10.5t3 6.5q4 5 12.5 15t10.5 9q2 -2 0 -9t-6 -14.5t-7.5 -13.5t-4.5 -7h2l-10 -10q-5 -5 -8.5 -9.5t-6 -6.5t-2 -0.5t4.5 8.5z" />
<glyph unicode="&#x201d;" horiz-adv-x="118" d="M96 234q5 8 9 21q2 6 3 10.5t3 6.5q4 5 12.5 15t10.5 9q2 -2 0 -9t-6 -14.5t-7.5 -13.5t-4.5 -7h2l-10 -10q-5 -5 -8.5 -9.5t-6 -6.5t-2 -0.5t4.5 8.5zM71 234q5 8 9 21q2 6 3 10.5t3 6.5q4 5 12.5 15t10.5 9q2 -2 0 -9t-6 -14.5t-7.5 -13.5t-4.5 -7h2l-10 -10 q-5 -5 -8.5 -9.5t-6 -6.5t-2 -0.5t4.5 8.5z" />
<glyph unicode="&#x20ac;" horiz-adv-x="292" d="M259 258q6 -35 6 -67q0 -51 -11 -95.5t-29.5 -78t-42.5 -52.5t-50 -19q-12 0 -30 6.5t-35 27.5t-29 59t-12 101q0 64 14.5 110.5t36.5 76.5t47.5 44.5t47.5 14.5q15 0 25.5 -7t18 -17.5t11.5 -24t6 -25.5q11 -12 17 -27t8 -24q0 -1 0.5 -1.5t0.5 -1.5zM218 21 q18 32 28.5 75.5t10.5 94.5v6q0 23 -2.5 49.5t-20.5 41.5q-2 -14 -7 -33.5t-16.5 -37.5t-30 -30.5t-47.5 -12.5q0 1 3.5 4.5t9 7.5t10.5 7.5t8 5.5q14 0 25.5 9t19 23t12 30t5.5 31q-3 3 -6.5 8.5l-7 11t-6 10t-2.5 6.5q8 0 14 -4q4 -4 5 -4.5t2 -0.5q-2 10 -6 20.5t-10 19 t-14.5 14t-21.5 5.5q-38 0 -63 -26t-40.5 -65t-22.5 -83.5t-8 -81.5q0 -21 3.5 -50t14 -55.5t28.5 -45t47 -18.5q24 0 46.5 18t39.5 50z" />
<glyph unicode="&#x25fc;" horiz-adv-x="210" d="M0 210h210v-210h-210v210z" />
</font>
</defs>
</svg>
